<ttFont>
<head>
    <!-- Most of this table will be recalculated by the compiler -->
    <tableVersion value="1.0"/>
    <fontRevision value="0.015"/>
    <checkSumAdjustment value="0xbec90c27"/>
    <magicNumber value="0x5f0f3cf5"/>
    <flags value="00000000 00001001"/>
    <unitsPerEm value="1024"/>
    <created value="Fri Nov 29 10:11:58 2024"/>
    <modified value="Mon Jun  2 13:13:53 2025"/>
    <xMin value="-22"/>
    <yMin value="-325"/>
    <xMax value="1103"/>
    <yMax value="1038"/>
    <macStyle value="00000000 00000000"/>
    <lowestRecPPEM value="8"/>
    <fontDirectionHint value="2"/>
    <indexToLocFormat value="0"/>
    <glyphDataFormat value="0"/>
  </head>
    <TTGlyph name=".notdef" xMin="-5" yMin="-27" xMax="517" yMax="827">
      <contour>
        <pt x="512" y="800" on="1"/>
        <pt x="512" y="809" on="0"/>
        <pt x="499" y="822" on="0"/>
        <pt x="490" y="822" on="1"/>
        <pt x="22" y="822" on="1"/>
        <pt x="13" y="822" on="0"/>
        <pt x="0" y="809" on="0"/>
        <pt x="0" y="800" on="1"/>
        <pt x="0" y="0" on="1"/>
        <pt x="0" y="-9" on="0"/>
        <pt x="13" y="-22" on="0"/>
        <pt x="22" y="-22" on="1"/>
        <pt x="490" y="-22" on="1"/>
        <pt x="499" y="-22" on="0"/>
        <pt x="512" y="-9" on="0"/>
        <pt x="512" y="0" on="1"/>
      </contour>
      <contour>
        <pt x="-5" y="800" on="1"/>
        <pt x="-5" y="811" on="0"/>
        <pt x="11" y="827" on="0"/>
        <pt x="22" y="827" on="1"/>
        <pt x="490" y="827" on="1"/>
        <pt x="501" y="827" on="0"/>
        <pt x="517" y="811" on="0"/>
        <pt x="517" y="800" on="1"/>
        <pt x="517" y="0" on="1"/>
        <pt x="517" y="-11" on="0"/>
        <pt x="501" y="-27" on="0"/>
        <pt x="490" y="-27" on="1"/>
        <pt x="22" y="-27" on="1"/>
        <pt x="11" y="-27" on="0"/>
        <pt x="-5" y="-11" on="0"/>
        <pt x="-5" y="0" on="1"/>
      </contour>
      <contour>
        <pt x="463" y="773" on="1"/>
        <pt x="49" y="773" on="1"/>
        <pt x="49" y="27" on="1"/>
        <pt x="463" y="27" on="1"/>
      </contour>
      <contour>
        <pt x="468" y="775" on="1"/>
        <pt x="468" y="25" on="1"/>
        <pt x="468" y="22" on="0"/>
        <pt x="465" y="22" on="1"/>
        <pt x="47" y="22" on="1"/>
        <pt x="44" y="22" on="0"/>
        <pt x="44" y="25" on="1"/>
        <pt x="44" y="775" on="1"/>
        <pt x="44" y="778" on="0"/>
        <pt x="47" y="778" on="1"/>
        <pt x="465" y="778" on="1"/>
        <pt x="468" y="778" on="0"/>
      </contour>
      <contour>
        <pt x="356" y="508" on="1"/>
        <pt x="356" y="504" on="0"/>
        <pt x="351" y="467" on="0"/>
        <pt x="336" y="422" on="0"/>
        <pt x="326" y="422" on="1"/>
        <pt x="246" y="422" on="1"/>
        <pt x="237" y="422" on="0"/>
        <pt x="224" y="409" on="0"/>
        <pt x="224" y="400" on="1"/>
        <pt x="224" y="212" on="1"/>
        <pt x="224" y="203" on="0"/>
        <pt x="237" y="190" on="0"/>
        <pt x="255" y="190" on="0"/>
        <pt x="268" y="203" on="0"/>
        <pt x="268" y="212" on="1"/>
        <pt x="268" y="375" on="1"/>
        <pt x="268" y="378" on="0"/>
        <pt x="271" y="378" on="1"/>
        <pt x="340" y="378" on="1"/>
        <pt x="368" y="378" on="0"/>
        <pt x="401" y="479" on="0"/>
        <pt x="401" y="508" on="1"/>
        <pt x="401" y="570" on="0"/>
        <pt x="317" y="660" on="0"/>
        <pt x="258" y="660" on="1"/>
        <pt x="229" y="660" on="0"/>
        <pt x="150" y="629" on="0"/>
        <pt x="150" y="604" on="1"/>
        <pt x="150" y="570" on="1"/>
        <pt x="150" y="561" on="0"/>
        <pt x="163" y="548" on="0"/>
        <pt x="181" y="548" on="0"/>
        <pt x="194" y="561" on="0"/>
        <pt x="194" y="570" on="1"/>
        <pt x="194" y="591" on="1"/>
        <pt x="194" y="601" on="0"/>
        <pt x="246" y="616" on="0"/>
        <pt x="258" y="616" on="1"/>
        <pt x="297" y="616" on="0"/>
        <pt x="356" y="550" on="0"/>
      </contour>
      <contour>
        <pt x="259" y="174" on="0"/>
        <pt x="241" y="174" on="0"/>
        <pt x="228" y="161" on="0"/>
        <pt x="228" y="152" on="1"/>
        <pt x="228" y="108" on="1"/>
        <pt x="228" y="99" on="0"/>
        <pt x="241" y="86" on="0"/>
        <pt x="259" y="86" on="0"/>
        <pt x="272" y="99" on="0"/>
        <pt x="272" y="108" on="1"/>
        <pt x="272" y="152" on="1"/>
        <pt x="272" y="161" on="0"/>
      </contour>
      <contour>
        <pt x="261" y="81" on="0"/>
        <pt x="239" y="81" on="0"/>
        <pt x="223" y="97" on="0"/>
        <pt x="223" y="108" on="1"/>
        <pt x="223" y="152" on="1"/>
        <pt x="223" y="163" on="0"/>
        <pt x="239" y="179" on="0"/>
        <pt x="261" y="179" on="0"/>
        <pt x="277" y="163" on="0"/>
        <pt x="277" y="152" on="1"/>
        <pt x="277" y="108" on="1"/>
        <pt x="277" y="97" on="0"/>
      </contour>
      <contour>
        <pt x="258" y="611" on="1"/>
        <pt x="230" y="611" on="0"/>
        <pt x="199" y="590" on="1"/>
        <pt x="199" y="570" on="1"/>
        <pt x="199" y="559" on="0"/>
        <pt x="183" y="543" on="0"/>
        <pt x="161" y="543" on="0"/>
        <pt x="145" y="559" on="0"/>
        <pt x="145" y="570" on="1"/>
        <pt x="145" y="604" on="1"/>
        <pt x="145" y="631" on="0"/>
        <pt x="226" y="665" on="0"/>
        <pt x="258" y="665" on="1"/>
        <pt x="319" y="665" on="0"/>
        <pt x="406" y="573" on="0"/>
        <pt x="406" y="508" on="1"/>
        <pt x="406" y="477" on="0"/>
        <pt x="370" y="373" on="0"/>
        <pt x="340" y="373" on="1"/>
        <pt x="273" y="373" on="1"/>
        <pt x="273" y="212" on="1"/>
        <pt x="273" y="201" on="0"/>
        <pt x="257" y="185" on="0"/>
        <pt x="235" y="185" on="0"/>
        <pt x="219" y="201" on="0"/>
        <pt x="219" y="212" on="1"/>
        <pt x="219" y="400" on="1"/>
        <pt x="219" y="411" on="0"/>
        <pt x="235" y="427" on="0"/>
        <pt x="246" y="427" on="1"/>
        <pt x="325" y="427" on="1"/>
        <pt x="351" y="471" on="0"/>
        <pt x="351" y="508" on="1"/>
        <pt x="351" y="531" on="0"/>
        <pt x="336" y="566" on="0"/>
        <pt x="302" y="590" on="0"/>
        <pt x="280" y="602" on="0"/>
      </contour>
    </TTGlyph>
    <TTGlyph name="A" xMin="50" yMin="0" xMax="702" yMax="769">
      <contour>
        <pt x="550" y="0" on="1"/>
        <pt x="461" y="228" on="1"/>
        <pt x="461" y="227" on="1"/>
        <pt x="261" y="227" on="1"/>
        <pt x="202" y="0" on="1"/>
        <pt x="50" y="0" on="1"/>
        <pt x="250" y="769" on="1"/>
        <pt x="402" y="769" on="1"/>
        <pt x="702" y="0" on="1"/>
      </contour>
      <contour>
        <pt x="407" y="367" on="1"/>
        <pt x="341" y="535" on="1"/>
        <pt x="297" y="367" on="1"/>
      </contour>
    </TTGlyph>
    <TTGlyph name="A.0" xMin="85" yMin="0" xMax="737" yMax="769">
      <contour>
        <pt x="585" y="0" on="1"/>
        <pt x="737" y="0" on="1"/>
        <pt x="437" y="769" on="1"/>
        <pt x="285" y="769" on="1"/>
        <pt x="85" y="0" on="1"/>
        <pt x="237" y="0" on="1"/>
        <pt x="296" y="227" on="1"/>
        <pt x="496" y="227" on="1"/>
        <pt x="496" y="228" on="1"/>
      </contour>
      <contour>
        <pt x="442" y="367" on="1"/>
        <pt x="332" y="367" on="1"/>
        <pt x="376" y="535" on="1"/>
      </contour>
    </TTGlyph>
    <TTGlyph name="A.1" xMin="6" yMin="0" xMax="658" yMax="154">
      <contour>
        <pt x="506" y="0" on="1"/>
        <pt x="658" y="0" on="1"/>
        <pt x="502" y="154" on="1"/>
        <pt x="350" y="154" on="1"/>
        <pt x="6" y="0" on="1"/>
        <pt x="158" y="0" on="1"/>
        <pt x="260" y="45" on="1"/>
        <pt x="460" y="45" on="1"/>
        <pt x="460" y="46" on="1"/>
      </contour>
      <contour>
        <pt x="432" y="73" on="1"/>
        <pt x="322" y="73" on="1"/>
        <pt x="397" y="107" on="1"/>
      </contour>
    </TTGlyph>
    <TTGlyph name="A.2" xMin="48" yMin="-8" xMax="714" yMax="776">
      <contour>
        <pt x="207" y="-8" on="1"/>
        <pt x="212" y="-8" on="0"/>
        <pt x="214" y="-2" on="1"/>
        <pt x="272" y="220" on="1"/>
        <pt x="461" y="220" on="1"/>
        <pt x="548" y="-3" on="1"/>
        <pt x="550" y="-8" on="0"/>
        <pt x="555" y="-8" on="1"/>
        <pt x="707" y="-8" on="1"/>
        <pt x="714" y="-8" on="0"/>
        <pt x="714" y="0" on="1"/>
        <pt x="714" y="3" on="0"/>
        <pt x="714" y="3" on="1"/>
        <pt x="414" y="772" on="1"/>
        <pt x="413" y="776" on="0"/>
        <pt x="407" y="776" on="1"/>
        <pt x="255" y="776" on="1"/>
        <pt x="250" y="776" on="0"/>
        <pt x="248" y="771" on="1"/>
        <pt x="48" y="2" on="1"/>
        <pt x="48" y="0" on="0"/>
        <pt x="48" y="0" on="1"/>
        <pt x="48" y="-8" on="0"/>
        <pt x="55" y="-8" on="1"/>
      </contour>
      <contour>
        <pt x="466" y="236" on="1"/>
        <pt x="464" y="236" on="0"/>
        <pt x="462" y="234" on="1"/>
        <pt x="266" y="234" on="1"/>
        <pt x="261" y="234" on="0"/>
        <pt x="259" y="229" on="1"/>
        <pt x="201" y="8" on="1"/>
        <pt x="65" y="8" on="1"/>
        <pt x="261" y="762" on="1"/>
        <pt x="402" y="762" on="1"/>
        <pt x="696" y="8" on="1"/>
        <pt x="560" y="8" on="1"/>
        <pt x="473" y="231" on="1"/>
        <pt x="471" y="236" on="0"/>
      </contour>
      <contour>
        <pt x="412" y="360" on="1"/>
        <pt x="420" y="360" on="0"/>
        <pt x="420" y="367" on="1"/>
        <pt x="420" y="368" on="0"/>
        <pt x="420" y="369" on="1"/>
        <pt x="419" y="370" on="1"/>
        <pt x="353" y="538" on="1"/>
        <pt x="352" y="542" on="0"/>
        <pt x="346" y="542" on="1"/>
        <pt x="341" y="542" on="0"/>
        <pt x="339" y="537" on="1"/>
        <pt x="295" y="369" on="1"/>
        <pt x="295" y="368" on="0"/>
        <pt x="295" y="368" on="1"/>
        <pt x="294" y="368" on="0"/>
        <pt x="294" y="367" on="1"/>
        <pt x="294" y="360" on="0"/>
        <pt x="302" y="360" on="1"/>
      </contour>
      <contour>
        <pt x="312" y="374" on="1"/>
        <pt x="347" y="511" on="1"/>
        <pt x="401" y="374" on="1"/>
      </contour>
    </TTGlyph>
    <TTGlyph name="A.3" xMin="50" yMin="0" xMax="702" yMax="769">
      <component glyphName="A.0" x="-35" y="0" flags="0x4"/>
    </TTGlyph>
    <TTGlyph name="B" xMin="50" yMin="3" xMax="484" yMax="780">
      <contour>
        <pt x="202" y="780" on="1"/>
        <pt x="208" y="780" on="0"/>
        <pt x="220" y="780" on="1"/>
        <pt x="327" y="780" on="0"/>
        <pt x="478" y="629" on="0"/>
        <pt x="478" y="522" on="1"/>
        <pt x="478" y="499" on="0"/>
        <pt x="450" y="455" on="0"/>
        <pt x="401" y="403" on="0"/>
        <pt x="395" y="396" on="1"/>
        <pt x="397" y="394" on="0"/>
        <pt x="458" y="330" on="0"/>
        <pt x="484" y="285" on="0"/>
        <pt x="484" y="260" on="1"/>
        <pt x="484" y="153" on="0"/>
        <pt x="333" y="3" on="0"/>
        <pt x="226" y="3" on="1"/>
        <pt x="210" y="3" on="0"/>
        <pt x="202" y="4" on="1"/>
        <pt x="50" y="4" on="1"/>
        <pt x="50" y="780" on="1"/>
      </contour>
      <contour>
        <pt x="202" y="136" on="1"/>
        <pt x="214" y="133" on="0"/>
        <pt x="226" y="133" on="1"/>
        <pt x="271" y="133" on="0"/>
        <pt x="333" y="195" on="0"/>
        <pt x="333" y="239" on="1"/>
        <pt x="333" y="284" on="0"/>
        <pt x="271" y="346" on="0"/>
        <pt x="226" y="346" on="1"/>
        <pt x="214" y="346" on="0"/>
        <pt x="202" y="343" on="1"/>
      </contour>
      <contour>
        <pt x="202" y="454" on="1"/>
        <pt x="214" y="451" on="0"/>
        <pt x="226" y="451" on="1"/>
        <pt x="271" y="451" on="0"/>
        <pt x="333" y="513" on="0"/>
        <pt x="333" y="557" on="1"/>
        <pt x="333" y="602" on="0"/>
        <pt x="271" y="664" on="0"/>
        <pt x="226" y="664" on="1"/>
        <pt x="214" y="664" on="0"/>
        <pt x="202" y="661" on="1"/>
      </contour>
    </TTGlyph>
    <TTGlyph name="B.0" xMin="85" yMin="3" xMax="519" yMax="780">
      <contour>
        <pt x="237" y="780" on="1"/>
        <pt x="85" y="780" on="1"/>
        <pt x="85" y="4" on="1"/>
        <pt x="237" y="4" on="1"/>
        <pt x="245" y="3" on="0"/>
        <pt x="261" y="3" on="1"/>
        <pt x="368" y="3" on="0"/>
        <pt x="444" y="78" on="1"/>
        <pt x="519" y="153" on="0"/>
        <pt x="519" y="260" on="1"/>
        <pt x="519" y="285" on="0"/>
        <pt x="506" y="308" on="1"/>
        <pt x="493" y="330" on="0"/>
        <pt x="463" y="362" on="1"/>
        <pt x="432" y="394" on="0"/>
        <pt x="430" y="396" on="1"/>
        <pt x="436" y="403" on="0"/>
        <pt x="461" y="429" on="1"/>
        <pt x="485" y="455" on="0"/>
        <pt x="499" y="477" on="1"/>
        <pt x="513" y="499" on="0"/>
        <pt x="513" y="522" on="1"/>
        <pt x="513" y="629" on="0"/>
        <pt x="438" y="705" on="1"/>
        <pt x="362" y="780" on="0"/>
        <pt x="255" y="780" on="1"/>
        <pt x="243" y="780" on="0"/>
      </contour>
      <contour>
        <pt x="237" y="136" on="1"/>
        <pt x="237" y="343" on="1"/>
        <pt x="249" y="346" on="0"/>
        <pt x="261" y="346" on="1"/>
        <pt x="306" y="346" on="0"/>
        <pt x="337" y="315" on="1"/>
        <pt x="368" y="284" on="0"/>
        <pt x="368" y="239" on="1"/>
        <pt x="368" y="195" on="0"/>
        <pt x="337" y="164" on="1"/>
        <pt x="306" y="133" on="0"/>
        <pt x="261" y="133" on="1"/>
        <pt x="249" y="133" on="0"/>
      </contour>
      <contour>
        <pt x="237" y="454" on="1"/>
        <pt x="237" y="661" on="1"/>
        <pt x="249" y="664" on="0"/>
        <pt x="261" y="664" on="1"/>
        <pt x="306" y="664" on="0"/>
        <pt x="337" y="633" on="1"/>
        <pt x="368" y="602" on="0"/>
        <pt x="368" y="557" on="1"/>
        <pt x="368" y="513" on="0"/>
        <pt x="337" y="482" on="1"/>
        <pt x="306" y="451" on="0"/>
        <pt x="261" y="451" on="1"/>
        <pt x="249" y="451" on="0"/>
      </contour>
    </TTGlyph>
    <TTGlyph name="B.1" xMin="5" yMin="1" xMax="551" yMax="156">
      <contour>
        <pt x="304" y="156" on="1"/>
        <pt x="152" y="156" on="1"/>
        <pt x="5" y="1" on="1"/>
        <pt x="157" y="1" on="1"/>
        <pt x="165" y="1" on="0"/>
        <pt x="181" y="1" on="1"/>
        <pt x="288" y="1" on="0"/>
        <pt x="378" y="16" on="1"/>
        <pt x="468" y="31" on="0"/>
        <pt x="488" y="52" on="1"/>
        <pt x="493" y="57" on="0"/>
        <pt x="484" y="62" on="1"/>
        <pt x="475" y="66" on="0"/>
        <pt x="451" y="73" on="1"/>
        <pt x="426" y="79" on="0"/>
        <pt x="424" y="79" on="1"/>
        <pt x="431" y="81" on="0"/>
        <pt x="461" y="86" on="1"/>
        <pt x="490" y="91" on="0"/>
        <pt x="508" y="95" on="1"/>
        <pt x="526" y="99" on="0"/>
        <pt x="531" y="104" on="1"/>
        <pt x="551" y="126" on="0"/>
        <pt x="490" y="141" on="1"/>
        <pt x="429" y="156" on="0"/>
        <pt x="322" y="156" on="1"/>
        <pt x="310" y="156" on="0"/>
      </contour>
      <contour>
        <pt x="182" y="27" on="1"/>
        <pt x="222" y="69" on="1"/>
        <pt x="234" y="69" on="0"/>
        <pt x="246" y="69" on="1"/>
        <pt x="291" y="69" on="0"/>
        <pt x="316" y="63" on="1"/>
        <pt x="341" y="57" on="0"/>
        <pt x="333" y="48" on="1"/>
        <pt x="324" y="39" on="0"/>
        <pt x="288" y="33" on="1"/>
        <pt x="251" y="27" on="0"/>
        <pt x="206" y="27" on="1"/>
        <pt x="194" y="26" on="0"/>
      </contour>
      <contour>
        <pt x="242" y="91" on="1"/>
        <pt x="281" y="132" on="1"/>
        <pt x="293" y="133" on="0"/>
        <pt x="305" y="133" on="1"/>
        <pt x="350" y="133" on="0"/>
        <pt x="376" y="127" on="1"/>
        <pt x="401" y="120" on="0"/>
        <pt x="393" y="111" on="1"/>
        <pt x="384" y="103" on="0"/>
        <pt x="348" y="97" on="1"/>
        <pt x="311" y="90" on="0"/>
        <pt x="266" y="90" on="1"/>
        <pt x="254" y="90" on="0"/>
      </contour>
    </TTGlyph>
    <TTGlyph name="B.2" xMin="48" yMin="-4" xMax="496" yMax="788">
      <contour>
        <pt x="225" y="788" on="1"/>
        <pt x="55" y="788" on="1"/>
        <pt x="48" y="788" on="0"/>
        <pt x="48" y="780" on="1"/>
        <pt x="48" y="4" on="1"/>
        <pt x="48" y="-4" on="0"/>
        <pt x="55" y="-4" on="1"/>
        <pt x="207" y="-4" on="1"/>
        <pt x="231" y="-4" on="1"/>
        <pt x="340" y="-4" on="0"/>
        <pt x="419" y="73" on="1"/>
        <pt x="496" y="149" on="0"/>
        <pt x="496" y="260" on="1"/>
        <pt x="496" y="286" on="0"/>
        <pt x="482" y="311" on="1"/>
        <pt x="468" y="335" on="0"/>
        <pt x="438" y="367" on="1"/>
        <pt x="410" y="396" on="1"/>
        <pt x="412" y="399" on="0"/>
        <pt x="416" y="403" on="1"/>
        <pt x="420" y="407" on="0"/>
        <pt x="426" y="413" on="1"/>
        <pt x="431" y="419" on="0"/>
        <pt x="436" y="424" on="1"/>
        <pt x="458" y="447" on="0"/>
        <pt x="475" y="473" on="1"/>
        <pt x="490" y="497" on="0"/>
        <pt x="490" y="522" on="1"/>
        <pt x="490" y="633" on="0"/>
        <pt x="413" y="710" on="1"/>
        <pt x="335" y="788" on="0"/>
      </contour>
      <contour>
        <pt x="62" y="12" on="1"/>
        <pt x="62" y="772" on="1"/>
        <pt x="225" y="772" on="1"/>
        <pt x="329" y="772" on="0"/>
        <pt x="402" y="699" on="1"/>
        <pt x="476" y="625" on="0"/>
        <pt x="476" y="522" on="1"/>
        <pt x="476" y="501" on="0"/>
        <pt x="463" y="481" on="1"/>
        <pt x="450" y="460" on="0"/>
        <pt x="425" y="434" on="1"/>
        <pt x="394" y="401" on="1"/>
        <pt x="392" y="399" on="0"/>
        <pt x="392" y="396" on="1"/>
        <pt x="392" y="394" on="0"/>
        <pt x="395" y="391" on="1"/>
        <pt x="427" y="357" on="1"/>
        <pt x="459" y="324" on="0"/>
        <pt x="470" y="304" on="1"/>
        <pt x="482" y="283" on="0"/>
        <pt x="482" y="260" on="1"/>
        <pt x="482" y="157" on="0"/>
        <pt x="408" y="83" on="1"/>
        <pt x="335" y="10" on="0"/>
        <pt x="231" y="10" on="1"/>
        <pt x="213" y="10" on="0"/>
        <pt x="208" y="11" on="1"/>
        <pt x="207" y="12" on="1"/>
      </contour>
      <contour>
        <pt x="200" y="136" on="1"/>
        <pt x="200" y="131" on="0"/>
        <pt x="205" y="129" on="1"/>
        <pt x="218" y="126" on="0"/>
        <pt x="231" y="126" on="1"/>
        <pt x="279" y="126" on="0"/>
        <pt x="312" y="159" on="1"/>
        <pt x="346" y="193" on="0"/>
        <pt x="346" y="239" on="1"/>
        <pt x="346" y="286" on="0"/>
        <pt x="312" y="320" on="1"/>
        <pt x="278" y="354" on="0"/>
        <pt x="231" y="354" on="1"/>
        <pt x="223" y="354" on="0"/>
        <pt x="205" y="350" on="1"/>
        <pt x="200" y="348" on="0"/>
        <pt x="200" y="343" on="1"/>
      </contour>
      <contour>
        <pt x="231" y="140" on="1"/>
        <pt x="226" y="140" on="0"/>
        <pt x="214" y="142" on="1"/>
        <pt x="214" y="337" on="1"/>
        <pt x="220" y="338" on="0"/>
        <pt x="231" y="338" on="1"/>
        <pt x="274" y="338" on="0"/>
        <pt x="302" y="310" on="1"/>
        <pt x="330" y="282" on="0"/>
        <pt x="330" y="239" on="1"/>
        <pt x="330" y="197" on="0"/>
        <pt x="302" y="169" on="1"/>
        <pt x="273" y="140" on="0"/>
      </contour>
      <contour>
        <pt x="200" y="454" on="1"/>
        <pt x="200" y="449" on="0"/>
        <pt x="205" y="447" on="1"/>
        <pt x="218" y="444" on="0"/>
        <pt x="231" y="444" on="1"/>
        <pt x="279" y="444" on="0"/>
        <pt x="312" y="477" on="1"/>
        <pt x="346" y="511" on="0"/>
        <pt x="346" y="557" on="1"/>
        <pt x="346" y="604" on="0"/>
        <pt x="312" y="638" on="1"/>
        <pt x="278" y="672" on="0"/>
        <pt x="231" y="672" on="1"/>
        <pt x="223" y="672" on="0"/>
        <pt x="205" y="668" on="1"/>
        <pt x="200" y="666" on="0"/>
        <pt x="200" y="661" on="1"/>
      </contour>
      <contour>
        <pt x="330" y="557" on="1"/>
        <pt x="330" y="515" on="0"/>
        <pt x="302" y="487" on="1"/>
        <pt x="273" y="458" on="0"/>
        <pt x="231" y="458" on="1"/>
        <pt x="226" y="458" on="0"/>
        <pt x="214" y="460" on="1"/>
        <pt x="214" y="655" on="1"/>
        <pt x="220" y="656" on="0"/>
        <pt x="231" y="656" on="1"/>
        <pt x="274" y="656" on="0"/>
        <pt x="302" y="628" on="1"/>
        <pt x="330" y="600" on="0"/>
      </contour>
    </TTGlyph>
    <TTGlyph name="B.3" xMin="50" yMin="3" xMax="484" yMax="780">
      <component glyphName="B.0" x="-35" y="0" flags="0x4"/>
    </TTGlyph>
    <TTGlyph name="C" xMin="50" yMin="-14" xMax="505" yMax="773">
      <contour>
        <pt x="432" y="612" on="1"/>
        <pt x="337" y="612" on="0"/>
        <pt x="203" y="475" on="0"/>
        <pt x="203" y="378" on="1"/>
        <pt x="203" y="280" on="0"/>
        <pt x="337" y="143" on="0"/>
        <pt x="432" y="143" on="1"/>
        <pt x="470" y="143" on="0"/>
        <pt x="505" y="155" on="1"/>
        <pt x="505" y="-7" on="1"/>
        <pt x="469" y="-14" on="0"/>
        <pt x="432" y="-14" on="1"/>
        <pt x="274" y="-14" on="0"/>
        <pt x="50" y="217" on="0"/>
        <pt x="50" y="543" on="0"/>
        <pt x="274" y="773" on="0"/>
        <pt x="432" y="773" on="1"/>
        <pt x="469" y="773" on="0"/>
        <pt x="505" y="766" on="1"/>
        <pt x="505" y="600" on="1"/>
        <pt x="470" y="612" on="0"/>
      </contour>
    </TTGlyph>
    <TTGlyph name="C.0" xMin="85" yMin="-14" xMax="540" yMax="773">
      <contour>
        <pt x="467" y="612" on="1"/>
        <pt x="505" y="612" on="0"/>
        <pt x="540" y="600" on="1"/>
        <pt x="540" y="766" on="1"/>
        <pt x="504" y="773" on="0"/>
        <pt x="467" y="773" on="1"/>
        <pt x="309" y="773" on="0"/>
        <pt x="197" y="658" on="1"/>
        <pt x="85" y="543" on="0"/>
        <pt x="85" y="380" on="1"/>
        <pt x="85" y="217" on="0"/>
        <pt x="197" y="102" on="1"/>
        <pt x="309" y="-14" on="0"/>
        <pt x="467" y="-14" on="1"/>
        <pt x="504" y="-14" on="0"/>
        <pt x="540" y="-7" on="1"/>
        <pt x="540" y="155" on="1"/>
        <pt x="505" y="143" on="0"/>
        <pt x="467" y="143" on="1"/>
        <pt x="372" y="143" on="0"/>
        <pt x="305" y="212" on="1"/>
        <pt x="238" y="280" on="0"/>
        <pt x="238" y="378" on="1"/>
        <pt x="238" y="475" on="0"/>
        <pt x="305" y="544" on="1"/>
        <pt x="372" y="612" on="0"/>
      </contour>
    </TTGlyph>
    <TTGlyph name="C.1" xMin="47" yMin="-3" xMax="605" yMax="155">
      <contour>
        <pt x="504" y="122" on="1"/>
        <pt x="542" y="122" on="0"/>
        <pt x="574" y="120" on="1"/>
        <pt x="605" y="153" on="1"/>
        <pt x="571" y="155" on="0"/>
        <pt x="534" y="155" on="1"/>
        <pt x="376" y="155" on="0"/>
        <pt x="243" y="132" on="1"/>
        <pt x="109" y="109" on="0"/>
        <pt x="78" y="76" on="1"/>
        <pt x="47" y="43" on="0"/>
        <pt x="137" y="20" on="1"/>
        <pt x="227" y="-3" on="0"/>
        <pt x="385" y="-3" on="1"/>
        <pt x="423" y="-2" on="0"/>
        <pt x="461" y="-1" on="1"/>
        <pt x="490" y="31" on="1"/>
        <pt x="453" y="29" on="0"/>
        <pt x="415" y="29" on="1"/>
        <pt x="320" y="29" on="0"/>
        <pt x="266" y="43" on="1"/>
        <pt x="212" y="56" on="0"/>
        <pt x="231" y="76" on="1"/>
        <pt x="249" y="95" on="0"/>
        <pt x="329" y="109" on="1"/>
        <pt x="409" y="122" on="0"/>
      </contour>
    </TTGlyph>
    <TTGlyph name="C.2" xMin="48" yMin="-22" xMax="518" yMax="780">
      <contour>
        <pt x="437" y="604" on="1"/>
        <pt x="476" y="604" on="0"/>
        <pt x="508" y="593" on="1"/>
        <pt x="509" y="592" on="1"/>
        <pt x="510" y="592" on="1"/>
        <pt x="518" y="592" on="0"/>
        <pt x="518" y="600" on="1"/>
        <pt x="518" y="766" on="1"/>
        <pt x="518" y="771" on="0"/>
        <pt x="511" y="773" on="1"/>
        <pt x="477" y="780" on="0"/>
        <pt x="437" y="780" on="1"/>
        <pt x="276" y="780" on="0"/>
        <pt x="162" y="663" on="1"/>
        <pt x="48" y="546" on="0"/>
        <pt x="48" y="380" on="1"/>
        <pt x="48" y="213" on="0"/>
        <pt x="162" y="96" on="1"/>
        <pt x="277" y="-22" on="0"/>
        <pt x="437" y="-22" on="1"/>
        <pt x="473" y="-22" on="0"/>
        <pt x="511" y="-14" on="1"/>
        <pt x="518" y="-12" on="0"/>
        <pt x="518" y="-7" on="1"/>
        <pt x="518" y="155" on="1"/>
        <pt x="518" y="162" on="0"/>
        <pt x="510" y="162" on="1"/>
        <pt x="508" y="162" on="0"/>
        <pt x="508" y="162" on="1"/>
        <pt x="474" y="150" on="0"/>
        <pt x="437" y="150" on="1"/>
        <pt x="345" y="150" on="0"/>
        <pt x="280" y="217" on="1"/>
        <pt x="216" y="282" on="0"/>
        <pt x="216" y="378" on="1"/>
        <pt x="216" y="473" on="0"/>
        <pt x="280" y="538" on="1"/>
        <pt x="344" y="604" on="0"/>
      </contour>
      <contour>
        <pt x="437" y="136" on="1"/>
        <pt x="470" y="136" on="0"/>
        <pt x="502" y="145" on="1"/>
        <pt x="502" y="-1" on="1"/>
        <pt x="475" y="-6" on="0"/>
        <pt x="437" y="-6" on="1"/>
        <pt x="281" y="-6" on="0"/>
        <pt x="172" y="107" on="1"/>
        <pt x="62" y="222" on="0"/>
        <pt x="62" y="380" on="1"/>
        <pt x="62" y="540" on="0"/>
        <pt x="172" y="653" on="1"/>
        <pt x="282" y="766" on="0"/>
        <pt x="437" y="766" on="1"/>
        <pt x="469" y="766" on="0"/>
        <pt x="502" y="760" on="1"/>
        <pt x="502" y="610" on="1"/>
        <pt x="467" y="620" on="0"/>
        <pt x="437" y="620" on="1"/>
        <pt x="339" y="620" on="0"/>
        <pt x="270" y="549" on="1"/>
        <pt x="200" y="477" on="0"/>
        <pt x="200" y="378" on="1"/>
        <pt x="200" y="278" on="0"/>
        <pt x="270" y="206" on="1"/>
        <pt x="339" y="136" on="0"/>
      </contour>
    </TTGlyph>
    <TTGlyph name="C.3" xMin="50" yMin="-14" xMax="505" yMax="773">
      <component glyphName="C.0" x="-35" y="0" flags="0x4"/>
    </TTGlyph>
    <TTGlyph name="D" xMin="50" yMin="-14" xMax="580" yMax="773">
      <contour>
        <pt x="50" y="768" on="1"/>
        <pt x="65" y="763" on="0"/>
        <pt x="183" y="773" on="0"/>
        <pt x="198" y="773" on="1"/>
        <pt x="356" y="773" on="0"/>
        <pt x="580" y="543" on="0"/>
        <pt x="580" y="380" on="1"/>
        <pt x="580" y="273" on="0"/>
        <pt x="479" y="93" on="0"/>
        <pt x="305" y="-13" on="0"/>
        <pt x="202" y="-14" on="1"/>
        <pt x="50" y="-14" on="1"/>
      </contour>
      <contour>
        <pt x="202" y="143" on="1"/>
        <pt x="296" y="145" on="0"/>
        <pt x="427" y="282" on="0"/>
        <pt x="427" y="378" on="1"/>
        <pt x="427" y="474" on="0"/>
        <pt x="296" y="610" on="0"/>
        <pt x="202" y="612" on="1"/>
      </contour>
    </TTGlyph>
    <TTGlyph name="D.0" xMin="85" yMin="-14" xMax="615" yMax="773">
      <contour>
        <pt x="85" y="768" on="1"/>
        <pt x="85" y="-14" on="1"/>
        <pt x="237" y="-14" on="1"/>
        <pt x="340" y="-13" on="0"/>
        <pt x="427" y="40" on="1"/>
        <pt x="514" y="93" on="0"/>
        <pt x="565" y="183" on="1"/>
        <pt x="615" y="273" on="0"/>
        <pt x="615" y="380" on="1"/>
        <pt x="615" y="543" on="0"/>
        <pt x="503" y="658" on="1"/>
        <pt x="391" y="773" on="0"/>
        <pt x="233" y="773" on="1"/>
        <pt x="218" y="773" on="0"/>
        <pt x="159" y="768" on="1"/>
        <pt x="100" y="763" on="0"/>
      </contour>
      <contour>
        <pt x="237" y="143" on="1"/>
        <pt x="237" y="612" on="1"/>
        <pt x="331" y="610" on="0"/>
        <pt x="397" y="542" on="1"/>
        <pt x="462" y="474" on="0"/>
        <pt x="462" y="378" on="1"/>
        <pt x="462" y="282" on="0"/>
        <pt x="397" y="214" on="1"/>
        <pt x="331" y="145" on="0"/>
      </contour>
    </TTGlyph>
    <TTGlyph name="D.1" xMin="3" yMin="-3" xMax="639" yMax="155">
      <contour>
        <pt x="151" y="154" on="1"/>
        <pt x="3" y="-3" on="1"/>
        <pt x="155" y="-3" on="1"/>
        <pt x="258" y="-3" on="0"/>
        <pt x="356" y="8" on="1"/>
        <pt x="453" y="19" on="0"/>
        <pt x="521" y="37" on="1"/>
        <pt x="588" y="55" on="0"/>
        <pt x="608" y="76" on="1"/>
        <pt x="639" y="109" on="0"/>
        <pt x="549" y="132" on="1"/>
        <pt x="458" y="155" on="0"/>
        <pt x="300" y="155" on="1"/>
        <pt x="285" y="155" on="0"/>
        <pt x="225" y="154" on="1"/>
        <pt x="165" y="153" on="0"/>
      </contour>
      <contour>
        <pt x="185" y="29" on="1"/>
        <pt x="274" y="122" on="1"/>
        <pt x="367" y="122" on="0"/>
        <pt x="420" y="109" on="1"/>
        <pt x="473" y="95" on="0"/>
        <pt x="455" y="76" on="1"/>
        <pt x="435" y="56" on="0"/>
        <pt x="357" y="43" on="1"/>
        <pt x="279" y="29" on="0"/>
      </contour>
    </TTGlyph>
    <TTGlyph name="D.2" xMin="48" yMin="-22" xMax="592" yMax="780">
      <contour>
        <pt x="81" y="773" on="1"/>
        <pt x="63" y="773" on="0"/>
        <pt x="57" y="775" on="1"/>
        <pt x="56" y="775" on="0"/>
        <pt x="56" y="776" on="1"/>
        <pt x="56" y="776" on="0"/>
        <pt x="55" y="776" on="1"/>
        <pt x="48" y="776" on="0"/>
        <pt x="48" y="768" on="1"/>
        <pt x="48" y="-14" on="1"/>
        <pt x="48" y="-22" on="0"/>
        <pt x="55" y="-22" on="1"/>
        <pt x="207" y="-22" on="1"/>
        <pt x="312" y="-21" on="0"/>
        <pt x="401" y="34" on="1"/>
        <pt x="491" y="89" on="0"/>
        <pt x="541" y="179" on="1"/>
        <pt x="592" y="270" on="0"/>
        <pt x="592" y="380" on="1"/>
        <pt x="592" y="546" on="0"/>
        <pt x="478" y="663" on="1"/>
        <pt x="364" y="780" on="0"/>
        <pt x="203" y="780" on="1"/>
        <pt x="193" y="780" on="0"/>
        <pt x="128" y="775" on="1"/>
        <pt x="108" y="773" on="0"/>
      </contour>
      <contour>
        <pt x="62" y="-6" on="1"/>
        <pt x="62" y="759" on="1"/>
        <pt x="67" y="758" on="0"/>
        <pt x="81" y="758" on="1"/>
        <pt x="100" y="758" on="0"/>
        <pt x="130" y="761" on="1"/>
        <pt x="195" y="766" on="0"/>
        <pt x="203" y="766" on="1"/>
        <pt x="358" y="766" on="0"/>
        <pt x="468" y="653" on="1"/>
        <pt x="578" y="540" on="0"/>
        <pt x="578" y="380" on="1"/>
        <pt x="578" y="276" on="0"/>
        <pt x="528" y="187" on="1"/>
        <pt x="478" y="98" on="0"/>
        <pt x="393" y="46" on="1"/>
        <pt x="311" y="-4" on="0"/>
        <pt x="207" y="-6" on="1"/>
      </contour>
      <contour>
        <pt x="200" y="143" on="1"/>
        <pt x="200" y="136" on="0"/>
        <pt x="207" y="136" on="1"/>
        <pt x="304" y="138" on="0"/>
        <pt x="372" y="208" on="1"/>
        <pt x="440" y="279" on="0"/>
        <pt x="440" y="378" on="1"/>
        <pt x="440" y="476" on="0"/>
        <pt x="372" y="547" on="1"/>
        <pt x="304" y="618" on="0"/>
        <pt x="207" y="619" on="1"/>
        <pt x="207" y="620" on="1"/>
        <pt x="200" y="620" on="0"/>
        <pt x="200" y="612" on="1"/>
      </contour>
      <contour>
        <pt x="361" y="537" on="1"/>
        <pt x="424" y="471" on="0"/>
        <pt x="424" y="378" on="1"/>
        <pt x="424" y="285" on="0"/>
        <pt x="361" y="219" on="1"/>
        <pt x="299" y="155" on="0"/>
        <pt x="214" y="151" on="1"/>
        <pt x="214" y="604" on="1"/>
        <pt x="300" y="599" on="0"/>
      </contour>
    </TTGlyph>
    <TTGlyph name="D.3" xMin="50" yMin="-14" xMax="580" yMax="773">
      <component glyphName="D.0" x="-35" y="0" flags="0x4"/>
    </TTGlyph>
    <TTGlyph name="E" xMin="50" yMin="-3" xMax="618" yMax="778">
      <contour>
        <pt x="509" y="485" on="1"/>
        <pt x="510" y="333" on="1"/>
        <pt x="202" y="333" on="1"/>
        <pt x="202" y="149" on="1"/>
        <pt x="617" y="149" on="1"/>
        <pt x="618" y="-3" on="1"/>
        <pt x="51" y="-3" on="1"/>
        <pt x="51" y="-2" on="1"/>
        <pt x="50" y="-2" on="1"/>
        <pt x="50" y="774" on="1"/>
        <pt x="50" y="778" on="1"/>
        <pt x="617" y="778" on="1"/>
        <pt x="618" y="626" on="1"/>
        <pt x="202" y="626" on="1"/>
        <pt x="202" y="485" on="1"/>
      </contour>
    </TTGlyph>
    <TTGlyph name="E.0" xMin="85" yMin="-3" xMax="653" yMax="778">
      <contour>
        <pt x="544" y="485" on="1"/>
        <pt x="237" y="485" on="1"/>
        <pt x="237" y="626" on="1"/>
        <pt x="653" y="626" on="1"/>
        <pt x="652" y="778" on="1"/>
        <pt x="85" y="778" on="1"/>
        <pt x="85" y="774" on="1"/>
        <pt x="85" y="-2" on="1"/>
        <pt x="86" y="-2" on="1"/>
        <pt x="86" y="-3" on="1"/>
        <pt x="653" y="-3" on="1"/>
        <pt x="652" y="149" on="1"/>
        <pt x="237" y="149" on="1"/>
        <pt x="237" y="333" on="1"/>
        <pt x="545" y="333" on="1"/>
      </contour>
    </TTGlyph>
    <TTGlyph name="E.1" xMin="5" yMin="-1" xMax="719" yMax="156">
      <contour>
        <pt x="555" y="97" on="1"/>
        <pt x="248" y="97" on="1"/>
        <pt x="275" y="125" on="1"/>
        <pt x="691" y="125" on="1"/>
        <pt x="719" y="156" on="1"/>
        <pt x="152" y="156" on="1"/>
        <pt x="151" y="155" on="1"/>
        <pt x="5" y="0" on="1"/>
        <pt x="6" y="0" on="1"/>
        <pt x="6" y="-1" on="1"/>
        <pt x="573" y="-1" on="1"/>
        <pt x="601" y="30" on="1"/>
        <pt x="186" y="30" on="1"/>
        <pt x="220" y="67" on="1"/>
        <pt x="528" y="67" on="1"/>
      </contour>
    </TTGlyph>
    <TTGlyph name="E.2" xMin="48" yMin="-10" xMax="630" yMax="786">
      <contour>
        <pt x="56" y="-10" on="1"/>
        <pt x="623" y="-10" on="1"/>
        <pt x="630" y="-10" on="0"/>
        <pt x="630" y="-3" on="1"/>
        <pt x="629" y="149" on="1"/>
        <pt x="629" y="156" on="0"/>
        <pt x="622" y="156" on="1"/>
        <pt x="214" y="156" on="1"/>
        <pt x="214" y="326" on="1"/>
        <pt x="515" y="326" on="1"/>
        <pt x="522" y="326" on="0"/>
        <pt x="522" y="333" on="1"/>
        <pt x="521" y="485" on="1"/>
        <pt x="521" y="492" on="0"/>
        <pt x="514" y="492" on="1"/>
        <pt x="214" y="492" on="1"/>
        <pt x="214" y="618" on="1"/>
        <pt x="623" y="618" on="1"/>
        <pt x="630" y="618" on="0"/>
        <pt x="630" y="626" on="1"/>
        <pt x="629" y="778" on="1"/>
        <pt x="629" y="786" on="0"/>
        <pt x="622" y="786" on="1"/>
        <pt x="55" y="786" on="1"/>
        <pt x="48" y="786" on="0"/>
        <pt x="48" y="778" on="1"/>
        <pt x="48" y="-2" on="1"/>
        <pt x="48" y="-10" on="0"/>
      </contour>
      <contour>
        <pt x="207" y="478" on="1"/>
        <pt x="507" y="478" on="1"/>
        <pt x="507" y="340" on="1"/>
        <pt x="207" y="340" on="1"/>
        <pt x="200" y="340" on="0"/>
        <pt x="200" y="333" on="1"/>
        <pt x="200" y="149" on="1"/>
        <pt x="200" y="142" on="0"/>
        <pt x="207" y="142" on="1"/>
        <pt x="615" y="142" on="1"/>
        <pt x="615" y="4" on="1"/>
        <pt x="62" y="4" on="1"/>
        <pt x="62" y="770" on="1"/>
        <pt x="615" y="770" on="1"/>
        <pt x="615" y="634" on="1"/>
        <pt x="207" y="634" on="1"/>
        <pt x="200" y="634" on="0"/>
        <pt x="200" y="626" on="1"/>
        <pt x="200" y="485" on="1"/>
        <pt x="200" y="478" on="0"/>
      </contour>
    </TTGlyph>
    <TTGlyph name="E.3" xMin="50" yMin="-3" xMax="618" yMax="778">
      <component glyphName="E.0" x="-35" y="0" flags="0x4"/>
    </TTGlyph>
    <TTGlyph name="F" xMin="50" yMin="-2" xMax="618" yMax="778">
      <contour>
        <pt x="509" y="485" on="1"/>
        <pt x="510" y="333" on="1"/>
        <pt x="202" y="333" on="1"/>
        <pt x="202" y="-2" on="1"/>
        <pt x="50" y="-2" on="1"/>
        <pt x="50" y="774" on="1"/>
        <pt x="50" y="778" on="1"/>
        <pt x="617" y="778" on="1"/>
        <pt x="618" y="626" on="1"/>
        <pt x="202" y="626" on="1"/>
        <pt x="202" y="485" on="1"/>
      </contour>
    </TTGlyph>
    <TTGlyph name="F.0" xMin="85" yMin="-2" xMax="653" yMax="778">
      <contour>
        <pt x="544" y="485" on="1"/>
        <pt x="237" y="485" on="1"/>
        <pt x="237" y="626" on="1"/>
        <pt x="653" y="626" on="1"/>
        <pt x="652" y="778" on="1"/>
        <pt x="85" y="778" on="1"/>
        <pt x="85" y="774" on="1"/>
        <pt x="85" y="-2" on="1"/>
        <pt x="237" y="-2" on="1"/>
        <pt x="237" y="333" on="1"/>
        <pt x="545" y="333" on="1"/>
      </contour>
    </TTGlyph>
    <TTGlyph name="F.1" xMin="5" yMin="0" xMax="719" yMax="156">
      <contour>
        <pt x="555" y="97" on="1"/>
        <pt x="248" y="97" on="1"/>
        <pt x="275" y="125" on="1"/>
        <pt x="691" y="125" on="1"/>
        <pt x="719" y="156" on="1"/>
        <pt x="152" y="156" on="1"/>
        <pt x="150" y="155" on="1"/>
        <pt x="5" y="0" on="1"/>
        <pt x="157" y="0" on="1"/>
        <pt x="220" y="67" on="1"/>
        <pt x="528" y="67" on="1"/>
      </contour>
    </TTGlyph>
    <TTGlyph name="F.2" xMin="48" yMin="-10" xMax="630" yMax="786">
      <contour>
        <pt x="515" y="326" on="1"/>
        <pt x="522" y="326" on="0"/>
        <pt x="522" y="333" on="1"/>
        <pt x="521" y="485" on="1"/>
        <pt x="521" y="492" on="0"/>
        <pt x="514" y="492" on="1"/>
        <pt x="214" y="492" on="1"/>
        <pt x="214" y="618" on="1"/>
        <pt x="623" y="618" on="1"/>
        <pt x="630" y="618" on="0"/>
        <pt x="630" y="626" on="1"/>
        <pt x="629" y="778" on="1"/>
        <pt x="629" y="786" on="0"/>
        <pt x="622" y="786" on="1"/>
        <pt x="55" y="786" on="1"/>
        <pt x="48" y="786" on="0"/>
        <pt x="48" y="778" on="1"/>
        <pt x="48" y="-2" on="1"/>
        <pt x="48" y="-10" on="0"/>
        <pt x="55" y="-10" on="1"/>
        <pt x="207" y="-10" on="1"/>
        <pt x="214" y="-10" on="0"/>
        <pt x="214" y="-2" on="1"/>
        <pt x="214" y="326" on="1"/>
      </contour>
      <contour>
        <pt x="207" y="478" on="1"/>
        <pt x="507" y="478" on="1"/>
        <pt x="507" y="340" on="1"/>
        <pt x="207" y="340" on="1"/>
        <pt x="200" y="340" on="0"/>
        <pt x="200" y="333" on="1"/>
        <pt x="200" y="6" on="1"/>
        <pt x="62" y="6" on="1"/>
        <pt x="62" y="770" on="1"/>
        <pt x="615" y="770" on="1"/>
        <pt x="615" y="634" on="1"/>
        <pt x="207" y="634" on="1"/>
        <pt x="200" y="634" on="0"/>
        <pt x="200" y="626" on="1"/>
        <pt x="200" y="485" on="1"/>
        <pt x="200" y="478" on="0"/>
      </contour>
    </TTGlyph>
    <TTGlyph name="F.3" xMin="50" yMin="-2" xMax="618" yMax="778">
      <component glyphName="F.0" x="-35" y="0" flags="0x4"/>
    </TTGlyph>
    <TTGlyph name="G" xMin="50" yMin="-14" xMax="601" yMax="773">
      <contour>
        <pt x="432" y="612" on="1"/>
        <pt x="337" y="612" on="0"/>
        <pt x="203" y="475" on="0"/>
        <pt x="203" y="378" on="1"/>
        <pt x="203" y="280" on="0"/>
        <pt x="337" y="143" on="0"/>
        <pt x="432" y="143" on="1"/>
        <pt x="441" y="143" on="0"/>
        <pt x="449" y="144" on="1"/>
        <pt x="449" y="313" on="1"/>
        <pt x="601" y="313" on="1"/>
        <pt x="601" y="-14" on="1"/>
        <pt x="449" y="-14" on="1"/>
        <pt x="441" y="-14" on="0"/>
        <pt x="432" y="-14" on="1"/>
        <pt x="274" y="-14" on="0"/>
        <pt x="50" y="217" on="0"/>
        <pt x="50" y="543" on="0"/>
        <pt x="274" y="773" on="0"/>
        <pt x="432" y="773" on="1"/>
        <pt x="469" y="773" on="0"/>
        <pt x="505" y="766" on="1"/>
        <pt x="505" y="600" on="1"/>
        <pt x="470" y="612" on="0"/>
      </contour>
    </TTGlyph>
    <TTGlyph name="G.0" xMin="85" yMin="-14" xMax="636" yMax="773">
      <contour>
        <pt x="467" y="612" on="1"/>
        <pt x="505" y="612" on="0"/>
        <pt x="540" y="600" on="1"/>
        <pt x="540" y="766" on="1"/>
        <pt x="504" y="773" on="0"/>
        <pt x="467" y="773" on="1"/>
        <pt x="309" y="773" on="0"/>
        <pt x="197" y="658" on="1"/>
        <pt x="85" y="543" on="0"/>
        <pt x="85" y="380" on="1"/>
        <pt x="85" y="217" on="0"/>
        <pt x="197" y="102" on="1"/>
        <pt x="309" y="-14" on="0"/>
        <pt x="467" y="-14" on="1"/>
        <pt x="476" y="-14" on="0"/>
        <pt x="484" y="-14" on="1"/>
        <pt x="636" y="-14" on="1"/>
        <pt x="636" y="313" on="1"/>
        <pt x="484" y="313" on="1"/>
        <pt x="484" y="144" on="1"/>
        <pt x="476" y="143" on="0"/>
        <pt x="467" y="143" on="1"/>
        <pt x="372" y="143" on="0"/>
        <pt x="305" y="212" on="1"/>
        <pt x="238" y="280" on="0"/>
        <pt x="238" y="378" on="1"/>
        <pt x="238" y="475" on="0"/>
        <pt x="305" y="544" on="1"/>
        <pt x="372" y="612" on="0"/>
      </contour>
    </TTGlyph>
    <TTGlyph name="G.1" xMin="47" yMin="-3" xMax="616" yMax="155">
      <contour>
        <pt x="504" y="122" on="1"/>
        <pt x="542" y="122" on="0"/>
        <pt x="574" y="120" on="1"/>
        <pt x="605" y="153" on="1"/>
        <pt x="571" y="155" on="0"/>
        <pt x="534" y="155" on="1"/>
        <pt x="376" y="155" on="0"/>
        <pt x="243" y="132" on="1"/>
        <pt x="109" y="109" on="0"/>
        <pt x="78" y="76" on="1"/>
        <pt x="47" y="43" on="0"/>
        <pt x="137" y="20" on="1"/>
        <pt x="227" y="-3" on="0"/>
        <pt x="385" y="-3" on="1"/>
        <pt x="394" y="-3" on="0"/>
        <pt x="402" y="-3" on="1"/>
        <pt x="554" y="-3" on="1"/>
        <pt x="616" y="63" on="1"/>
        <pt x="464" y="63" on="1"/>
        <pt x="432" y="29" on="1"/>
        <pt x="424" y="29" on="0"/>
        <pt x="415" y="29" on="1"/>
        <pt x="320" y="29" on="0"/>
        <pt x="266" y="43" on="1"/>
        <pt x="212" y="56" on="0"/>
        <pt x="231" y="76" on="1"/>
        <pt x="249" y="95" on="0"/>
        <pt x="329" y="109" on="1"/>
        <pt x="409" y="122" on="0"/>
      </contour>
    </TTGlyph>
    <TTGlyph name="G.2" xMin="48" yMin="-22" xMax="614" yMax="780">
      <contour>
        <pt x="437" y="604" on="1"/>
        <pt x="476" y="604" on="0"/>
        <pt x="508" y="593" on="1"/>
        <pt x="509" y="592" on="1"/>
        <pt x="510" y="592" on="0"/>
        <pt x="510" y="592" on="1"/>
        <pt x="518" y="592" on="0"/>
        <pt x="518" y="600" on="1"/>
        <pt x="518" y="766" on="1"/>
        <pt x="518" y="771" on="0"/>
        <pt x="511" y="773" on="1"/>
        <pt x="477" y="780" on="0"/>
        <pt x="437" y="780" on="1"/>
        <pt x="276" y="780" on="0"/>
        <pt x="162" y="663" on="1"/>
        <pt x="48" y="546" on="0"/>
        <pt x="48" y="380" on="1"/>
        <pt x="48" y="213" on="0"/>
        <pt x="162" y="96" on="1"/>
        <pt x="277" y="-22" on="0"/>
        <pt x="437" y="-22" on="1"/>
        <pt x="606" y="-22" on="1"/>
        <pt x="614" y="-22" on="0"/>
        <pt x="614" y="-14" on="1"/>
        <pt x="614" y="313" on="1"/>
        <pt x="614" y="320" on="0"/>
        <pt x="606" y="320" on="1"/>
        <pt x="454" y="320" on="1"/>
        <pt x="446" y="320" on="0"/>
        <pt x="446" y="313" on="1"/>
        <pt x="446" y="151" on="1"/>
        <pt x="444" y="151" on="0"/>
        <pt x="441" y="151" on="1"/>
        <pt x="438" y="150" on="0"/>
        <pt x="437" y="150" on="1"/>
        <pt x="345" y="150" on="0"/>
        <pt x="280" y="217" on="1"/>
        <pt x="216" y="282" on="0"/>
        <pt x="216" y="378" on="1"/>
        <pt x="216" y="473" on="0"/>
        <pt x="280" y="538" on="1"/>
        <pt x="344" y="604" on="0"/>
      </contour>
      <contour>
        <pt x="462" y="306" on="1"/>
        <pt x="598" y="306" on="1"/>
        <pt x="598" y="-6" on="1"/>
        <pt x="437" y="-6" on="1"/>
        <pt x="281" y="-6" on="0"/>
        <pt x="172" y="107" on="1"/>
        <pt x="62" y="222" on="0"/>
        <pt x="62" y="380" on="1"/>
        <pt x="62" y="540" on="0"/>
        <pt x="172" y="653" on="1"/>
        <pt x="282" y="766" on="0"/>
        <pt x="437" y="766" on="1"/>
        <pt x="469" y="766" on="0"/>
        <pt x="502" y="760" on="1"/>
        <pt x="502" y="610" on="1"/>
        <pt x="467" y="620" on="0"/>
        <pt x="437" y="620" on="1"/>
        <pt x="339" y="620" on="0"/>
        <pt x="270" y="549" on="1"/>
        <pt x="200" y="477" on="0"/>
        <pt x="200" y="378" on="1"/>
        <pt x="200" y="278" on="0"/>
        <pt x="270" y="206" on="1"/>
        <pt x="339" y="136" on="0"/>
        <pt x="437" y="136" on="1"/>
        <pt x="449" y="136" on="0"/>
        <pt x="455" y="137" on="1"/>
        <pt x="462" y="137" on="0"/>
        <pt x="462" y="144" on="1"/>
      </contour>
    </TTGlyph>
    <TTGlyph name="G.3" xMin="50" yMin="-14" xMax="601" yMax="773">
      <component glyphName="G.0" x="-35" y="0" flags="0x4"/>
    </TTGlyph>
    <TTGlyph name="H" xMin="50" yMin="-2" xMax="602" yMax="774">
      <contour>
        <pt x="450" y="774" on="1"/>
        <pt x="602" y="774" on="1"/>
        <pt x="602" y="-2" on="1"/>
        <pt x="450" y="-2" on="1"/>
        <pt x="450" y="333" on="1"/>
        <pt x="202" y="333" on="1"/>
        <pt x="202" y="-2" on="1"/>
        <pt x="50" y="-2" on="1"/>
        <pt x="50" y="774" on="1"/>
        <pt x="202" y="774" on="1"/>
        <pt x="202" y="485" on="1"/>
        <pt x="450" y="485" on="1"/>
      </contour>
    </TTGlyph>
    <TTGlyph name="H.0" xMin="85" yMin="-2" xMax="637" yMax="774">
      <contour>
        <pt x="485" y="774" on="1"/>
        <pt x="485" y="485" on="1"/>
        <pt x="237" y="485" on="1"/>
        <pt x="237" y="774" on="1"/>
        <pt x="85" y="774" on="1"/>
        <pt x="85" y="-2" on="1"/>
        <pt x="237" y="-2" on="1"/>
        <pt x="237" y="333" on="1"/>
        <pt x="485" y="333" on="1"/>
        <pt x="485" y="-2" on="1"/>
        <pt x="637" y="-2" on="1"/>
        <pt x="637" y="774" on="1"/>
      </contour>
    </TTGlyph>
    <TTGlyph name="H.1" xMin="5" yMin="0" xMax="703" yMax="155">
      <contour>
        <pt x="551" y="155" on="1"/>
        <pt x="496" y="97" on="1"/>
        <pt x="248" y="97" on="1"/>
        <pt x="303" y="155" on="1"/>
        <pt x="151" y="155" on="1"/>
        <pt x="5" y="0" on="1"/>
        <pt x="157" y="0" on="1"/>
        <pt x="220" y="67" on="1"/>
        <pt x="468" y="67" on="1"/>
        <pt x="405" y="0" on="1"/>
        <pt x="557" y="0" on="1"/>
        <pt x="703" y="155" on="1"/>
      </contour>
    </TTGlyph>
    <TTGlyph name="H.2" xMin="48" yMin="-10" xMax="614" yMax="782">
      <contour>
        <pt x="455" y="782" on="1"/>
        <pt x="448" y="782" on="0"/>
        <pt x="448" y="774" on="1"/>
        <pt x="448" y="492" on="1"/>
        <pt x="214" y="492" on="1"/>
        <pt x="214" y="774" on="1"/>
        <pt x="214" y="782" on="0"/>
        <pt x="207" y="782" on="1"/>
        <pt x="55" y="782" on="1"/>
        <pt x="48" y="782" on="0"/>
        <pt x="48" y="774" on="1"/>
        <pt x="48" y="-2" on="1"/>
        <pt x="48" y="-10" on="0"/>
        <pt x="55" y="-10" on="1"/>
        <pt x="207" y="-10" on="1"/>
        <pt x="214" y="-10" on="0"/>
        <pt x="214" y="-2" on="1"/>
        <pt x="214" y="326" on="1"/>
        <pt x="448" y="326" on="1"/>
        <pt x="448" y="-2" on="1"/>
        <pt x="448" y="-10" on="0"/>
        <pt x="455" y="-10" on="1"/>
        <pt x="607" y="-10" on="1"/>
        <pt x="614" y="-10" on="0"/>
        <pt x="614" y="-2" on="1"/>
        <pt x="614" y="774" on="1"/>
        <pt x="614" y="782" on="0"/>
        <pt x="607" y="782" on="1"/>
      </contour>
      <contour>
        <pt x="600" y="766" on="1"/>
        <pt x="600" y="6" on="1"/>
        <pt x="462" y="6" on="1"/>
        <pt x="462" y="333" on="1"/>
        <pt x="462" y="340" on="0"/>
        <pt x="455" y="340" on="1"/>
        <pt x="207" y="340" on="1"/>
        <pt x="200" y="340" on="0"/>
        <pt x="200" y="333" on="1"/>
        <pt x="200" y="6" on="1"/>
        <pt x="62" y="6" on="1"/>
        <pt x="62" y="766" on="1"/>
        <pt x="200" y="766" on="1"/>
        <pt x="200" y="485" on="1"/>
        <pt x="200" y="478" on="0"/>
        <pt x="207" y="478" on="1"/>
        <pt x="455" y="478" on="1"/>
        <pt x="462" y="478" on="0"/>
        <pt x="462" y="485" on="1"/>
        <pt x="462" y="766" on="1"/>
      </contour>
    </TTGlyph>
    <TTGlyph name="H.3" xMin="50" yMin="-2" xMax="602" yMax="774">
      <component glyphName="H.0" x="-35" y="0" flags="0x4"/>
    </TTGlyph>
    <TTGlyph name="I" xMin="50" yMin="-2" xMax="202" yMax="774">
      <contour>
        <pt x="50" y="774" on="1"/>
        <pt x="202" y="774" on="1"/>
        <pt x="202" y="-2" on="1"/>
        <pt x="50" y="-2" on="1"/>
      </contour>
    </TTGlyph>
    <TTGlyph name="I.0" xMin="85" yMin="-2" xMax="237" yMax="774">
      <contour>
        <pt x="85" y="774" on="1"/>
        <pt x="85" y="-2" on="1"/>
        <pt x="237" y="-2" on="1"/>
        <pt x="237" y="774" on="1"/>
      </contour>
    </TTGlyph>
    <TTGlyph name="I.1" xMin="50" yMin="-2" xMax="202" yMax="774">
      <contour>
        <pt x="50" y="774" on="1"/>
        <pt x="50" y="-2" on="1"/>
        <pt x="202" y="-2" on="1"/>
        <pt x="202" y="774" on="1"/>
      </contour>
    </TTGlyph>
    <TTGlyph name="J" xMin="50" yMin="-3" xMax="369" yMax="761">
      <contour>
        <pt x="50" y="6" on="1"/>
        <pt x="50" y="174" on="1"/>
        <pt x="81" y="148" on="0"/>
        <pt x="121" y="148" on="1"/>
        <pt x="170" y="148" on="0"/>
        <pt x="202" y="185" on="1"/>
        <pt x="202" y="761" on="1"/>
        <pt x="369" y="761" on="1"/>
        <pt x="366" y="184" on="1"/>
        <pt x="342" y="101" on="0"/>
        <pt x="208" y="-3" on="0"/>
        <pt x="121" y="-3" on="1"/>
        <pt x="84" y="-3" on="0"/>
      </contour>
    </TTGlyph>
    <TTGlyph name="J.0" xMin="85" yMin="-3" xMax="404" yMax="761">
      <contour>
        <pt x="85" y="6" on="1"/>
        <pt x="119" y="-3" on="0"/>
        <pt x="156" y="-3" on="1"/>
        <pt x="243" y="-3" on="0"/>
        <pt x="310" y="49" on="1"/>
        <pt x="377" y="101" on="0"/>
        <pt x="401" y="184" on="1"/>
        <pt x="404" y="761" on="1"/>
        <pt x="237" y="761" on="1"/>
        <pt x="237" y="185" on="1"/>
        <pt x="205" y="148" on="0"/>
        <pt x="156" y="148" on="1"/>
        <pt x="116" y="148" on="0"/>
        <pt x="85" y="174" on="1"/>
      </contour>
    </TTGlyph>
    <TTGlyph name="J.1" xMin="7" yMin="-1" xMax="468" yMax="152">
      <contour>
        <pt x="7" y="1" on="1"/>
        <pt x="39" y="-1" on="0"/>
        <pt x="77" y="-1" on="1"/>
        <pt x="164" y="-1" on="0"/>
        <pt x="241" y="10" on="1"/>
        <pt x="317" y="20" on="0"/>
        <pt x="357" y="37" on="1"/>
        <pt x="468" y="152" on="1"/>
        <pt x="301" y="152" on="1"/>
        <pt x="193" y="37" on="1"/>
        <pt x="155" y="30" on="0"/>
        <pt x="106" y="30" on="1"/>
        <pt x="66" y="30" on="0"/>
        <pt x="40" y="35" on="1"/>
      </contour>
    </TTGlyph>
    <TTGlyph name="J.2" xMin="48" yMin="-10" xMax="381" yMax="768">
      <contour>
        <pt x="48" y="6" on="1"/>
        <pt x="48" y="1" on="0"/>
        <pt x="53" y="-1" on="1"/>
        <pt x="88" y="-10" on="0"/>
        <pt x="126" y="-10" on="1"/>
        <pt x="217" y="-10" on="0"/>
        <pt x="285" y="43" on="1"/>
        <pt x="354" y="97" on="0"/>
        <pt x="378" y="182" on="1"/>
        <pt x="378" y="184" on="0"/>
        <pt x="378" y="184" on="1"/>
        <pt x="381" y="761" on="1"/>
        <pt x="381" y="768" on="0"/>
        <pt x="374" y="768" on="1"/>
        <pt x="207" y="768" on="1"/>
        <pt x="200" y="768" on="0"/>
        <pt x="200" y="761" on="1"/>
        <pt x="200" y="188" on="1"/>
        <pt x="171" y="156" on="0"/>
        <pt x="126" y="156" on="1"/>
        <pt x="88" y="156" on="0"/>
        <pt x="60" y="180" on="1"/>
        <pt x="58" y="182" on="0"/>
        <pt x="55" y="182" on="1"/>
        <pt x="48" y="182" on="0"/>
        <pt x="48" y="174" on="1"/>
      </contour>
      <contour>
        <pt x="214" y="754" on="1"/>
        <pt x="366" y="754" on="1"/>
        <pt x="364" y="185" on="1"/>
        <pt x="340" y="107" on="0"/>
        <pt x="275" y="55" on="1"/>
        <pt x="210" y="4" on="0"/>
        <pt x="126" y="4" on="1"/>
        <pt x="94" y="4" on="0"/>
        <pt x="62" y="12" on="1"/>
        <pt x="62" y="159" on="1"/>
        <pt x="92" y="140" on="0"/>
        <pt x="126" y="140" on="1"/>
        <pt x="178" y="140" on="0"/>
        <pt x="213" y="180" on="1"/>
        <pt x="214" y="181" on="0"/>
        <pt x="214" y="185" on="1"/>
      </contour>
    </TTGlyph>
    <TTGlyph name="J.3" xMin="50" yMin="-3" xMax="369" yMax="761">
      <component glyphName="J.0" x="-35" y="0" flags="0x4"/>
    </TTGlyph>
    <TTGlyph name="K" xMin="50" yMin="-3" xMax="703" yMax="774">
      <contour>
        <pt x="50" y="774" on="1"/>
        <pt x="202" y="774" on="1"/>
        <pt x="202" y="433" on="1"/>
        <pt x="447" y="770" on="1"/>
        <pt x="633" y="768" on="1"/>
        <pt x="372" y="387" on="1"/>
        <pt x="703" y="-3" on="1"/>
        <pt x="511" y="-2" on="1"/>
        <pt x="259" y="302" on="1"/>
        <pt x="202" y="219" on="1"/>
        <pt x="202" y="-2" on="1"/>
        <pt x="50" y="-2" on="1"/>
      </contour>
    </TTGlyph>
    <TTGlyph name="K.0" xMin="85" yMin="-3" xMax="738" yMax="774">
      <contour>
        <pt x="85" y="774" on="1"/>
        <pt x="85" y="-2" on="1"/>
        <pt x="237" y="-2" on="1"/>
        <pt x="237" y="219" on="1"/>
        <pt x="294" y="302" on="1"/>
        <pt x="546" y="-2" on="1"/>
        <pt x="738" y="-3" on="1"/>
        <pt x="407" y="387" on="1"/>
        <pt x="668" y="768" on="1"/>
        <pt x="482" y="770" on="1"/>
        <pt x="237" y="433" on="1"/>
        <pt x="237" y="774" on="1"/>
      </contour>
    </TTGlyph>
    <TTGlyph name="K.1" xMin="6" yMin="-1" xMax="733" yMax="155">
      <contour>
        <pt x="151" y="155" on="1"/>
        <pt x="6" y="0" on="1"/>
        <pt x="158" y="0" on="1"/>
        <pt x="199" y="44" on="1"/>
        <pt x="271" y="60" on="1"/>
        <pt x="467" y="0" on="1"/>
        <pt x="658" y="-1" on="1"/>
        <pt x="400" y="77" on="1"/>
        <pt x="733" y="154" on="1"/>
        <pt x="547" y="154" on="1"/>
        <pt x="240" y="87" on="1"/>
        <pt x="303" y="155" on="1"/>
      </contour>
    </TTGlyph>
    <TTGlyph name="K.2" xMin="48" yMin="-10" xMax="716" yMax="782">
      <contour>
        <pt x="55" y="782" on="1"/>
        <pt x="48" y="782" on="0"/>
        <pt x="48" y="774" on="1"/>
        <pt x="48" y="-2" on="1"/>
        <pt x="48" y="-10" on="0"/>
        <pt x="55" y="-10" on="1"/>
        <pt x="207" y="-10" on="1"/>
        <pt x="214" y="-10" on="0"/>
        <pt x="214" y="-2" on="1"/>
        <pt x="214" y="217" on="1"/>
        <pt x="265" y="290" on="1"/>
        <pt x="510" y="-7" on="1"/>
        <pt x="511" y="-9" on="0"/>
        <pt x="516" y="-9" on="1"/>
        <pt x="708" y="-10" on="1"/>
        <pt x="716" y="-10" on="0"/>
        <pt x="716" y="-3" on="1"/>
        <pt x="716" y="0" on="0"/>
        <pt x="714" y="2" on="1"/>
        <pt x="386" y="387" on="1"/>
        <pt x="644" y="764" on="1"/>
        <pt x="646" y="766" on="0"/>
        <pt x="646" y="768" on="1"/>
        <pt x="646" y="775" on="0"/>
        <pt x="638" y="775" on="1"/>
        <pt x="452" y="777" on="1"/>
        <pt x="448" y="777" on="0"/>
        <pt x="446" y="774" on="1"/>
        <pt x="214" y="456" on="1"/>
        <pt x="214" y="774" on="1"/>
        <pt x="214" y="782" on="0"/>
        <pt x="207" y="782" on="1"/>
      </contour>
      <contour>
        <pt x="200" y="766" on="1"/>
        <pt x="200" y="433" on="1"/>
        <pt x="200" y="426" on="0"/>
        <pt x="207" y="426" on="1"/>
        <pt x="212" y="426" on="0"/>
        <pt x="213" y="429" on="1"/>
        <pt x="456" y="762" on="1"/>
        <pt x="624" y="761" on="1"/>
        <pt x="371" y="391" on="1"/>
        <pt x="370" y="390" on="0"/>
        <pt x="370" y="387" on="1"/>
        <pt x="370" y="383" on="0"/>
        <pt x="371" y="382" on="1"/>
        <pt x="692" y="5" on="1"/>
        <pt x="520" y="5" on="1"/>
        <pt x="270" y="307" on="1"/>
        <pt x="268" y="310" on="0"/>
        <pt x="264" y="310" on="1"/>
        <pt x="260" y="310" on="0"/>
        <pt x="258" y="306" on="1"/>
        <pt x="201" y="223" on="1"/>
        <pt x="200" y="222" on="0"/>
        <pt x="200" y="219" on="1"/>
        <pt x="200" y="6" on="1"/>
        <pt x="62" y="6" on="1"/>
        <pt x="62" y="766" on="1"/>
      </contour>
    </TTGlyph>
    <TTGlyph name="K.3" xMin="50" yMin="-3" xMax="703" yMax="774">
      <component glyphName="K.0" x="-35" y="0" flags="0x4"/>
    </TTGlyph>
    <TTGlyph name="L" xMin="50" yMin="-3" xMax="668" yMax="774">
      <contour>
        <pt x="50" y="774" on="1"/>
        <pt x="202" y="774" on="1"/>
        <pt x="202" y="149" on="1"/>
        <pt x="667" y="149" on="1"/>
        <pt x="668" y="-3" on="1"/>
        <pt x="51" y="-3" on="1"/>
        <pt x="51" y="-2" on="1"/>
        <pt x="50" y="-2" on="1"/>
      </contour>
    </TTGlyph>
    <TTGlyph name="L.0" xMin="85" yMin="-3" xMax="703" yMax="774">
      <contour>
        <pt x="85" y="774" on="1"/>
        <pt x="85" y="-2" on="1"/>
        <pt x="86" y="-2" on="1"/>
        <pt x="86" y="-3" on="1"/>
        <pt x="703" y="-3" on="1"/>
        <pt x="702" y="149" on="1"/>
        <pt x="237" y="149" on="1"/>
        <pt x="237" y="774" on="1"/>
      </contour>
    </TTGlyph>
    <TTGlyph name="L.1" xMin="6" yMin="-1" xMax="651" yMax="155">
      <contour>
        <pt x="151" y="155" on="1"/>
        <pt x="6" y="0" on="1"/>
        <pt x="7" y="0" on="1"/>
        <pt x="6" y="-1" on="1"/>
        <pt x="623" y="-1" on="1"/>
        <pt x="651" y="30" on="1"/>
        <pt x="186" y="30" on="1"/>
        <pt x="303" y="155" on="1"/>
      </contour>
    </TTGlyph>
    <TTGlyph name="L.2" xMin="48" yMin="-10" xMax="680" yMax="782">
      <contour>
        <pt x="56" y="-10" on="1"/>
        <pt x="673" y="-10" on="1"/>
        <pt x="680" y="-10" on="0"/>
        <pt x="680" y="-3" on="1"/>
        <pt x="679" y="149" on="1"/>
        <pt x="679" y="156" on="0"/>
        <pt x="672" y="156" on="1"/>
        <pt x="214" y="156" on="1"/>
        <pt x="214" y="774" on="1"/>
        <pt x="214" y="782" on="0"/>
        <pt x="207" y="782" on="1"/>
        <pt x="55" y="782" on="1"/>
        <pt x="48" y="782" on="0"/>
        <pt x="48" y="774" on="1"/>
        <pt x="48" y="-2" on="1"/>
        <pt x="48" y="-10" on="0"/>
      </contour>
      <contour>
        <pt x="200" y="766" on="1"/>
        <pt x="200" y="149" on="1"/>
        <pt x="200" y="142" on="0"/>
        <pt x="207" y="142" on="1"/>
        <pt x="665" y="142" on="1"/>
        <pt x="665" y="4" on="1"/>
        <pt x="62" y="4" on="1"/>
        <pt x="62" y="766" on="1"/>
      </contour>
    </TTGlyph>
    <TTGlyph name="L.3" xMin="50" yMin="-3" xMax="668" yMax="774">
      <component glyphName="L.0" x="-35" y="0" flags="0x4"/>
    </TTGlyph>
    <TTGlyph name="M" xMin="50" yMin="-2" xMax="1002" yMax="768">
      <contour>
        <pt x="50" y="768" on="1"/>
        <pt x="202" y="768" on="1"/>
        <pt x="526" y="146" on="1"/>
        <pt x="850" y="768" on="1"/>
        <pt x="1002" y="768" on="1"/>
        <pt x="1002" y="-2" on="1"/>
        <pt x="850" y="-2" on="1"/>
        <pt x="850" y="476" on="1"/>
        <pt x="602" y="0" on="1"/>
        <pt x="450" y="0" on="1"/>
        <pt x="202" y="476" on="1"/>
        <pt x="202" y="-2" on="1"/>
        <pt x="50" y="-2" on="1"/>
      </contour>
    </TTGlyph>
    <TTGlyph name="M.0" xMin="85" yMin="-2" xMax="1037" yMax="768">
      <contour>
        <pt x="85" y="768" on="1"/>
        <pt x="85" y="-2" on="1"/>
        <pt x="237" y="-2" on="1"/>
        <pt x="237" y="476" on="1"/>
        <pt x="485" y="0" on="1"/>
        <pt x="637" y="0" on="1"/>
        <pt x="885" y="476" on="1"/>
        <pt x="885" y="-2" on="1"/>
        <pt x="1037" y="-2" on="1"/>
        <pt x="1037" y="768" on="1"/>
        <pt x="885" y="768" on="1"/>
        <pt x="561" y="146" on="1"/>
        <pt x="237" y="768" on="1"/>
      </contour>
    </TTGlyph>
    <TTGlyph name="M.1" xMin="6" yMin="0" xMax="1102" yMax="154">
      <contour>
        <pt x="150" y="154" on="1"/>
        <pt x="6" y="0" on="1"/>
        <pt x="158" y="0" on="1"/>
        <pt x="247" y="95" on="1"/>
        <pt x="406" y="0" on="1"/>
        <pt x="558" y="0" on="1"/>
        <pt x="895" y="95" on="1"/>
        <pt x="806" y="0" on="1"/>
        <pt x="958" y="0" on="1"/>
        <pt x="1102" y="154" on="1"/>
        <pt x="950" y="154" on="1"/>
        <pt x="509" y="29" on="1"/>
        <pt x="302" y="154" on="1"/>
      </contour>
    </TTGlyph>
    <TTGlyph name="M.2" xMin="48" yMin="-10" xMax="1014" yMax="776">
      <contour>
        <pt x="55" y="776" on="1"/>
        <pt x="48" y="776" on="0"/>
        <pt x="48" y="768" on="1"/>
        <pt x="48" y="-2" on="1"/>
        <pt x="48" y="-10" on="0"/>
        <pt x="55" y="-10" on="1"/>
        <pt x="207" y="-10" on="1"/>
        <pt x="214" y="-10" on="0"/>
        <pt x="214" y="-2" on="1"/>
        <pt x="214" y="445" on="1"/>
        <pt x="448" y="-3" on="1"/>
        <pt x="450" y="-8" on="0"/>
        <pt x="455" y="-8" on="1"/>
        <pt x="607" y="-8" on="1"/>
        <pt x="612" y="-8" on="0"/>
        <pt x="614" y="-3" on="1"/>
        <pt x="848" y="445" on="1"/>
        <pt x="848" y="-2" on="1"/>
        <pt x="848" y="-10" on="0"/>
        <pt x="855" y="-10" on="1"/>
        <pt x="1007" y="-10" on="1"/>
        <pt x="1014" y="-10" on="0"/>
        <pt x="1014" y="-2" on="1"/>
        <pt x="1014" y="768" on="1"/>
        <pt x="1014" y="776" on="0"/>
        <pt x="1007" y="776" on="1"/>
        <pt x="855" y="776" on="1"/>
        <pt x="850" y="776" on="0"/>
        <pt x="848" y="771" on="1"/>
        <pt x="531" y="162" on="1"/>
        <pt x="214" y="771" on="1"/>
        <pt x="212" y="776" on="0"/>
        <pt x="207" y="776" on="1"/>
      </contour>
      <contour>
        <pt x="62" y="760" on="1"/>
        <pt x="202" y="760" on="1"/>
        <pt x="524" y="143" on="1"/>
        <pt x="526" y="138" on="0"/>
        <pt x="531" y="138" on="1"/>
        <pt x="536" y="138" on="0"/>
        <pt x="538" y="143" on="1"/>
        <pt x="860" y="760" on="1"/>
        <pt x="1000" y="760" on="1"/>
        <pt x="1000" y="6" on="1"/>
        <pt x="862" y="6" on="1"/>
        <pt x="862" y="476" on="1"/>
        <pt x="862" y="484" on="0"/>
        <pt x="855" y="484" on="1"/>
        <pt x="850" y="484" on="0"/>
        <pt x="848" y="479" on="1"/>
        <pt x="602" y="8" on="1"/>
        <pt x="460" y="8" on="1"/>
        <pt x="214" y="479" on="1"/>
        <pt x="212" y="484" on="0"/>
        <pt x="207" y="484" on="1"/>
        <pt x="200" y="484" on="0"/>
        <pt x="200" y="476" on="1"/>
        <pt x="200" y="6" on="1"/>
        <pt x="62" y="6" on="1"/>
      </contour>
    </TTGlyph>
    <TTGlyph name="M.3" xMin="50" yMin="-2" xMax="1002" yMax="768">
      <component glyphName="M.0" x="-35" y="0" flags="0x4"/>
    </TTGlyph>
    <TTGlyph name="N" xMin="50" yMin="-2" xMax="802" yMax="774">
      <contour>
        <pt x="50" y="774" on="1"/>
        <pt x="202" y="774" on="1"/>
        <pt x="650" y="251" on="1"/>
        <pt x="650" y="774" on="1"/>
        <pt x="802" y="774" on="1"/>
        <pt x="802" y="-2" on="1"/>
        <pt x="650" y="-2" on="1"/>
        <pt x="202" y="523" on="1"/>
        <pt x="202" y="-2" on="1"/>
        <pt x="50" y="-2" on="1"/>
      </contour>
    </TTGlyph>
    <TTGlyph name="N.0" xMin="85" yMin="-2" xMax="837" yMax="774">
      <contour>
        <pt x="85" y="774" on="1"/>
        <pt x="85" y="-2" on="1"/>
        <pt x="237" y="-2" on="1"/>
        <pt x="237" y="523" on="1"/>
        <pt x="685" y="-2" on="1"/>
        <pt x="837" y="-2" on="1"/>
        <pt x="837" y="774" on="1"/>
        <pt x="685" y="774" on="1"/>
        <pt x="685" y="251" on="1"/>
        <pt x="237" y="774" on="1"/>
      </contour>
    </TTGlyph>
    <TTGlyph name="N.1" xMin="5" yMin="0" xMax="903" yMax="155">
      <contour>
        <pt x="151" y="155" on="1"/>
        <pt x="5" y="0" on="1"/>
        <pt x="157" y="0" on="1"/>
        <pt x="256" y="105" on="1"/>
        <pt x="605" y="0" on="1"/>
        <pt x="757" y="0" on="1"/>
        <pt x="903" y="155" on="1"/>
        <pt x="751" y="155" on="1"/>
        <pt x="652" y="50" on="1"/>
        <pt x="303" y="155" on="1"/>
      </contour>
    </TTGlyph>
    <TTGlyph name="N.2" xMin="48" yMin="-10" xMax="814" yMax="782">
      <contour>
        <pt x="55" y="782" on="1"/>
        <pt x="48" y="782" on="0"/>
        <pt x="48" y="774" on="1"/>
        <pt x="48" y="-2" on="1"/>
        <pt x="48" y="-10" on="0"/>
        <pt x="55" y="-10" on="1"/>
        <pt x="207" y="-10" on="1"/>
        <pt x="214" y="-10" on="0"/>
        <pt x="214" y="-2" on="1"/>
        <pt x="214" y="503" on="1"/>
        <pt x="649" y="-7" on="1"/>
        <pt x="650" y="-10" on="0"/>
        <pt x="655" y="-10" on="1"/>
        <pt x="807" y="-10" on="1"/>
        <pt x="814" y="-10" on="0"/>
        <pt x="814" y="-2" on="1"/>
        <pt x="814" y="774" on="1"/>
        <pt x="814" y="782" on="0"/>
        <pt x="807" y="782" on="1"/>
        <pt x="655" y="782" on="1"/>
        <pt x="648" y="782" on="0"/>
        <pt x="648" y="774" on="1"/>
        <pt x="648" y="271" on="1"/>
        <pt x="213" y="779" on="1"/>
        <pt x="212" y="782" on="0"/>
        <pt x="207" y="782" on="1"/>
      </contour>
      <contour>
        <pt x="62" y="766" on="1"/>
        <pt x="204" y="766" on="1"/>
        <pt x="649" y="246" on="1"/>
        <pt x="650" y="244" on="0"/>
        <pt x="655" y="244" on="1"/>
        <pt x="662" y="244" on="0"/>
        <pt x="662" y="251" on="1"/>
        <pt x="662" y="766" on="1"/>
        <pt x="800" y="766" on="1"/>
        <pt x="800" y="6" on="1"/>
        <pt x="658" y="6" on="1"/>
        <pt x="213" y="528" on="1"/>
        <pt x="212" y="530" on="0"/>
        <pt x="207" y="530" on="1"/>
        <pt x="200" y="530" on="0"/>
        <pt x="200" y="523" on="1"/>
        <pt x="200" y="6" on="1"/>
        <pt x="62" y="6" on="1"/>
      </contour>
    </TTGlyph>
    <TTGlyph name="N.3" xMin="50" yMin="-2" xMax="802" yMax="774">
      <component glyphName="N.0" x="-35" y="0" flags="0x4"/>
    </TTGlyph>
    <TTGlyph name="O" xMin="50" yMin="-14" xMax="814" yMax="773">
      <contour>
        <pt x="814" y="380" on="1"/>
        <pt x="814" y="217" on="0"/>
        <pt x="590" y="-14" on="0"/>
        <pt x="274" y="-14" on="0"/>
        <pt x="50" y="217" on="0"/>
        <pt x="50" y="543" on="0"/>
        <pt x="274" y="773" on="0"/>
        <pt x="590" y="773" on="0"/>
        <pt x="814" y="543" on="0"/>
      </contour>
      <contour>
        <pt x="661" y="378" on="1"/>
        <pt x="661" y="475" on="0"/>
        <pt x="527" y="612" on="0"/>
        <pt x="337" y="612" on="0"/>
        <pt x="203" y="475" on="0"/>
        <pt x="203" y="378" on="1"/>
        <pt x="203" y="280" on="0"/>
        <pt x="337" y="143" on="0"/>
        <pt x="527" y="143" on="0"/>
        <pt x="661" y="280" on="0"/>
      </contour>
    </TTGlyph>
    <TTGlyph name="O.0" xMin="85" yMin="-14" xMax="849" yMax="773">
      <contour>
        <pt x="849" y="380" on="1"/>
        <pt x="849" y="543" on="0"/>
        <pt x="737" y="658" on="1"/>
        <pt x="625" y="773" on="0"/>
        <pt x="467" y="773" on="1"/>
        <pt x="309" y="773" on="0"/>
        <pt x="197" y="658" on="1"/>
        <pt x="85" y="543" on="0"/>
        <pt x="85" y="380" on="1"/>
        <pt x="85" y="217" on="0"/>
        <pt x="197" y="102" on="1"/>
        <pt x="309" y="-14" on="0"/>
        <pt x="467" y="-14" on="1"/>
        <pt x="625" y="-14" on="0"/>
        <pt x="737" y="102" on="1"/>
        <pt x="849" y="217" on="0"/>
      </contour>
      <contour>
        <pt x="696" y="378" on="1"/>
        <pt x="696" y="280" on="0"/>
        <pt x="629" y="212" on="1"/>
        <pt x="562" y="143" on="0"/>
        <pt x="467" y="143" on="1"/>
        <pt x="372" y="143" on="0"/>
        <pt x="305" y="212" on="1"/>
        <pt x="238" y="280" on="0"/>
        <pt x="238" y="378" on="1"/>
        <pt x="238" y="475" on="0"/>
        <pt x="305" y="544" on="1"/>
        <pt x="372" y="612" on="0"/>
        <pt x="467" y="612" on="1"/>
        <pt x="562" y="612" on="0"/>
        <pt x="629" y="544" on="1"/>
        <pt x="696" y="475" on="0"/>
      </contour>
    </TTGlyph>
    <TTGlyph name="O.1" xMin="47" yMin="-3" xMax="873" yMax="155">
      <contour>
        <pt x="842" y="76" on="1"/>
        <pt x="873" y="109" on="0"/>
        <pt x="783" y="132" on="1"/>
        <pt x="692" y="155" on="0"/>
        <pt x="534" y="155" on="1"/>
        <pt x="376" y="155" on="0"/>
        <pt x="243" y="132" on="1"/>
        <pt x="109" y="109" on="0"/>
        <pt x="78" y="76" on="1"/>
        <pt x="47" y="43" on="0"/>
        <pt x="137" y="20" on="1"/>
        <pt x="227" y="-3" on="0"/>
        <pt x="385" y="-3" on="1"/>
        <pt x="543" y="-3" on="0"/>
        <pt x="677" y="20" on="1"/>
        <pt x="811" y="43" on="0"/>
      </contour>
      <contour>
        <pt x="689" y="76" on="1"/>
        <pt x="670" y="56" on="0"/>
        <pt x="590" y="43" on="1"/>
        <pt x="510" y="29" on="0"/>
        <pt x="415" y="29" on="1"/>
        <pt x="320" y="29" on="0"/>
        <pt x="266" y="43" on="1"/>
        <pt x="212" y="56" on="0"/>
        <pt x="231" y="76" on="1"/>
        <pt x="249" y="95" on="0"/>
        <pt x="329" y="109" on="1"/>
        <pt x="409" y="122" on="0"/>
        <pt x="504" y="122" on="1"/>
        <pt x="599" y="122" on="0"/>
        <pt x="653" y="109" on="1"/>
        <pt x="707" y="95" on="0"/>
      </contour>
    </TTGlyph>
    <TTGlyph name="O.2" xMin="48" yMin="-22" xMax="826" yMax="780">
      <contour>
        <pt x="826" y="380" on="1"/>
        <pt x="826" y="546" on="0"/>
        <pt x="712" y="663" on="1"/>
        <pt x="598" y="780" on="0"/>
        <pt x="437" y="780" on="1"/>
        <pt x="276" y="780" on="0"/>
        <pt x="162" y="663" on="1"/>
        <pt x="48" y="546" on="0"/>
        <pt x="48" y="380" on="1"/>
        <pt x="48" y="213" on="0"/>
        <pt x="162" y="96" on="1"/>
        <pt x="277" y="-22" on="0"/>
        <pt x="437" y="-22" on="1"/>
        <pt x="597" y="-22" on="0"/>
        <pt x="712" y="96" on="1"/>
        <pt x="826" y="213" on="0"/>
      </contour>
      <contour>
        <pt x="812" y="380" on="1"/>
        <pt x="812" y="222" on="0"/>
        <pt x="702" y="107" on="1"/>
        <pt x="593" y="-6" on="0"/>
        <pt x="437" y="-6" on="1"/>
        <pt x="281" y="-6" on="0"/>
        <pt x="172" y="107" on="1"/>
        <pt x="62" y="222" on="0"/>
        <pt x="62" y="380" on="1"/>
        <pt x="62" y="540" on="0"/>
        <pt x="172" y="653" on="1"/>
        <pt x="282" y="766" on="0"/>
        <pt x="437" y="766" on="1"/>
        <pt x="592" y="766" on="0"/>
        <pt x="702" y="653" on="1"/>
        <pt x="812" y="540" on="0"/>
      </contour>
      <contour>
        <pt x="674" y="378" on="1"/>
        <pt x="674" y="477" on="0"/>
        <pt x="604" y="549" on="1"/>
        <pt x="535" y="620" on="0"/>
        <pt x="437" y="620" on="1"/>
        <pt x="339" y="620" on="0"/>
        <pt x="270" y="549" on="1"/>
        <pt x="200" y="477" on="0"/>
        <pt x="200" y="378" on="1"/>
        <pt x="200" y="278" on="0"/>
        <pt x="270" y="206" on="1"/>
        <pt x="339" y="136" on="0"/>
        <pt x="437" y="136" on="1"/>
        <pt x="535" y="136" on="0"/>
        <pt x="604" y="206" on="1"/>
        <pt x="674" y="278" on="0"/>
      </contour>
      <contour>
        <pt x="658" y="378" on="1"/>
        <pt x="658" y="282" on="0"/>
        <pt x="594" y="217" on="1"/>
        <pt x="529" y="150" on="0"/>
        <pt x="437" y="150" on="1"/>
        <pt x="345" y="150" on="0"/>
        <pt x="280" y="217" on="1"/>
        <pt x="216" y="282" on="0"/>
        <pt x="216" y="378" on="1"/>
        <pt x="216" y="473" on="0"/>
        <pt x="280" y="538" on="1"/>
        <pt x="344" y="604" on="0"/>
        <pt x="437" y="604" on="1"/>
        <pt x="530" y="604" on="0"/>
        <pt x="594" y="538" on="1"/>
        <pt x="658" y="473" on="0"/>
      </contour>
    </TTGlyph>
    <TTGlyph name="O.3" xMin="50" yMin="-14" xMax="814" yMax="773">
      <component glyphName="O.0" x="-35" y="0" flags="0x4"/>
    </TTGlyph>
    <TTGlyph name="P" xMin="50" yMin="3" xMax="484" yMax="780">
      <contour>
        <pt x="202" y="3" on="1"/>
        <pt x="50" y="3" on="1"/>
        <pt x="50" y="779" on="1"/>
        <pt x="202" y="779" on="1"/>
        <pt x="210" y="780" on="0"/>
        <pt x="226" y="780" on="1"/>
        <pt x="333" y="780" on="0"/>
        <pt x="484" y="630" on="0"/>
        <pt x="484" y="416" on="0"/>
        <pt x="333" y="265" on="0"/>
        <pt x="226" y="265" on="1"/>
        <pt x="210" y="265" on="0"/>
        <pt x="202" y="266" on="1"/>
      </contour>
      <contour>
        <pt x="202" y="626" on="1"/>
        <pt x="202" y="419" on="1"/>
        <pt x="214" y="416" on="0"/>
        <pt x="226" y="416" on="1"/>
        <pt x="271" y="416" on="0"/>
        <pt x="333" y="478" on="0"/>
        <pt x="333" y="523" on="1"/>
        <pt x="333" y="567" on="0"/>
        <pt x="271" y="629" on="0"/>
        <pt x="226" y="629" on="1"/>
        <pt x="214" y="629" on="0"/>
      </contour>
    </TTGlyph>
    <TTGlyph name="P.0" xMin="85" yMin="3" xMax="519" yMax="780">
      <contour>
        <pt x="237" y="3" on="1"/>
        <pt x="237" y="266" on="1"/>
        <pt x="245" y="265" on="0"/>
        <pt x="261" y="265" on="1"/>
        <pt x="368" y="265" on="0"/>
        <pt x="444" y="341" on="1"/>
        <pt x="519" y="416" on="0"/>
        <pt x="519" y="523" on="1"/>
        <pt x="519" y="630" on="0"/>
        <pt x="444" y="705" on="1"/>
        <pt x="368" y="780" on="0"/>
        <pt x="261" y="780" on="1"/>
        <pt x="245" y="780" on="0"/>
        <pt x="237" y="779" on="1"/>
        <pt x="85" y="779" on="1"/>
        <pt x="85" y="3" on="1"/>
      </contour>
      <contour>
        <pt x="237" y="626" on="1"/>
        <pt x="249" y="629" on="0"/>
        <pt x="261" y="629" on="1"/>
        <pt x="306" y="629" on="0"/>
        <pt x="337" y="598" on="1"/>
        <pt x="368" y="567" on="0"/>
        <pt x="368" y="523" on="1"/>
        <pt x="368" y="478" on="0"/>
        <pt x="337" y="447" on="1"/>
        <pt x="306" y="416" on="0"/>
        <pt x="261" y="416" on="1"/>
        <pt x="249" y="416" on="0"/>
        <pt x="237" y="419" on="1"/>
      </contour>
    </TTGlyph>
    <TTGlyph name="P.1" xMin="5" yMin="1" xMax="557" yMax="156">
      <contour>
        <pt x="157" y="1" on="1"/>
        <pt x="206" y="53" on="1"/>
        <pt x="214" y="53" on="0"/>
        <pt x="230" y="53" on="1"/>
        <pt x="337" y="53" on="0"/>
        <pt x="427" y="68" on="1"/>
        <pt x="517" y="83" on="0"/>
        <pt x="537" y="105" on="1"/>
        <pt x="557" y="126" on="0"/>
        <pt x="496" y="141" on="1"/>
        <pt x="435" y="156" on="0"/>
        <pt x="328" y="156" on="1"/>
        <pt x="312" y="156" on="0"/>
        <pt x="304" y="156" on="1"/>
        <pt x="152" y="156" on="1"/>
        <pt x="5" y="1" on="1"/>
      </contour>
      <contour>
        <pt x="275" y="125" on="1"/>
        <pt x="287" y="126" on="0"/>
        <pt x="299" y="126" on="1"/>
        <pt x="344" y="126" on="0"/>
        <pt x="369" y="120" on="1"/>
        <pt x="394" y="114" on="0"/>
        <pt x="386" y="105" on="1"/>
        <pt x="378" y="96" on="0"/>
        <pt x="341" y="90" on="1"/>
        <pt x="304" y="83" on="0"/>
        <pt x="259" y="83" on="1"/>
        <pt x="248" y="83" on="0"/>
        <pt x="236" y="84" on="1"/>
      </contour>
    </TTGlyph>
    <TTGlyph name="P.2" xMin="48" yMin="-4" xMax="496" yMax="788">
      <contour>
        <pt x="207" y="-4" on="1"/>
        <pt x="214" y="-4" on="0"/>
        <pt x="214" y="3" on="1"/>
        <pt x="214" y="258" on="1"/>
        <pt x="231" y="258" on="1"/>
        <pt x="342" y="258" on="0"/>
        <pt x="419" y="335" on="1"/>
        <pt x="496" y="412" on="0"/>
        <pt x="496" y="523" on="1"/>
        <pt x="496" y="634" on="0"/>
        <pt x="419" y="710" on="1"/>
        <pt x="339" y="788" on="0"/>
        <pt x="231" y="788" on="1"/>
        <pt x="219" y="788" on="0"/>
        <pt x="207" y="786" on="1"/>
        <pt x="55" y="786" on="1"/>
        <pt x="48" y="786" on="0"/>
        <pt x="48" y="779" on="1"/>
        <pt x="48" y="3" on="1"/>
        <pt x="48" y="-4" on="0"/>
        <pt x="55" y="-4" on="1"/>
      </contour>
      <contour>
        <pt x="62" y="10" on="1"/>
        <pt x="62" y="772" on="1"/>
        <pt x="207" y="772" on="1"/>
        <pt x="208" y="772" on="1"/>
        <pt x="231" y="772" on="1"/>
        <pt x="336" y="772" on="0"/>
        <pt x="408" y="700" on="1"/>
        <pt x="482" y="626" on="0"/>
        <pt x="482" y="523" on="1"/>
        <pt x="482" y="420" on="0"/>
        <pt x="408" y="346" on="1"/>
        <pt x="334" y="272" on="0"/>
        <pt x="231" y="272" on="1"/>
        <pt x="213" y="272" on="0"/>
        <pt x="208" y="273" on="1"/>
        <pt x="207" y="274" on="1"/>
        <pt x="200" y="274" on="0"/>
        <pt x="200" y="266" on="1"/>
        <pt x="200" y="10" on="1"/>
      </contour>
      <contour>
        <pt x="231" y="636" on="1"/>
        <pt x="218" y="636" on="0"/>
        <pt x="205" y="633" on="1"/>
        <pt x="200" y="631" on="0"/>
        <pt x="200" y="626" on="1"/>
        <pt x="200" y="419" on="1"/>
        <pt x="200" y="414" on="0"/>
        <pt x="205" y="412" on="1"/>
        <pt x="223" y="408" on="0"/>
        <pt x="231" y="408" on="1"/>
        <pt x="278" y="408" on="0"/>
        <pt x="312" y="442" on="1"/>
        <pt x="346" y="476" on="0"/>
        <pt x="346" y="523" on="1"/>
        <pt x="346" y="569" on="0"/>
        <pt x="312" y="603" on="1"/>
        <pt x="279" y="636" on="0"/>
      </contour>
      <contour>
        <pt x="330" y="523" on="1"/>
        <pt x="330" y="480" on="0"/>
        <pt x="302" y="452" on="1"/>
        <pt x="274" y="424" on="0"/>
        <pt x="231" y="424" on="1"/>
        <pt x="220" y="424" on="0"/>
        <pt x="214" y="425" on="1"/>
        <pt x="214" y="620" on="1"/>
        <pt x="226" y="622" on="0"/>
        <pt x="231" y="622" on="1"/>
        <pt x="273" y="622" on="0"/>
        <pt x="302" y="593" on="1"/>
        <pt x="330" y="565" on="0"/>
      </contour>
    </TTGlyph>
    <TTGlyph name="P.3" xMin="50" yMin="3" xMax="484" yMax="780">
      <component glyphName="P.0" x="-35" y="0" flags="0x4"/>
    </TTGlyph>
    <TTGlyph name="Q" xMin="50" yMin="-191" xMax="822" yMax="773">
      <contour>
        <pt x="661" y="378" on="1"/>
        <pt x="661" y="475" on="0"/>
        <pt x="527" y="612" on="0"/>
        <pt x="337" y="612" on="0"/>
        <pt x="203" y="475" on="0"/>
        <pt x="203" y="378" on="1"/>
        <pt x="203" y="280" on="0"/>
        <pt x="337" y="143" on="0"/>
        <pt x="527" y="143" on="0"/>
        <pt x="661" y="280" on="0"/>
      </contour>
      <contour>
        <pt x="814" y="380" on="1"/>
        <pt x="814" y="293" on="0"/>
        <pt x="746" y="140" on="0"/>
        <pt x="685" y="85" on="1"/>
        <pt x="822" y="-52" on="1"/>
        <pt x="684" y="-191" on="1"/>
        <pt x="501" y="-8" on="1"/>
        <pt x="467" y="-14" on="0"/>
        <pt x="432" y="-14" on="1"/>
        <pt x="274" y="-14" on="0"/>
        <pt x="50" y="217" on="0"/>
        <pt x="50" y="543" on="0"/>
        <pt x="274" y="773" on="0"/>
        <pt x="590" y="773" on="0"/>
        <pt x="814" y="543" on="0"/>
      </contour>
    </TTGlyph>
    <TTGlyph name="Q.0" xMin="85" yMin="-191" xMax="857" yMax="773">
      <contour>
        <pt x="696" y="378" on="1"/>
        <pt x="696" y="280" on="0"/>
        <pt x="629" y="212" on="1"/>
        <pt x="562" y="143" on="0"/>
        <pt x="467" y="143" on="1"/>
        <pt x="372" y="143" on="0"/>
        <pt x="305" y="212" on="1"/>
        <pt x="238" y="280" on="0"/>
        <pt x="238" y="378" on="1"/>
        <pt x="238" y="475" on="0"/>
        <pt x="305" y="544" on="1"/>
        <pt x="372" y="612" on="0"/>
        <pt x="467" y="612" on="1"/>
        <pt x="562" y="612" on="0"/>
        <pt x="629" y="544" on="1"/>
        <pt x="696" y="475" on="0"/>
      </contour>
      <contour>
        <pt x="849" y="380" on="1"/>
        <pt x="849" y="543" on="0"/>
        <pt x="737" y="658" on="1"/>
        <pt x="625" y="773" on="0"/>
        <pt x="467" y="773" on="1"/>
        <pt x="309" y="773" on="0"/>
        <pt x="197" y="658" on="1"/>
        <pt x="85" y="543" on="0"/>
        <pt x="85" y="380" on="1"/>
        <pt x="85" y="217" on="0"/>
        <pt x="197" y="102" on="1"/>
        <pt x="309" y="-14" on="0"/>
        <pt x="467" y="-14" on="1"/>
        <pt x="502" y="-14" on="0"/>
        <pt x="536" y="-8" on="1"/>
        <pt x="719" y="-191" on="1"/>
        <pt x="857" y="-52" on="1"/>
        <pt x="720" y="85" on="1"/>
        <pt x="781" y="140" on="0"/>
        <pt x="815" y="217" on="1"/>
        <pt x="849" y="293" on="0"/>
      </contour>
    </TTGlyph>
    <TTGlyph name="Q.1" xMin="57" yMin="-38" xMax="883" yMax="155">
      <contour>
        <pt x="699" y="76" on="1"/>
        <pt x="681" y="56" on="0"/>
        <pt x="601" y="43" on="1"/>
        <pt x="520" y="29" on="0"/>
        <pt x="425" y="29" on="1"/>
        <pt x="330" y="29" on="0"/>
        <pt x="277" y="43" on="1"/>
        <pt x="223" y="56" on="0"/>
        <pt x="241" y="76" on="1"/>
        <pt x="259" y="95" on="0"/>
        <pt x="339" y="109" on="1"/>
        <pt x="419" y="122" on="0"/>
        <pt x="514" y="122" on="1"/>
        <pt x="609" y="122" on="0"/>
        <pt x="663" y="109" on="1"/>
        <pt x="717" y="95" on="0"/>
      </contour>
      <contour>
        <pt x="852" y="76" on="1"/>
        <pt x="883" y="109" on="0"/>
        <pt x="793" y="132" on="1"/>
        <pt x="702" y="155" on="0"/>
        <pt x="544" y="155" on="1"/>
        <pt x="386" y="155" on="0"/>
        <pt x="253" y="132" on="1"/>
        <pt x="119" y="109" on="0"/>
        <pt x="88" y="76" on="1"/>
        <pt x="57" y="43" on="0"/>
        <pt x="147" y="20" on="1"/>
        <pt x="237" y="-3" on="0"/>
        <pt x="395" y="-3" on="1"/>
        <pt x="430" y="-3" on="0"/>
        <pt x="465" y="-2" on="1"/>
        <pt x="614" y="-38" on="1"/>
        <pt x="778" y="-10" on="1"/>
        <pt x="667" y="17" on="1"/>
        <pt x="738" y="28" on="0"/>
        <pt x="787" y="44" on="1"/>
        <pt x="836" y="59" on="0"/>
      </contour>
    </TTGlyph>
    <TTGlyph name="Q.2" xMin="48" yMin="-198" xMax="834" yMax="780">
      <contour>
        <pt x="674" y="378" on="1"/>
        <pt x="674" y="477" on="0"/>
        <pt x="604" y="549" on="1"/>
        <pt x="535" y="620" on="0"/>
        <pt x="437" y="620" on="1"/>
        <pt x="339" y="620" on="0"/>
        <pt x="270" y="549" on="1"/>
        <pt x="200" y="477" on="0"/>
        <pt x="200" y="378" on="1"/>
        <pt x="200" y="278" on="0"/>
        <pt x="270" y="206" on="1"/>
        <pt x="339" y="136" on="0"/>
        <pt x="437" y="136" on="1"/>
        <pt x="535" y="136" on="0"/>
        <pt x="604" y="206" on="1"/>
        <pt x="674" y="278" on="0"/>
      </contour>
      <contour>
        <pt x="658" y="378" on="1"/>
        <pt x="658" y="282" on="0"/>
        <pt x="594" y="217" on="1"/>
        <pt x="529" y="150" on="0"/>
        <pt x="437" y="150" on="1"/>
        <pt x="345" y="150" on="0"/>
        <pt x="280" y="217" on="1"/>
        <pt x="216" y="282" on="0"/>
        <pt x="216" y="378" on="1"/>
        <pt x="216" y="473" on="0"/>
        <pt x="280" y="538" on="1"/>
        <pt x="344" y="604" on="0"/>
        <pt x="437" y="604" on="1"/>
        <pt x="530" y="604" on="0"/>
        <pt x="594" y="538" on="1"/>
        <pt x="658" y="473" on="0"/>
      </contour>
      <contour>
        <pt x="826" y="380" on="1"/>
        <pt x="826" y="546" on="0"/>
        <pt x="712" y="663" on="1"/>
        <pt x="598" y="780" on="0"/>
        <pt x="437" y="780" on="1"/>
        <pt x="276" y="780" on="0"/>
        <pt x="162" y="663" on="1"/>
        <pt x="48" y="546" on="0"/>
        <pt x="48" y="380" on="1"/>
        <pt x="48" y="213" on="0"/>
        <pt x="162" y="96" on="1"/>
        <pt x="277" y="-22" on="0"/>
        <pt x="437" y="-22" on="1"/>
        <pt x="470" y="-22" on="0"/>
        <pt x="503" y="-16" on="1"/>
        <pt x="684" y="-196" on="1"/>
        <pt x="686" y="-198" on="0"/>
        <pt x="689" y="-198" on="1"/>
        <pt x="692" y="-198" on="0"/>
        <pt x="694" y="-196" on="1"/>
        <pt x="832" y="-57" on="1"/>
        <pt x="834" y="-55" on="0"/>
        <pt x="834" y="-52" on="1"/>
        <pt x="834" y="-49" on="0"/>
        <pt x="832" y="-47" on="1"/>
        <pt x="701" y="85" on="1"/>
        <pt x="826" y="203" on="0"/>
      </contour>
      <contour>
        <pt x="812" y="380" on="1"/>
        <pt x="812" y="205" on="0"/>
        <pt x="685" y="91" on="1"/>
        <pt x="682" y="90" on="0"/>
        <pt x="682" y="85" on="1"/>
        <pt x="682" y="83" on="0"/>
        <pt x="685" y="80" on="1"/>
        <pt x="816" y="-52" on="1"/>
        <pt x="689" y="-180" on="1"/>
        <pt x="511" y="-3" on="1"/>
        <pt x="508" y="0" on="0"/>
        <pt x="506" y="0" on="1"/>
        <pt x="505" y="-1" on="1"/>
        <pt x="478" y="-6" on="0"/>
        <pt x="437" y="-6" on="1"/>
        <pt x="281" y="-6" on="0"/>
        <pt x="172" y="107" on="1"/>
        <pt x="62" y="222" on="0"/>
        <pt x="62" y="380" on="1"/>
        <pt x="62" y="540" on="0"/>
        <pt x="172" y="653" on="1"/>
        <pt x="282" y="766" on="0"/>
        <pt x="437" y="766" on="1"/>
        <pt x="592" y="766" on="0"/>
        <pt x="702" y="653" on="1"/>
        <pt x="812" y="540" on="0"/>
      </contour>
    </TTGlyph>
    <TTGlyph name="Q.3" xMin="50" yMin="-191" xMax="822" yMax="773">
      <component glyphName="Q.0" x="-35" y="0" flags="0x4"/>
    </TTGlyph>
    <TTGlyph name="R" xMin="50" yMin="-3" xMax="512" yMax="780">
      <contour>
        <pt x="202" y="626" on="1"/>
        <pt x="202" y="419" on="1"/>
        <pt x="214" y="416" on="0"/>
        <pt x="226" y="416" on="1"/>
        <pt x="271" y="416" on="0"/>
        <pt x="333" y="478" on="0"/>
        <pt x="333" y="523" on="1"/>
        <pt x="333" y="567" on="0"/>
        <pt x="271" y="629" on="0"/>
        <pt x="226" y="629" on="1"/>
        <pt x="214" y="629" on="0"/>
      </contour>
      <contour>
        <pt x="202" y="3" on="1"/>
        <pt x="50" y="3" on="1"/>
        <pt x="50" y="779" on="1"/>
        <pt x="202" y="779" on="1"/>
        <pt x="210" y="780" on="0"/>
        <pt x="226" y="780" on="1"/>
        <pt x="333" y="780" on="0"/>
        <pt x="484" y="630" on="0"/>
        <pt x="484" y="523" on="1"/>
        <pt x="484" y="440" on="0"/>
        <pt x="389" y="307" on="0"/>
        <pt x="313" y="280" on="1"/>
        <pt x="512" y="-3" on="1"/>
        <pt x="372" y="-3" on="1"/>
        <pt x="207" y="266" on="1"/>
        <pt x="204" y="266" on="0"/>
        <pt x="202" y="266" on="1"/>
      </contour>
    </TTGlyph>
    <TTGlyph name="R.0" xMin="85" yMin="-3" xMax="547" yMax="780">
      <contour>
        <pt x="237" y="626" on="1"/>
        <pt x="249" y="629" on="0"/>
        <pt x="261" y="629" on="1"/>
        <pt x="306" y="629" on="0"/>
        <pt x="337" y="598" on="1"/>
        <pt x="368" y="567" on="0"/>
        <pt x="368" y="523" on="1"/>
        <pt x="368" y="478" on="0"/>
        <pt x="337" y="447" on="1"/>
        <pt x="306" y="416" on="0"/>
        <pt x="261" y="416" on="1"/>
        <pt x="249" y="416" on="0"/>
        <pt x="237" y="419" on="1"/>
      </contour>
      <contour>
        <pt x="237" y="3" on="1"/>
        <pt x="237" y="266" on="1"/>
        <pt x="239" y="266" on="0"/>
        <pt x="242" y="266" on="1"/>
        <pt x="407" y="-3" on="1"/>
        <pt x="547" y="-3" on="1"/>
        <pt x="348" y="280" on="1"/>
        <pt x="424" y="307" on="0"/>
        <pt x="472" y="374" on="1"/>
        <pt x="519" y="440" on="0"/>
        <pt x="519" y="523" on="1"/>
        <pt x="519" y="630" on="0"/>
        <pt x="444" y="705" on="1"/>
        <pt x="368" y="780" on="0"/>
        <pt x="261" y="780" on="1"/>
        <pt x="245" y="780" on="0"/>
        <pt x="237" y="779" on="1"/>
        <pt x="85" y="779" on="1"/>
        <pt x="85" y="3" on="1"/>
      </contour>
    </TTGlyph>
    <TTGlyph name="R.1" xMin="6" yMin="-1" xMax="558" yMax="156">
      <contour>
        <pt x="275" y="125" on="1"/>
        <pt x="288" y="126" on="0"/>
        <pt x="300" y="126" on="1"/>
        <pt x="345" y="126" on="0"/>
        <pt x="370" y="120" on="1"/>
        <pt x="395" y="114" on="0"/>
        <pt x="387" y="105" on="1"/>
        <pt x="379" y="96" on="0"/>
        <pt x="342" y="90" on="1"/>
        <pt x="304" y="83" on="0"/>
        <pt x="259" y="83" on="1"/>
        <pt x="248" y="83" on="0"/>
        <pt x="237" y="84" on="1"/>
      </contour>
      <contour>
        <pt x="158" y="1" on="1"/>
        <pt x="207" y="53" on="1"/>
        <pt x="209" y="53" on="0"/>
        <pt x="212" y="53" on="1"/>
        <pt x="327" y="-1" on="1"/>
        <pt x="467" y="-1" on="1"/>
        <pt x="322" y="56" on="1"/>
        <pt x="401" y="61" on="0"/>
        <pt x="462" y="75" on="1"/>
        <pt x="522" y="88" on="0"/>
        <pt x="538" y="105" on="1"/>
        <pt x="558" y="126" on="0"/>
        <pt x="497" y="141" on="1"/>
        <pt x="435" y="156" on="0"/>
        <pt x="328" y="156" on="1"/>
        <pt x="312" y="156" on="0"/>
        <pt x="304" y="156" on="1"/>
        <pt x="152" y="156" on="1"/>
        <pt x="6" y="1" on="1"/>
      </contour>
    </TTGlyph>
    <TTGlyph name="R.2" xMin="48" yMin="-10" xMax="524" yMax="788">
      <contour>
        <pt x="231" y="636" on="1"/>
        <pt x="218" y="636" on="0"/>
        <pt x="205" y="633" on="1"/>
        <pt x="200" y="631" on="0"/>
        <pt x="200" y="626" on="1"/>
        <pt x="200" y="419" on="1"/>
        <pt x="200" y="414" on="0"/>
        <pt x="205" y="412" on="1"/>
        <pt x="223" y="408" on="0"/>
        <pt x="231" y="408" on="1"/>
        <pt x="278" y="408" on="0"/>
        <pt x="312" y="442" on="1"/>
        <pt x="346" y="476" on="0"/>
        <pt x="346" y="523" on="1"/>
        <pt x="346" y="569" on="0"/>
        <pt x="312" y="603" on="1"/>
        <pt x="279" y="636" on="0"/>
      </contour>
      <contour>
        <pt x="330" y="523" on="1"/>
        <pt x="330" y="480" on="0"/>
        <pt x="302" y="452" on="1"/>
        <pt x="274" y="424" on="0"/>
        <pt x="231" y="424" on="1"/>
        <pt x="220" y="424" on="0"/>
        <pt x="214" y="425" on="1"/>
        <pt x="214" y="620" on="1"/>
        <pt x="226" y="622" on="0"/>
        <pt x="231" y="622" on="1"/>
        <pt x="273" y="622" on="0"/>
        <pt x="302" y="593" on="1"/>
        <pt x="330" y="565" on="0"/>
      </contour>
      <contour>
        <pt x="207" y="-4" on="1"/>
        <pt x="214" y="-4" on="0"/>
        <pt x="214" y="3" on="1"/>
        <pt x="214" y="248" on="1"/>
        <pt x="371" y="-7" on="1"/>
        <pt x="372" y="-10" on="0"/>
        <pt x="377" y="-10" on="1"/>
        <pt x="517" y="-10" on="1"/>
        <pt x="524" y="-10" on="0"/>
        <pt x="524" y="-3" on="1"/>
        <pt x="524" y="0" on="0"/>
        <pt x="523" y="1" on="1"/>
        <pt x="330" y="276" on="1"/>
        <pt x="401" y="304" on="0"/>
        <pt x="448" y="369" on="1"/>
        <pt x="496" y="436" on="0"/>
        <pt x="496" y="523" on="1"/>
        <pt x="496" y="634" on="0"/>
        <pt x="419" y="710" on="1"/>
        <pt x="339" y="788" on="0"/>
        <pt x="231" y="788" on="1"/>
        <pt x="219" y="788" on="0"/>
        <pt x="207" y="786" on="1"/>
        <pt x="55" y="786" on="1"/>
        <pt x="48" y="786" on="0"/>
        <pt x="48" y="779" on="1"/>
        <pt x="48" y="3" on="1"/>
        <pt x="48" y="-4" on="0"/>
        <pt x="55" y="-4" on="1"/>
      </contour>
      <contour>
        <pt x="62" y="10" on="1"/>
        <pt x="62" y="772" on="1"/>
        <pt x="207" y="772" on="1"/>
        <pt x="208" y="772" on="1"/>
        <pt x="231" y="772" on="1"/>
        <pt x="336" y="772" on="0"/>
        <pt x="408" y="700" on="1"/>
        <pt x="482" y="626" on="0"/>
        <pt x="482" y="523" on="1"/>
        <pt x="482" y="443" on="0"/>
        <pt x="435" y="378" on="1"/>
        <pt x="389" y="314" on="0"/>
        <pt x="315" y="287" on="1"/>
        <pt x="310" y="285" on="0"/>
        <pt x="310" y="280" on="1"/>
        <pt x="310" y="278" on="0"/>
        <pt x="312" y="276" on="1"/>
        <pt x="503" y="4" on="1"/>
        <pt x="381" y="4" on="1"/>
        <pt x="218" y="270" on="1"/>
        <pt x="216" y="274" on="0"/>
        <pt x="212" y="274" on="1"/>
        <pt x="207" y="274" on="1"/>
        <pt x="200" y="274" on="0"/>
        <pt x="200" y="266" on="1"/>
        <pt x="200" y="10" on="1"/>
      </contour>
    </TTGlyph>
    <TTGlyph name="R.3" xMin="50" yMin="-3" xMax="512" yMax="780">
      <component glyphName="R.0" x="-35" y="0" flags="0x4"/>
    </TTGlyph>
    <TTGlyph name="S" xMin="55" yMin="-9" xMax="474" yMax="777">
      <contour>
        <pt x="55" y="57" on="1"/>
        <pt x="130" y="182" on="1"/>
        <pt x="142" y="172" on="0"/>
        <pt x="152" y="167" on="1"/>
        <pt x="190" y="145" on="0"/>
        <pt x="274" y="166" on="0"/>
        <pt x="297" y="202" on="1"/>
        <pt x="319" y="241" on="0"/>
        <pt x="270" y="308" on="0"/>
        <pt x="227" y="315" on="1"/>
        <pt x="160" y="351" on="0"/>
        <pt x="79" y="445" on="0"/>
        <pt x="58" y="570" on="0"/>
        <pt x="101" y="639" on="1"/>
        <pt x="153" y="726" on="0"/>
        <pt x="359" y="777" on="0"/>
        <pt x="453" y="727" on="1"/>
        <pt x="456" y="724" on="0"/>
        <pt x="471" y="715" on="0"/>
        <pt x="474" y="712" on="1"/>
        <pt x="399" y="587" on="1"/>
        <pt x="387" y="597" on="0"/>
        <pt x="377" y="602" on="1"/>
        <pt x="339" y="623" on="0"/>
        <pt x="254" y="602" on="0"/>
        <pt x="232" y="565" on="1"/>
        <pt x="207" y="524" on="0"/>
        <pt x="248" y="426" on="0"/>
        <pt x="296" y="418" on="1"/>
        <pt x="345" y="392" on="0"/>
        <pt x="412" y="339" on="0"/>
        <pt x="461" y="268" on="0"/>
        <pt x="458" y="180" on="0"/>
        <pt x="427" y="130" on="1"/>
        <pt x="375" y="42" on="0"/>
        <pt x="170" y="-9" on="0"/>
        <pt x="76" y="42" on="1"/>
        <pt x="73" y="45" on="0"/>
        <pt x="58" y="54" on="0"/>
      </contour>
    </TTGlyph>
    <TTGlyph name="S.0" xMin="90" yMin="-9" xMax="509" yMax="777">
      <contour>
        <pt x="90" y="57" on="1"/>
        <pt x="93" y="54" on="0"/>
        <pt x="101" y="50" on="1"/>
        <pt x="108" y="45" on="0"/>
        <pt x="111" y="42" on="1"/>
        <pt x="205" y="-9" on="0"/>
        <pt x="308" y="17" on="1"/>
        <pt x="410" y="42" on="0"/>
        <pt x="462" y="130" on="1"/>
        <pt x="493" y="180" on="0"/>
        <pt x="495" y="224" on="1"/>
        <pt x="496" y="268" on="0"/>
        <pt x="472" y="304" on="1"/>
        <pt x="447" y="339" on="0"/>
        <pt x="414" y="366" on="1"/>
        <pt x="380" y="392" on="0"/>
        <pt x="331" y="418" on="1"/>
        <pt x="283" y="426" on="0"/>
        <pt x="263" y="475" on="1"/>
        <pt x="242" y="524" on="0"/>
        <pt x="267" y="565" on="1"/>
        <pt x="289" y="602" on="0"/>
        <pt x="332" y="613" on="1"/>
        <pt x="374" y="623" on="0"/>
        <pt x="412" y="602" on="1"/>
        <pt x="422" y="597" on="0"/>
        <pt x="434" y="587" on="1"/>
        <pt x="509" y="712" on="1"/>
        <pt x="506" y="715" on="0"/>
        <pt x="499" y="720" on="1"/>
        <pt x="491" y="724" on="0"/>
        <pt x="488" y="727" on="1"/>
        <pt x="394" y="777" on="0"/>
        <pt x="291" y="752" on="1"/>
        <pt x="188" y="726" on="0"/>
        <pt x="136" y="639" on="1"/>
        <pt x="93" y="570" on="0"/>
        <pt x="104" y="508" on="1"/>
        <pt x="114" y="445" on="0"/>
        <pt x="155" y="398" on="1"/>
        <pt x="195" y="351" on="0"/>
        <pt x="262" y="315" on="1"/>
        <pt x="305" y="308" on="0"/>
        <pt x="330" y="275" on="1"/>
        <pt x="354" y="241" on="0"/>
        <pt x="332" y="202" on="1"/>
        <pt x="309" y="166" on="0"/>
        <pt x="267" y="156" on="1"/>
        <pt x="225" y="145" on="0"/>
        <pt x="187" y="167" on="1"/>
        <pt x="177" y="172" on="0"/>
        <pt x="165" y="182" on="1"/>
      </contour>
    </TTGlyph>
    <TTGlyph name="S.1" xMin="21" yMin="-2" xMax="564" yMax="155">
      <contour>
        <pt x="21" y="11" on="1"/>
        <pt x="24" y="10" on="0"/>
        <pt x="31" y="10" on="1"/>
        <pt x="37" y="9" on="0"/>
        <pt x="39" y="8" on="1"/>
        <pt x="124" y="-2" on="0"/>
        <pt x="231" y="3" on="1"/>
        <pt x="338" y="8" on="0"/>
        <pt x="407" y="26" on="1"/>
        <pt x="448" y="36" on="0"/>
        <pt x="458" y="45" on="1"/>
        <pt x="468" y="54" on="0"/>
        <pt x="450" y="61" on="1"/>
        <pt x="432" y="68" on="0"/>
        <pt x="403" y="74" on="1"/>
        <pt x="374" y="79" on="0"/>
        <pt x="330" y="84" on="1"/>
        <pt x="284" y="85" on="0"/>
        <pt x="273" y="95" on="1"/>
        <pt x="261" y="105" on="0"/>
        <pt x="294" y="113" on="1"/>
        <pt x="323" y="120" on="0"/>
        <pt x="368" y="122" on="1"/>
        <pt x="412" y="124" on="0"/>
        <pt x="446" y="120" on="1"/>
        <pt x="456" y="119" on="0"/>
        <pt x="465" y="117" on="1"/>
        <pt x="564" y="142" on="1"/>
        <pt x="561" y="143" on="0"/>
        <pt x="555" y="144" on="1"/>
        <pt x="548" y="144" on="0"/>
        <pt x="546" y="145" on="1"/>
        <pt x="461" y="155" on="0"/>
        <pt x="354" y="150" on="1"/>
        <pt x="246" y="145" on="0"/>
        <pt x="178" y="128" on="1"/>
        <pt x="121" y="114" on="0"/>
        <pt x="120" y="102" on="1"/>
        <pt x="118" y="89" on="0"/>
        <pt x="150" y="80" on="1"/>
        <pt x="182" y="70" on="0"/>
        <pt x="242" y="63" on="1"/>
        <pt x="284" y="62" on="0"/>
        <pt x="303" y="55" on="1"/>
        <pt x="321" y="48" on="0"/>
        <pt x="291" y="40" on="1"/>
        <pt x="261" y="33" on="0"/>
        <pt x="217" y="31" on="1"/>
        <pt x="173" y="29" on="0"/>
        <pt x="139" y="33" on="1"/>
        <pt x="129" y="34" on="0"/>
        <pt x="120" y="36" on="1"/>
      </contour>
    </TTGlyph>
    <TTGlyph name="S.2" xMin="52" yMin="0" xMax="486" yMax="768">
      <contour>
        <pt x="135" y="190" on="1"/>
        <pt x="131" y="190" on="0"/>
        <pt x="129" y="186" on="1"/>
        <pt x="54" y="61" on="1"/>
        <pt x="52" y="59" on="0"/>
        <pt x="52" y="57" on="1"/>
        <pt x="52" y="55" on="0"/>
        <pt x="55" y="52" on="1"/>
        <pt x="60" y="48" on="0"/>
        <pt x="67" y="43" on="1"/>
        <pt x="74" y="38" on="0"/>
        <pt x="76" y="37" on="1"/>
        <pt x="76" y="36" on="0"/>
        <pt x="76" y="36" on="1"/>
        <pt x="76" y="35" on="0"/>
        <pt x="77" y="35" on="1"/>
        <pt x="142" y="0" on="0"/>
        <pt x="210" y="0" on="1"/>
        <pt x="244" y="0" on="0"/>
        <pt x="279" y="9" on="1"/>
        <pt x="383" y="34" on="0"/>
        <pt x="438" y="126" on="1"/>
        <pt x="471" y="179" on="0"/>
        <pt x="472" y="224" on="1"/>
        <pt x="472" y="229" on="0"/>
        <pt x="472" y="229" on="1"/>
        <pt x="472" y="272" on="0"/>
        <pt x="448" y="308" on="1"/>
        <pt x="422" y="344" on="0"/>
        <pt x="388" y="371" on="1"/>
        <pt x="346" y="404" on="0"/>
        <pt x="305" y="425" on="1"/>
        <pt x="302" y="425" on="0"/>
        <pt x="302" y="425" on="1"/>
        <pt x="258" y="433" on="0"/>
        <pt x="239" y="478" on="1"/>
        <pt x="231" y="497" on="0"/>
        <pt x="231" y="518" on="1"/>
        <pt x="231" y="542" on="0"/>
        <pt x="243" y="561" on="1"/>
        <pt x="264" y="595" on="0"/>
        <pt x="303" y="605" on="1"/>
        <pt x="316" y="608" on="0"/>
        <pt x="329" y="608" on="1"/>
        <pt x="367" y="608" on="0"/>
        <pt x="399" y="581" on="1"/>
        <pt x="400" y="580" on="0"/>
        <pt x="404" y="580" on="1"/>
        <pt x="408" y="580" on="0"/>
        <pt x="410" y="583" on="1"/>
        <pt x="485" y="708" on="1"/>
        <pt x="486" y="709" on="0"/>
        <pt x="486" y="712" on="1"/>
        <pt x="486" y="715" on="0"/>
        <pt x="484" y="717" on="1"/>
        <pt x="480" y="722" on="0"/>
        <pt x="472" y="726" on="1"/>
        <pt x="464" y="730" on="0"/>
        <pt x="463" y="732" on="1"/>
        <pt x="462" y="732" on="0"/>
        <pt x="462" y="733" on="1"/>
        <pt x="462" y="734" on="0"/>
        <pt x="462" y="734" on="1"/>
        <pt x="400" y="768" on="0"/>
        <pt x="330" y="768" on="1"/>
        <pt x="295" y="768" on="0"/>
        <pt x="259" y="759" on="1"/>
        <pt x="154" y="734" on="0"/>
        <pt x="100" y="643" on="1"/>
        <pt x="64" y="586" on="0"/>
        <pt x="64" y="532" on="1"/>
        <pt x="64" y="524" on="0"/>
        <pt x="66" y="506" on="1"/>
        <pt x="76" y="442" on="0"/>
        <pt x="119" y="393" on="1"/>
        <pt x="163" y="343" on="0"/>
        <pt x="228" y="308" on="1"/>
        <pt x="231" y="308" on="0"/>
        <pt x="231" y="308" on="1"/>
        <pt x="270" y="302" on="0"/>
        <pt x="293" y="270" on="1"/>
        <pt x="305" y="254" on="0"/>
        <pt x="305" y="238" on="1"/>
        <pt x="305" y="223" on="0"/>
        <pt x="296" y="206" on="1"/>
        <pt x="276" y="174" on="0"/>
        <pt x="235" y="163" on="1"/>
        <pt x="223" y="160" on="0"/>
        <pt x="210" y="160" on="1"/>
        <pt x="174" y="160" on="0"/>
        <pt x="140" y="188" on="1"/>
        <pt x="138" y="190" on="0"/>
      </contour>
      <contour>
        <pt x="457" y="229" on="1"/>
        <pt x="457" y="224" on="0"/>
        <pt x="457" y="224" on="1"/>
        <pt x="456" y="183" on="0"/>
        <pt x="426" y="134" on="1"/>
        <pt x="375" y="49" on="0"/>
        <pt x="276" y="24" on="1"/>
        <pt x="247" y="16" on="0"/>
        <pt x="210" y="16" on="1"/>
        <pt x="145" y="16" on="0"/>
        <pt x="85" y="48" on="1"/>
        <pt x="80" y="53" on="0"/>
        <pt x="70" y="59" on="1"/>
        <pt x="137" y="171" on="1"/>
        <pt x="139" y="170" on="0"/>
        <pt x="145" y="166" on="1"/>
        <pt x="150" y="162" on="0"/>
        <pt x="153" y="160" on="1"/>
        <pt x="180" y="145" on="0"/>
        <pt x="210" y="145" on="1"/>
        <pt x="224" y="145" on="0"/>
        <pt x="239" y="148" on="1"/>
        <pt x="284" y="158" on="0"/>
        <pt x="308" y="198" on="1"/>
        <pt x="309" y="198" on="1"/>
        <pt x="320" y="218" on="0"/>
        <pt x="320" y="238" on="1"/>
        <pt x="320" y="259" on="0"/>
        <pt x="306" y="279" on="1"/>
        <pt x="281" y="314" on="0"/>
        <pt x="234" y="322" on="1"/>
        <pt x="170" y="357" on="0"/>
        <pt x="130" y="403" on="1"/>
        <pt x="92" y="447" on="0"/>
        <pt x="81" y="509" on="1"/>
        <pt x="79" y="525" on="0"/>
        <pt x="79" y="532" on="1"/>
        <pt x="79" y="583" on="0"/>
        <pt x="112" y="635" on="1"/>
        <pt x="163" y="719" on="0"/>
        <pt x="263" y="744" on="1"/>
        <pt x="298" y="753" on="0"/>
        <pt x="330" y="753" on="1"/>
        <pt x="393" y="753" on="0"/>
        <pt x="454" y="721" on="1"/>
        <pt x="459" y="716" on="0"/>
        <pt x="469" y="710" on="1"/>
        <pt x="402" y="598" on="1"/>
        <pt x="390" y="606" on="0"/>
        <pt x="385" y="609" on="1"/>
        <pt x="358" y="624" on="0"/>
        <pt x="329" y="624" on="1"/>
        <pt x="320" y="624" on="0"/>
        <pt x="300" y="620" on="1"/>
        <pt x="256" y="610" on="0"/>
        <pt x="231" y="569" on="1"/>
        <pt x="216" y="545" on="0"/>
        <pt x="216" y="518" on="1"/>
        <pt x="216" y="497" on="0"/>
        <pt x="226" y="472" on="1"/>
        <pt x="247" y="420" on="0"/>
        <pt x="299" y="411" on="1"/>
        <pt x="344" y="387" on="0"/>
        <pt x="379" y="360" on="1"/>
        <pt x="408" y="337" on="0"/>
        <pt x="435" y="299" on="1"/>
        <pt x="457" y="268" on="0"/>
      </contour>
    </TTGlyph>
    <TTGlyph name="S.3" xMin="55" yMin="-9" xMax="474" yMax="777">
      <component glyphName="S.0" x="-35" y="0" flags="0x4"/>
    </TTGlyph>
    <TTGlyph name="T" xMin="53" yMin="-2" xMax="629" yMax="766">
      <contour>
        <pt x="53" y="614" on="1"/>
        <pt x="53" y="766" on="1"/>
        <pt x="629" y="766" on="1"/>
        <pt x="629" y="614" on="1"/>
        <pt x="417" y="614" on="1"/>
        <pt x="417" y="-2" on="1"/>
        <pt x="265" y="-2" on="1"/>
        <pt x="265" y="614" on="1"/>
      </contour>
    </TTGlyph>
    <TTGlyph name="T.0" xMin="88" yMin="-2" xMax="664" yMax="766">
      <contour>
        <pt x="88" y="614" on="1"/>
        <pt x="300" y="614" on="1"/>
        <pt x="300" y="-2" on="1"/>
        <pt x="452" y="-2" on="1"/>
        <pt x="452" y="614" on="1"/>
        <pt x="664" y="614" on="1"/>
        <pt x="664" y="766" on="1"/>
        <pt x="88" y="766" on="1"/>
      </contour>
    </TTGlyph>
    <TTGlyph name="T.1" xMin="125" yMin="0" xMax="729" yMax="153">
      <contour>
        <pt x="365" y="153" on="1"/>
        <pt x="221" y="0" on="1"/>
        <pt x="373" y="0" on="1"/>
        <pt x="517" y="153" on="1"/>
      </contour>
      <contour>
        <pt x="125" y="123" on="1"/>
        <pt x="701" y="123" on="1"/>
        <pt x="729" y="153" on="1"/>
        <pt x="153" y="153" on="1"/>
      </contour>
    </TTGlyph>
    <TTGlyph name="T.2" xMin="53" yMin="-2" xMax="629" yMax="766">
      <contour>
        <pt x="265" y="766" on="1"/>
        <pt x="265" y="-2" on="1"/>
        <pt x="417" y="-2" on="1"/>
        <pt x="417" y="766" on="1"/>
      </contour>
      <contour>
        <pt x="53" y="614" on="1"/>
        <pt x="629" y="614" on="1"/>
        <pt x="629" y="766" on="1"/>
        <pt x="53" y="766" on="1"/>
      </contour>
    </TTGlyph>
    <TTGlyph name="T.3" xMin="46" yMin="-10" xMax="636" yMax="774">
      <contour>
        <pt x="60" y="758" on="1"/>
        <pt x="622" y="758" on="1"/>
        <pt x="622" y="622" on="1"/>
        <pt x="417" y="622" on="1"/>
        <pt x="410" y="622" on="0"/>
        <pt x="410" y="614" on="1"/>
        <pt x="410" y="6" on="1"/>
        <pt x="272" y="6" on="1"/>
        <pt x="272" y="614" on="1"/>
        <pt x="272" y="622" on="0"/>
        <pt x="265" y="622" on="1"/>
        <pt x="60" y="622" on="1"/>
      </contour>
      <contour>
        <pt x="46" y="614" on="1"/>
        <pt x="46" y="606" on="0"/>
        <pt x="53" y="606" on="1"/>
        <pt x="258" y="606" on="1"/>
        <pt x="258" y="-2" on="1"/>
        <pt x="258" y="-10" on="0"/>
        <pt x="265" y="-10" on="1"/>
        <pt x="417" y="-10" on="1"/>
        <pt x="424" y="-10" on="0"/>
        <pt x="424" y="-2" on="1"/>
        <pt x="424" y="606" on="1"/>
        <pt x="629" y="606" on="1"/>
        <pt x="636" y="606" on="0"/>
        <pt x="636" y="614" on="1"/>
        <pt x="636" y="766" on="1"/>
        <pt x="636" y="774" on="0"/>
        <pt x="629" y="774" on="1"/>
        <pt x="53" y="774" on="1"/>
        <pt x="46" y="774" on="0"/>
        <pt x="46" y="766" on="1"/>
      </contour>
    </TTGlyph>
    <TTGlyph name="U" xMin="50" yMin="3" xMax="619" yMax="761">
      <contour>
        <pt x="616" y="184" on="1"/>
        <pt x="600" y="126" on="0"/>
        <pt x="511" y="43" on="0"/>
        <pt x="399" y="4" on="0"/>
        <pt x="271" y="3" on="0"/>
        <pt x="158" y="41" on="0"/>
        <pt x="70" y="125" on="0"/>
        <pt x="53" y="184" on="1"/>
        <pt x="50" y="761" on="1"/>
        <pt x="217" y="761" on="1"/>
        <pt x="217" y="185" on="1"/>
        <pt x="246" y="152" on="0"/>
        <pt x="424" y="151" on="0"/>
        <pt x="452" y="185" on="1"/>
        <pt x="452" y="761" on="1"/>
        <pt x="619" y="761" on="1"/>
      </contour>
    </TTGlyph>
    <TTGlyph name="U.0" xMin="85" yMin="3" xMax="654" yMax="761">
      <contour>
        <pt x="651" y="184" on="1"/>
        <pt x="654" y="761" on="1"/>
        <pt x="487" y="761" on="1"/>
        <pt x="487" y="185" on="1"/>
        <pt x="459" y="151" on="0"/>
        <pt x="370" y="152" on="1"/>
        <pt x="281" y="152" on="0"/>
        <pt x="252" y="185" on="1"/>
        <pt x="252" y="761" on="1"/>
        <pt x="85" y="761" on="1"/>
        <pt x="88" y="184" on="1"/>
        <pt x="105" y="125" on="0"/>
        <pt x="149" y="83" on="1"/>
        <pt x="193" y="41" on="0"/>
        <pt x="250" y="22" on="1"/>
        <pt x="306" y="3" on="0"/>
        <pt x="370" y="4" on="1"/>
        <pt x="434" y="4" on="0"/>
        <pt x="490" y="24" on="1"/>
        <pt x="546" y="43" on="0"/>
        <pt x="591" y="85" on="1"/>
        <pt x="635" y="126" on="0"/>
      </contour>
    </TTGlyph>
    <TTGlyph name="U.1" xMin="43" yMin="1" xMax="718" yMax="152">
      <contour>
        <pt x="606" y="37" on="1"/>
        <pt x="718" y="152" on="1"/>
        <pt x="551" y="152" on="1"/>
        <pt x="442" y="37" on="1"/>
        <pt x="408" y="30" on="0"/>
        <pt x="319" y="30" on="1"/>
        <pt x="230" y="30" on="0"/>
        <pt x="207" y="37" on="1"/>
        <pt x="316" y="152" on="1"/>
        <pt x="149" y="152" on="1"/>
        <pt x="43" y="37" on="1"/>
        <pt x="49" y="25" on="0"/>
        <pt x="85" y="17" on="1"/>
        <pt x="121" y="8" on="0"/>
        <pt x="174" y="5" on="1"/>
        <pt x="227" y="1" on="0"/>
        <pt x="291" y="1" on="1"/>
        <pt x="355" y="1" on="0"/>
        <pt x="415" y="5" on="1"/>
        <pt x="475" y="9" on="0"/>
        <pt x="527" y="17" on="1"/>
        <pt x="579" y="25" on="0"/>
      </contour>
    </TTGlyph>
    <TTGlyph name="U.2" xMin="48" yMin="-4" xMax="631" yMax="768">
      <contour>
        <pt x="230" y="188" on="1"/>
        <pt x="230" y="761" on="1"/>
        <pt x="230" y="768" on="0"/>
        <pt x="222" y="768" on="1"/>
        <pt x="55" y="768" on="1"/>
        <pt x="48" y="768" on="0"/>
        <pt x="48" y="761" on="1"/>
        <pt x="51" y="184" on="1"/>
        <pt x="51" y="182" on="1"/>
        <pt x="69" y="122" on="0"/>
        <pt x="114" y="78" on="1"/>
        <pt x="159" y="34" on="0"/>
        <pt x="217" y="15" on="1"/>
        <pt x="273" y="-4" on="0"/>
        <pt x="337" y="-4" on="1"/>
        <pt x="406" y="-4" on="0"/>
        <pt x="462" y="16" on="1"/>
        <pt x="520" y="36" on="0"/>
        <pt x="566" y="79" on="1"/>
        <pt x="611" y="121" on="0"/>
        <pt x="628" y="182" on="1"/>
        <pt x="628" y="184" on="0"/>
        <pt x="628" y="184" on="1"/>
        <pt x="631" y="761" on="1"/>
        <pt x="631" y="768" on="0"/>
        <pt x="624" y="768" on="1"/>
        <pt x="457" y="768" on="1"/>
        <pt x="450" y="768" on="0"/>
        <pt x="450" y="761" on="1"/>
        <pt x="450" y="188" on="1"/>
        <pt x="423" y="159" on="0"/>
        <pt x="343" y="159" on="1"/>
        <pt x="259" y="159" on="0"/>
      </contour>
      <contour>
        <pt x="337" y="11" on="1"/>
        <pt x="276" y="11" on="0"/>
        <pt x="222" y="29" on="1"/>
        <pt x="169" y="46" on="0"/>
        <pt x="124" y="88" on="1"/>
        <pt x="81" y="129" on="0"/>
        <pt x="65" y="185" on="1"/>
        <pt x="63" y="754" on="1"/>
        <pt x="214" y="754" on="1"/>
        <pt x="214" y="185" on="1"/>
        <pt x="214" y="182" on="0"/>
        <pt x="216" y="180" on="1"/>
        <pt x="248" y="144" on="0"/>
        <pt x="343" y="144" on="1"/>
        <pt x="433" y="144" on="0"/>
        <pt x="463" y="180" on="1"/>
        <pt x="464" y="181" on="0"/>
        <pt x="464" y="185" on="1"/>
        <pt x="464" y="754" on="1"/>
        <pt x="616" y="754" on="1"/>
        <pt x="614" y="185" on="1"/>
        <pt x="600" y="133" on="0"/>
        <pt x="555" y="90" on="1"/>
        <pt x="513" y="51" on="0"/>
        <pt x="458" y="31" on="1"/>
        <pt x="401" y="11" on="0"/>
      </contour>
    </TTGlyph>
    <TTGlyph name="U.3" xMin="50" yMin="3" xMax="619" yMax="761">
      <component glyphName="U.0" x="-35" y="0" flags="0x4"/>
    </TTGlyph>
    <TTGlyph name="V" xMin="50" yMin="0" xMax="602" yMax="769">
      <contour>
        <pt x="50" y="769" on="1"/>
        <pt x="202" y="769" on="1"/>
        <pt x="326" y="292" on="1"/>
        <pt x="450" y="769" on="1"/>
        <pt x="602" y="769" on="1"/>
        <pt x="402" y="0" on="1"/>
        <pt x="250" y="0" on="1"/>
      </contour>
    </TTGlyph>
    <TTGlyph name="V.0" xMin="85" yMin="0" xMax="637" yMax="769">
      <contour>
        <pt x="85" y="769" on="1"/>
        <pt x="285" y="0" on="1"/>
        <pt x="437" y="0" on="1"/>
        <pt x="637" y="769" on="1"/>
        <pt x="485" y="769" on="1"/>
        <pt x="361" y="292" on="1"/>
        <pt x="237" y="769" on="1"/>
      </contour>
    </TTGlyph>
    <TTGlyph name="V.1" xMin="150" yMin="0" xMax="702" yMax="154">
      <contour>
        <pt x="150" y="154" on="1"/>
        <pt x="206" y="0" on="1"/>
        <pt x="358" y="0" on="1"/>
        <pt x="702" y="154" on="1"/>
        <pt x="550" y="154" on="1"/>
        <pt x="336" y="58" on="1"/>
        <pt x="302" y="154" on="1"/>
      </contour>
    </TTGlyph>
    <TTGlyph name="V.2" xMin="48" yMin="-8" xMax="614" yMax="776">
      <contour>
        <pt x="55" y="776" on="1"/>
        <pt x="48" y="776" on="0"/>
        <pt x="48" y="769" on="1"/>
        <pt x="48" y="767" on="0"/>
        <pt x="48" y="767" on="1"/>
        <pt x="248" y="-2" on="1"/>
        <pt x="250" y="-8" on="0"/>
        <pt x="255" y="-8" on="1"/>
        <pt x="407" y="-8" on="1"/>
        <pt x="412" y="-8" on="0"/>
        <pt x="414" y="-2" on="1"/>
        <pt x="614" y="767" on="1"/>
        <pt x="614" y="769" on="0"/>
        <pt x="614" y="769" on="1"/>
        <pt x="614" y="776" on="0"/>
        <pt x="607" y="776" on="1"/>
        <pt x="455" y="776" on="1"/>
        <pt x="450" y="776" on="0"/>
        <pt x="448" y="771" on="1"/>
        <pt x="331" y="322" on="1"/>
        <pt x="214" y="771" on="1"/>
        <pt x="212" y="776" on="0"/>
        <pt x="207" y="776" on="1"/>
      </contour>
      <contour>
        <pt x="324" y="290" on="1"/>
        <pt x="326" y="284" on="0"/>
        <pt x="331" y="284" on="1"/>
        <pt x="336" y="284" on="0"/>
        <pt x="338" y="290" on="1"/>
        <pt x="461" y="762" on="1"/>
        <pt x="597" y="762" on="1"/>
        <pt x="401" y="8" on="1"/>
        <pt x="261" y="8" on="1"/>
        <pt x="65" y="762" on="1"/>
        <pt x="201" y="762" on="1"/>
      </contour>
    </TTGlyph>
    <TTGlyph name="V.3" xMin="50" yMin="0" xMax="602" yMax="769">
      <component glyphName="V.0" x="-35" y="0" flags="0x4"/>
    </TTGlyph>
    <TTGlyph name="W" xMin="50" yMin="0" xMax="1003" yMax="769">
      <contour>
        <pt x="50" y="769" on="1"/>
        <pt x="202" y="769" on="1"/>
        <pt x="326" y="292" on="1"/>
        <pt x="450" y="769" on="1"/>
        <pt x="451" y="769" on="1"/>
        <pt x="602" y="769" on="1"/>
        <pt x="603" y="769" on="1"/>
        <pt x="727" y="292" on="1"/>
        <pt x="851" y="769" on="1"/>
        <pt x="1003" y="769" on="1"/>
        <pt x="803" y="0" on="1"/>
        <pt x="651" y="0" on="1"/>
        <pt x="526" y="479" on="1"/>
        <pt x="402" y="0" on="1"/>
        <pt x="250" y="0" on="1"/>
      </contour>
    </TTGlyph>
    <TTGlyph name="W.0" xMin="85" yMin="0" xMax="1038" yMax="769">
      <contour>
        <pt x="85" y="769" on="1"/>
        <pt x="285" y="0" on="1"/>
        <pt x="437" y="0" on="1"/>
        <pt x="562" y="479" on="1"/>
        <pt x="686" y="0" on="1"/>
        <pt x="838" y="0" on="1"/>
        <pt x="1038" y="769" on="1"/>
        <pt x="886" y="769" on="1"/>
        <pt x="762" y="292" on="1"/>
        <pt x="638" y="769" on="1"/>
        <pt x="637" y="769" on="1"/>
        <pt x="486" y="769" on="1"/>
        <pt x="485" y="769" on="1"/>
        <pt x="361" y="292" on="1"/>
        <pt x="237" y="769" on="1"/>
      </contour>
    </TTGlyph>
    <TTGlyph name="W.1" xMin="150" yMin="0" xMax="1103" yMax="154">
      <contour>
        <pt x="150" y="154" on="1"/>
        <pt x="206" y="0" on="1"/>
        <pt x="358" y="0" on="1"/>
        <pt x="702" y="154" on="1"/>
        <pt x="550" y="154" on="1"/>
        <pt x="336" y="58" on="1"/>
        <pt x="302" y="154" on="1"/>
      </contour>
      <contour>
        <pt x="551" y="154" on="1"/>
        <pt x="607" y="0" on="1"/>
        <pt x="759" y="0" on="1"/>
        <pt x="1103" y="154" on="1"/>
        <pt x="951" y="154" on="1"/>
        <pt x="737" y="58" on="1"/>
        <pt x="703" y="154" on="1"/>
      </contour>
    </TTGlyph>
    <TTGlyph name="W.2" xMin="50" yMin="0" xMax="1003" yMax="769">
      <contour>
        <pt x="50" y="769" on="1"/>
        <pt x="250" y="0" on="1"/>
        <pt x="402" y="0" on="1"/>
        <pt x="602" y="769" on="1"/>
        <pt x="450" y="769" on="1"/>
        <pt x="326" y="292" on="1"/>
        <pt x="202" y="769" on="1"/>
      </contour>
      <contour>
        <pt x="451" y="769" on="1"/>
        <pt x="651" y="0" on="1"/>
        <pt x="803" y="0" on="1"/>
        <pt x="1003" y="769" on="1"/>
        <pt x="851" y="769" on="1"/>
        <pt x="727" y="292" on="1"/>
        <pt x="603" y="769" on="1"/>
      </contour>
    </TTGlyph>
    <TTGlyph name="W.3" xMin="42" yMin="-8" xMax="1010" yMax="776">
      <contour>
        <pt x="526" y="486" on="1"/>
        <pt x="521" y="486" on="0"/>
        <pt x="519" y="481" on="1"/>
        <pt x="396" y="8" on="1"/>
        <pt x="256" y="8" on="1"/>
        <pt x="60" y="762" on="1"/>
        <pt x="196" y="762" on="1"/>
        <pt x="319" y="290" on="1"/>
        <pt x="321" y="285" on="0"/>
        <pt x="326" y="285" on="1"/>
        <pt x="331" y="285" on="0"/>
        <pt x="333" y="290" on="1"/>
        <pt x="456" y="762" on="1"/>
        <pt x="597" y="762" on="1"/>
        <pt x="720" y="290" on="1"/>
        <pt x="722" y="284" on="0"/>
        <pt x="727" y="284" on="1"/>
        <pt x="732" y="284" on="0"/>
        <pt x="734" y="290" on="1"/>
        <pt x="857" y="762" on="1"/>
        <pt x="993" y="762" on="1"/>
        <pt x="797" y="8" on="1"/>
        <pt x="657" y="8" on="1"/>
        <pt x="534" y="481" on="1"/>
        <pt x="532" y="486" on="0"/>
      </contour>
      <contour>
        <pt x="50" y="776" on="1"/>
        <pt x="42" y="776" on="0"/>
        <pt x="42" y="769" on="1"/>
        <pt x="42" y="768" on="0"/>
        <pt x="43" y="768" on="1"/>
        <pt x="43" y="768" on="0"/>
        <pt x="43" y="767" on="1"/>
        <pt x="243" y="-2" on="1"/>
        <pt x="245" y="-8" on="0"/>
        <pt x="250" y="-8" on="1"/>
        <pt x="402" y="-8" on="1"/>
        <pt x="407" y="-8" on="0"/>
        <pt x="409" y="-2" on="1"/>
        <pt x="526" y="449" on="1"/>
        <pt x="644" y="-2" on="1"/>
        <pt x="646" y="-8" on="0"/>
        <pt x="651" y="-8" on="1"/>
        <pt x="803" y="-8" on="1"/>
        <pt x="808" y="-8" on="0"/>
        <pt x="810" y="-2" on="1"/>
        <pt x="1010" y="767" on="1"/>
        <pt x="1010" y="769" on="1"/>
        <pt x="1010" y="776" on="0"/>
        <pt x="1003" y="776" on="1"/>
        <pt x="851" y="776" on="1"/>
        <pt x="846" y="776" on="0"/>
        <pt x="844" y="771" on="1"/>
        <pt x="727" y="322" on="1"/>
        <pt x="610" y="771" on="1"/>
        <pt x="608" y="776" on="0"/>
        <pt x="603" y="776" on="1"/>
        <pt x="450" y="776" on="1"/>
        <pt x="445" y="776" on="0"/>
        <pt x="443" y="771" on="1"/>
        <pt x="326" y="322" on="1"/>
        <pt x="209" y="771" on="1"/>
        <pt x="207" y="776" on="0"/>
        <pt x="202" y="776" on="1"/>
      </contour>
    </TTGlyph>
    <TTGlyph name="X" xMin="50" yMin="-2" xMax="674" yMax="770">
      <contour>
        <pt x="50" y="770" on="1"/>
        <pt x="236" y="768" on="1"/>
        <pt x="366" y="541" on="1"/>
        <pt x="498" y="769" on="1"/>
        <pt x="673" y="768" on="1"/>
        <pt x="453" y="388" on="1"/>
        <pt x="674" y="0" on="1"/>
        <pt x="499" y="-2" on="1"/>
        <pt x="363" y="233" on="1"/>
        <pt x="229" y="2" on="1"/>
        <pt x="51" y="-1" on="1"/>
        <pt x="274" y="384" on="1"/>
      </contour>
    </TTGlyph>
    <TTGlyph name="X.0" xMin="85" yMin="-2" xMax="709" yMax="770">
      <contour>
        <pt x="85" y="770" on="1"/>
        <pt x="310" y="384" on="1"/>
        <pt x="86" y="-1" on="1"/>
        <pt x="264" y="2" on="1"/>
        <pt x="398" y="233" on="1"/>
        <pt x="534" y="-2" on="1"/>
        <pt x="709" y="0" on="1"/>
        <pt x="488" y="388" on="1"/>
        <pt x="708" y="768" on="1"/>
        <pt x="533" y="769" on="1"/>
        <pt x="401" y="541" on="1"/>
        <pt x="271" y="768" on="1"/>
      </contour>
    </TTGlyph>
    <TTGlyph name="X.1" xMin="7" yMin="0" xMax="773" yMax="154">
      <contour>
        <pt x="150" y="154" on="1"/>
        <pt x="302" y="77" on="1"/>
        <pt x="7" y="0" on="1"/>
        <pt x="185" y="0" on="1"/>
        <pt x="363" y="47" on="1"/>
        <pt x="455" y="0" on="1"/>
        <pt x="630" y="0" on="1"/>
        <pt x="482" y="78" on="1"/>
        <pt x="773" y="154" on="1"/>
        <pt x="598" y="154" on="1"/>
        <pt x="423" y="108" on="1"/>
        <pt x="336" y="154" on="1"/>
      </contour>
    </TTGlyph>
    <TTGlyph name="X.2" xMin="50" yMin="-2" xMax="674" yMax="770">
      <contour>
        <pt x="50" y="770" on="1"/>
        <pt x="274" y="384" on="1"/>
        <pt x="51" y="-1" on="1"/>
        <pt x="229" y="2" on="1"/>
        <pt x="363" y="233" on="1"/>
        <pt x="499" y="-2" on="1"/>
        <pt x="674" y="0" on="1"/>
        <pt x="453" y="388" on="1"/>
        <pt x="673" y="768" on="1"/>
        <pt x="498" y="769" on="1"/>
        <pt x="366" y="541" on="1"/>
        <pt x="236" y="768" on="1"/>
      </contour>
    </TTGlyph>
    <TTGlyph name="X.3" xMin="48" yMin="-10" xMax="686" yMax="778">
      <contour>
        <pt x="503" y="777" on="1"/>
        <pt x="499" y="777" on="0"/>
        <pt x="497" y="773" on="1"/>
        <pt x="371" y="556" on="1"/>
        <pt x="248" y="772" on="1"/>
        <pt x="246" y="775" on="0"/>
        <pt x="241" y="775" on="1"/>
        <pt x="55" y="778" on="1"/>
        <pt x="48" y="778" on="0"/>
        <pt x="48" y="770" on="1"/>
        <pt x="48" y="767" on="0"/>
        <pt x="49" y="766" on="1"/>
        <pt x="271" y="384" on="1"/>
        <pt x="50" y="3" on="1"/>
        <pt x="48" y="1" on="0"/>
        <pt x="48" y="-1" on="1"/>
        <pt x="48" y="-9" on="0"/>
        <pt x="56" y="-9" on="1"/>
        <pt x="234" y="-5" on="1"/>
        <pt x="238" y="-5" on="0"/>
        <pt x="240" y="-2" on="1"/>
        <pt x="368" y="218" on="1"/>
        <pt x="498" y="-6" on="1"/>
        <pt x="500" y="-10" on="0"/>
        <pt x="504" y="-10" on="1"/>
        <pt x="679" y="-7" on="1"/>
        <pt x="686" y="-7" on="0"/>
        <pt x="686" y="0" on="1"/>
        <pt x="686" y="4" on="0"/>
        <pt x="686" y="4" on="1"/>
        <pt x="467" y="388" on="1"/>
        <pt x="684" y="764" on="1"/>
        <pt x="686" y="766" on="0"/>
        <pt x="686" y="768" on="1"/>
        <pt x="686" y="775" on="0"/>
        <pt x="678" y="775" on="1"/>
      </contour>
      <contour>
        <pt x="286" y="380" on="1"/>
        <pt x="288" y="382" on="0"/>
        <pt x="288" y="384" on="1"/>
        <pt x="288" y="386" on="0"/>
        <pt x="286" y="388" on="1"/>
        <pt x="68" y="762" on="1"/>
        <pt x="237" y="761" on="1"/>
        <pt x="364" y="537" on="1"/>
        <pt x="366" y="534" on="0"/>
        <pt x="371" y="534" on="1"/>
        <pt x="376" y="534" on="0"/>
        <pt x="377" y="537" on="1"/>
        <pt x="507" y="761" on="1"/>
        <pt x="665" y="761" on="1"/>
        <pt x="452" y="392" on="1"/>
        <pt x="450" y="390" on="0"/>
        <pt x="450" y="388" on="1"/>
        <pt x="450" y="385" on="0"/>
        <pt x="451" y="384" on="1"/>
        <pt x="666" y="7" on="1"/>
        <pt x="508" y="6" on="1"/>
        <pt x="374" y="237" on="1"/>
        <pt x="372" y="240" on="0"/>
        <pt x="368" y="240" on="1"/>
        <pt x="364" y="240" on="0"/>
        <pt x="362" y="237" on="1"/>
        <pt x="230" y="9" on="1"/>
        <pt x="69" y="7" on="1"/>
      </contour>
    </TTGlyph>
    <TTGlyph name="Y" xMin="-6" yMin="1" xMax="546" yMax="765">
      <contour>
        <pt x="193" y="451" on="1"/>
        <pt x="-6" y="765" on="1"/>
        <pt x="146" y="765" on="1"/>
        <pt x="270" y="594" on="1"/>
        <pt x="394" y="765" on="1"/>
        <pt x="546" y="765" on="1"/>
        <pt x="346" y="450" on="1"/>
        <pt x="345" y="450" on="1"/>
        <pt x="345" y="1" on="1"/>
        <pt x="193" y="1" on="1"/>
      </contour>
    </TTGlyph>
    <TTGlyph name="Y.0" xMin="29" yMin="1" xMax="581" yMax="765">
      <contour>
        <pt x="228" y="451" on="1"/>
        <pt x="228" y="1" on="1"/>
        <pt x="380" y="1" on="1"/>
        <pt x="380" y="450" on="1"/>
        <pt x="381" y="450" on="1"/>
        <pt x="581" y="765" on="1"/>
        <pt x="429" y="765" on="1"/>
        <pt x="305" y="594" on="1"/>
        <pt x="181" y="765" on="1"/>
        <pt x="29" y="765" on="1"/>
      </contour>
    </TTGlyph>
    <TTGlyph name="Y.1" xMin="94" yMin="0" xMax="646" yMax="153">
      <contour>
        <pt x="234" y="90" on="1"/>
        <pt x="149" y="0" on="1"/>
        <pt x="301" y="0" on="1"/>
        <pt x="386" y="90" on="1"/>
        <pt x="387" y="90" on="1"/>
        <pt x="646" y="153" on="1"/>
        <pt x="494" y="153" on="1"/>
        <pt x="338" y="119" on="1"/>
        <pt x="246" y="153" on="1"/>
        <pt x="94" y="153" on="1"/>
      </contour>
    </TTGlyph>
    <TTGlyph name="Y.2" xMin="-8" yMin="-6" xMax="558" yMax="772">
      <contour>
        <pt x="358" y="1" on="1"/>
        <pt x="358" y="446" on="1"/>
        <pt x="557" y="761" on="1"/>
        <pt x="558" y="762" on="0"/>
        <pt x="558" y="765" on="1"/>
        <pt x="558" y="772" on="0"/>
        <pt x="551" y="772" on="1"/>
        <pt x="399" y="772" on="1"/>
        <pt x="394" y="772" on="0"/>
        <pt x="393" y="769" on="1"/>
        <pt x="275" y="607" on="1"/>
        <pt x="157" y="769" on="1"/>
        <pt x="156" y="772" on="0"/>
        <pt x="151" y="772" on="1"/>
        <pt x="-1" y="772" on="1"/>
        <pt x="-8" y="772" on="0"/>
        <pt x="-8" y="765" on="1"/>
        <pt x="-8" y="762" on="0"/>
        <pt x="-7" y="761" on="1"/>
        <pt x="190" y="449" on="1"/>
        <pt x="190" y="1" on="1"/>
        <pt x="190" y="-6" on="0"/>
        <pt x="198" y="-6" on="1"/>
        <pt x="350" y="-6" on="1"/>
        <pt x="358" y="-6" on="0"/>
      </contour>
      <contour>
        <pt x="206" y="451" on="1"/>
        <pt x="206" y="453" on="0"/>
        <pt x="204" y="455" on="1"/>
        <pt x="13" y="758" on="1"/>
        <pt x="147" y="758" on="1"/>
        <pt x="269" y="590" on="1"/>
        <pt x="271" y="586" on="0"/>
        <pt x="275" y="586" on="1"/>
        <pt x="279" y="586" on="0"/>
        <pt x="281" y="590" on="1"/>
        <pt x="403" y="758" on="1"/>
        <pt x="537" y="758" on="1"/>
        <pt x="346" y="456" on="1"/>
        <pt x="342" y="454" on="0"/>
        <pt x="342" y="450" on="1"/>
        <pt x="342" y="8" on="1"/>
        <pt x="206" y="8" on="1"/>
      </contour>
    </TTGlyph>
    <TTGlyph name="Y.3" xMin="-6" yMin="1" xMax="546" yMax="765">
      <component glyphName="Y.0" x="-35" y="0" flags="0x4"/>
    </TTGlyph>
    <TTGlyph name="Z" xMin="50" yMin="10" xMax="733" yMax="762">
      <contour>
        <pt x="50" y="10" on="1"/>
        <pt x="50" y="162" on="1"/>
        <pt x="480" y="610" on="1"/>
        <pt x="50" y="610" on="1"/>
        <pt x="50" y="762" on="1"/>
        <pt x="733" y="762" on="1"/>
        <pt x="733" y="610" on="1"/>
        <pt x="301" y="162" on="1"/>
        <pt x="733" y="162" on="1"/>
        <pt x="733" y="10" on="1"/>
      </contour>
    </TTGlyph>
    <TTGlyph name="Z.0" xMin="85" yMin="10" xMax="768" yMax="762">
      <contour>
        <pt x="85" y="10" on="1"/>
        <pt x="768" y="10" on="1"/>
        <pt x="768" y="162" on="1"/>
        <pt x="336" y="162" on="1"/>
        <pt x="768" y="610" on="1"/>
        <pt x="768" y="762" on="1"/>
        <pt x="85" y="762" on="1"/>
        <pt x="85" y="610" on="1"/>
        <pt x="515" y="610" on="1"/>
        <pt x="85" y="162" on="1"/>
      </contour>
    </TTGlyph>
    <TTGlyph name="Z.1" xMin="8" yMin="2" xMax="831" yMax="152">
      <contour>
        <pt x="8" y="2" on="1"/>
        <pt x="691" y="2" on="1"/>
        <pt x="719" y="32" on="1"/>
        <pt x="287" y="32" on="1"/>
        <pt x="803" y="122" on="1"/>
        <pt x="831" y="152" on="1"/>
        <pt x="148" y="152" on="1"/>
        <pt x="120" y="122" on="1"/>
        <pt x="550" y="122" on="1"/>
        <pt x="36" y="32" on="1"/>
      </contour>
    </TTGlyph>
    <TTGlyph name="Z.2" xMin="48" yMin="2" xMax="746" yMax="770">
      <contour>
        <pt x="48" y="10" on="1"/>
        <pt x="48" y="2" on="0"/>
        <pt x="55" y="2" on="1"/>
        <pt x="738" y="2" on="1"/>
        <pt x="746" y="2" on="0"/>
        <pt x="746" y="10" on="1"/>
        <pt x="746" y="162" on="1"/>
        <pt x="746" y="170" on="0"/>
        <pt x="738" y="170" on="1"/>
        <pt x="324" y="170" on="1"/>
        <pt x="743" y="605" on="1"/>
        <pt x="746" y="608" on="0"/>
        <pt x="746" y="610" on="1"/>
        <pt x="746" y="762" on="1"/>
        <pt x="746" y="770" on="0"/>
        <pt x="738" y="770" on="1"/>
        <pt x="55" y="770" on="1"/>
        <pt x="48" y="770" on="0"/>
        <pt x="48" y="762" on="1"/>
        <pt x="48" y="610" on="1"/>
        <pt x="48" y="602" on="0"/>
        <pt x="55" y="602" on="1"/>
        <pt x="467" y="602" on="1"/>
        <pt x="50" y="167" on="1"/>
        <pt x="48" y="165" on="0"/>
        <pt x="48" y="162" on="1"/>
      </contour>
      <contour>
        <pt x="62" y="18" on="1"/>
        <pt x="62" y="159" on="1"/>
        <pt x="490" y="605" on="1"/>
        <pt x="492" y="607" on="0"/>
        <pt x="492" y="610" on="1"/>
        <pt x="492" y="618" on="0"/>
        <pt x="485" y="618" on="1"/>
        <pt x="62" y="618" on="1"/>
        <pt x="62" y="754" on="1"/>
        <pt x="730" y="754" on="1"/>
        <pt x="730" y="613" on="1"/>
        <pt x="301" y="167" on="1"/>
        <pt x="298" y="164" on="0"/>
        <pt x="298" y="162" on="1"/>
        <pt x="298" y="154" on="0"/>
        <pt x="306" y="154" on="1"/>
        <pt x="730" y="154" on="1"/>
        <pt x="730" y="18" on="1"/>
      </contour>
    </TTGlyph>
    <TTGlyph name="Z.3" xMin="50" yMin="10" xMax="733" yMax="762">
      <component glyphName="Z.0" x="-35" y="0" flags="0x4"/>
    </TTGlyph>
    <TTGlyph name="a" xMin="50" yMin="1" xMax="484" yMax="515">
      <contour>
        <pt x="332" y="1" on="1"/>
        <pt x="332" y="9" on="1"/>
        <pt x="324" y="8" on="0"/>
        <pt x="308" y="8" on="1"/>
        <pt x="201" y="8" on="0"/>
        <pt x="50" y="159" on="0"/>
        <pt x="50" y="266" on="1"/>
        <pt x="50" y="372" on="0"/>
        <pt x="200" y="515" on="0"/>
        <pt x="308" y="515" on="1"/>
        <pt x="324" y="515" on="0"/>
        <pt x="332" y="514" on="1"/>
        <pt x="484" y="514" on="1"/>
        <pt x="484" y="1" on="1"/>
      </contour>
      <contour>
        <pt x="332" y="369" on="1"/>
        <pt x="320" y="372" on="0"/>
        <pt x="308" y="372" on="1"/>
        <pt x="263" y="372" on="0"/>
        <pt x="201" y="310" on="0"/>
        <pt x="201" y="266" on="1"/>
        <pt x="201" y="221" on="0"/>
        <pt x="263" y="159" on="0"/>
        <pt x="308" y="159" on="1"/>
        <pt x="320" y="159" on="0"/>
        <pt x="332" y="162" on="1"/>
      </contour>
    </TTGlyph>
    <TTGlyph name="a.0" xMin="85" yMin="1" xMax="519" yMax="515">
      <contour>
        <pt x="367" y="1" on="1"/>
        <pt x="519" y="1" on="1"/>
        <pt x="519" y="514" on="1"/>
        <pt x="367" y="514" on="1"/>
        <pt x="359" y="515" on="0"/>
        <pt x="343" y="515" on="1"/>
        <pt x="235" y="515" on="0"/>
        <pt x="160" y="444" on="1"/>
        <pt x="85" y="372" on="0"/>
        <pt x="85" y="266" on="1"/>
        <pt x="85" y="159" on="0"/>
        <pt x="161" y="84" on="1"/>
        <pt x="236" y="8" on="0"/>
        <pt x="343" y="8" on="1"/>
        <pt x="359" y="8" on="0"/>
        <pt x="367" y="9" on="1"/>
      </contour>
      <contour>
        <pt x="367" y="369" on="1"/>
        <pt x="367" y="162" on="1"/>
        <pt x="355" y="159" on="0"/>
        <pt x="343" y="159" on="1"/>
        <pt x="298" y="159" on="0"/>
        <pt x="267" y="190" on="1"/>
        <pt x="236" y="221" on="0"/>
        <pt x="236" y="266" on="1"/>
        <pt x="236" y="310" on="0"/>
        <pt x="267" y="341" on="1"/>
        <pt x="298" y="372" on="0"/>
        <pt x="343" y="372" on="1"/>
        <pt x="355" y="372" on="0"/>
      </contour>
    </TTGlyph>
    <TTGlyph name="a.1" xMin="51" yMin="0" xMax="551" yMax="103">
      <contour>
        <pt x="302" y="0" on="1"/>
        <pt x="454" y="0" on="1"/>
        <pt x="551" y="103" on="1"/>
        <pt x="399" y="103" on="1"/>
        <pt x="391" y="103" on="0"/>
        <pt x="375" y="103" on="1"/>
        <pt x="267" y="103" on="0"/>
        <pt x="179" y="89" on="1"/>
        <pt x="90" y="74" on="0"/>
        <pt x="70" y="53" on="1"/>
        <pt x="51" y="32" on="0"/>
        <pt x="112" y="17" on="1"/>
        <pt x="173" y="2" on="0"/>
        <pt x="280" y="2" on="1"/>
        <pt x="296" y="2" on="0"/>
        <pt x="304" y="2" on="1"/>
      </contour>
      <contour>
        <pt x="372" y="74" on="1"/>
        <pt x="333" y="32" on="1"/>
        <pt x="321" y="32" on="0"/>
        <pt x="309" y="32" on="1"/>
        <pt x="264" y="32" on="0"/>
        <pt x="239" y="38" on="1"/>
        <pt x="213" y="44" on="0"/>
        <pt x="221" y="53" on="1"/>
        <pt x="230" y="62" on="0"/>
        <pt x="267" y="68" on="1"/>
        <pt x="303" y="74" on="0"/>
        <pt x="348" y="74" on="1"/>
        <pt x="361" y="75" on="0"/>
      </contour>
    </TTGlyph>
    <TTGlyph name="a.2" xMin="48" yMin="-6" xMax="496" yMax="522">
      <contour>
        <pt x="489" y="522" on="1"/>
        <pt x="337" y="522" on="1"/>
        <pt x="313" y="522" on="1"/>
        <pt x="201" y="522" on="0"/>
        <pt x="125" y="449" on="1"/>
        <pt x="48" y="375" on="0"/>
        <pt x="48" y="266" on="1"/>
        <pt x="48" y="155" on="0"/>
        <pt x="125" y="78" on="1"/>
        <pt x="203" y="0" on="0"/>
        <pt x="313" y="0" on="1"/>
        <pt x="316" y="0" on="0"/>
        <pt x="322" y="1" on="1"/>
        <pt x="328" y="1" on="0"/>
        <pt x="330" y="1" on="1"/>
        <pt x="330" y="-6" on="0"/>
        <pt x="337" y="-6" on="1"/>
        <pt x="489" y="-6" on="1"/>
        <pt x="496" y="-6" on="0"/>
        <pt x="496" y="1" on="1"/>
        <pt x="496" y="514" on="1"/>
        <pt x="496" y="522" on="0"/>
      </contour>
      <contour>
        <pt x="482" y="506" on="1"/>
        <pt x="482" y="8" on="1"/>
        <pt x="344" y="8" on="1"/>
        <pt x="344" y="9" on="1"/>
        <pt x="344" y="16" on="0"/>
        <pt x="337" y="16" on="1"/>
        <pt x="336" y="16" on="1"/>
        <pt x="313" y="16" on="1"/>
        <pt x="209" y="16" on="0"/>
        <pt x="136" y="89" on="1"/>
        <pt x="62" y="163" on="0"/>
        <pt x="62" y="266" on="1"/>
        <pt x="62" y="369" on="0"/>
        <pt x="135" y="438" on="1"/>
        <pt x="210" y="508" on="0"/>
        <pt x="313" y="508" on="1"/>
        <pt x="331" y="508" on="0"/>
        <pt x="336" y="507" on="1"/>
        <pt x="337" y="506" on="1"/>
      </contour>
      <contour>
        <pt x="344" y="369" on="1"/>
        <pt x="344" y="374" on="0"/>
        <pt x="339" y="376" on="1"/>
        <pt x="321" y="380" on="0"/>
        <pt x="313" y="380" on="1"/>
        <pt x="266" y="380" on="0"/>
        <pt x="232" y="346" on="1"/>
        <pt x="198" y="312" on="0"/>
        <pt x="198" y="266" on="1"/>
        <pt x="198" y="219" on="0"/>
        <pt x="232" y="185" on="1"/>
        <pt x="265" y="152" on="0"/>
        <pt x="313" y="152" on="1"/>
        <pt x="326" y="152" on="0"/>
        <pt x="339" y="155" on="1"/>
        <pt x="344" y="157" on="0"/>
        <pt x="344" y="162" on="1"/>
      </contour>
      <contour>
        <pt x="313" y="364" on="1"/>
        <pt x="324" y="364" on="0"/>
        <pt x="330" y="363" on="1"/>
        <pt x="330" y="168" on="1"/>
        <pt x="318" y="166" on="0"/>
        <pt x="313" y="166" on="1"/>
        <pt x="271" y="166" on="0"/>
        <pt x="242" y="195" on="1"/>
        <pt x="214" y="223" on="0"/>
        <pt x="214" y="266" on="1"/>
        <pt x="214" y="308" on="0"/>
        <pt x="242" y="336" on="1"/>
        <pt x="270" y="364" on="0"/>
      </contour>
    </TTGlyph>
    <TTGlyph name="a.3" xMin="50" yMin="1" xMax="484" yMax="515">
      <component glyphName="a.0" x="-35" y="0" flags="0x4"/>
    </TTGlyph>
    <TTGlyph name="ampersand" xMin="46" yMin="-4" xMax="600" yMax="820">
      <contour>
        <pt x="389" y="810" on="1"/>
        <pt x="386" y="691" on="1"/>
        <pt x="368" y="690" on="0"/>
        <pt x="239" y="620" on="0"/>
        <pt x="224" y="605" on="1"/>
        <pt x="190" y="571" on="0"/>
        <pt x="193" y="521" on="1"/>
        <pt x="216" y="498" on="1"/>
        <pt x="263" y="518" on="0"/>
        <pt x="315" y="518" on="1"/>
        <pt x="328" y="518" on="0"/>
        <pt x="341" y="517" on="1"/>
        <pt x="341" y="373" on="1"/>
        <pt x="452" y="262" on="1"/>
        <pt x="565" y="354" on="0"/>
        <pt x="569" y="355" on="1"/>
        <pt x="569" y="202" on="1"/>
        <pt x="566" y="202" on="0"/>
        <pt x="536" y="178" on="1"/>
        <pt x="600" y="114" on="1"/>
        <pt x="482" y="-4" on="1"/>
        <pt x="406" y="73" on="1"/>
        <pt x="319" y="3" on="0"/>
        <pt x="315" y="3" on="1"/>
        <pt x="208" y="3" on="0"/>
        <pt x="57" y="153" on="0"/>
        <pt x="57" y="260" on="1"/>
        <pt x="57" y="330" on="0"/>
        <pt x="92" y="390" on="1"/>
        <pt x="76" y="406" on="1"/>
        <pt x="56" y="442" on="0"/>
        <pt x="46" y="518" on="0"/>
        <pt x="66" y="599" on="0"/>
        <pt x="93" y="667" on="0"/>
        <pt x="117" y="712" on="1"/>
        <pt x="130" y="736" on="0"/>
        <pt x="251" y="792" on="0"/>
        <pt x="373" y="820" on="0"/>
      </contour>
      <contour>
        <pt x="322" y="158" on="1"/>
        <pt x="209" y="272" on="1"/>
        <pt x="208" y="266" on="0"/>
        <pt x="208" y="260" on="1"/>
        <pt x="208" y="216" on="0"/>
        <pt x="270" y="154" on="0"/>
        <pt x="315" y="154" on="1"/>
        <pt x="316" y="154" on="0"/>
      </contour>
    </TTGlyph>
    <TTGlyph name="ampersand.0" xMin="81" yMin="-4" xMax="635" yMax="820">
      <contour>
        <pt x="424" y="810" on="1"/>
        <pt x="408" y="820" on="0"/>
        <pt x="347" y="806" on="1"/>
        <pt x="286" y="792" on="0"/>
        <pt x="226" y="764" on="1"/>
        <pt x="165" y="736" on="0"/>
        <pt x="152" y="712" on="1"/>
        <pt x="128" y="667" on="0"/>
        <pt x="115" y="633" on="1"/>
        <pt x="101" y="599" on="0"/>
        <pt x="91" y="559" on="1"/>
        <pt x="81" y="518" on="0"/>
        <pt x="86" y="480" on="1"/>
        <pt x="91" y="442" on="0"/>
        <pt x="111" y="406" on="1"/>
        <pt x="127" y="390" on="1"/>
        <pt x="92" y="330" on="0"/>
        <pt x="92" y="260" on="1"/>
        <pt x="92" y="153" on="0"/>
        <pt x="168" y="78" on="1"/>
        <pt x="243" y="3" on="0"/>
        <pt x="350" y="3" on="1"/>
        <pt x="354" y="3" on="0"/>
        <pt x="441" y="73" on="1"/>
        <pt x="517" y="-4" on="1"/>
        <pt x="635" y="114" on="1"/>
        <pt x="571" y="178" on="1"/>
        <pt x="601" y="202" on="0"/>
        <pt x="604" y="202" on="1"/>
        <pt x="604" y="355" on="1"/>
        <pt x="600" y="354" on="0"/>
        <pt x="487" y="262" on="1"/>
        <pt x="376" y="373" on="1"/>
        <pt x="376" y="517" on="1"/>
        <pt x="363" y="518" on="0"/>
        <pt x="350" y="518" on="1"/>
        <pt x="298" y="518" on="0"/>
        <pt x="251" y="498" on="1"/>
        <pt x="228" y="521" on="1"/>
        <pt x="225" y="571" on="0"/>
        <pt x="259" y="605" on="1"/>
        <pt x="274" y="620" on="0"/>
        <pt x="339" y="655" on="1"/>
        <pt x="403" y="690" on="0"/>
        <pt x="421" y="691" on="1"/>
      </contour>
      <contour>
        <pt x="357" y="158" on="1"/>
        <pt x="351" y="154" on="0"/>
        <pt x="350" y="154" on="1"/>
        <pt x="305" y="154" on="0"/>
        <pt x="274" y="185" on="1"/>
        <pt x="243" y="216" on="0"/>
        <pt x="243" y="260" on="1"/>
        <pt x="243" y="266" on="0"/>
        <pt x="244" y="272" on="1"/>
      </contour>
    </TTGlyph>
    <TTGlyph name="ampersand.1" xMin="39" yMin="-1" xMax="589" yMax="164">
      <contour>
        <pt x="495" y="162" on="1"/>
        <pt x="481" y="164" on="0"/>
        <pt x="417" y="161" on="1"/>
        <pt x="353" y="158" on="0"/>
        <pt x="287" y="153" on="1"/>
        <pt x="221" y="147" on="0"/>
        <pt x="204" y="142" on="1"/>
        <pt x="172" y="133" on="0"/>
        <pt x="152" y="127" on="1"/>
        <pt x="132" y="120" on="0"/>
        <pt x="115" y="112" on="1"/>
        <pt x="97" y="104" on="0"/>
        <pt x="95" y="96" on="1"/>
        <pt x="92" y="88" on="0"/>
        <pt x="105" y="81" on="1"/>
        <pt x="118" y="78" on="1"/>
        <pt x="72" y="66" on="0"/>
        <pt x="59" y="52" on="1"/>
        <pt x="39" y="31" on="0"/>
        <pt x="101" y="16" on="1"/>
        <pt x="162" y="1" on="0"/>
        <pt x="269" y="1" on="1"/>
        <pt x="273" y="1" on="0"/>
        <pt x="373" y="15" on="1"/>
        <pt x="435" y="-1" on="1"/>
        <pt x="575" y="23" on="1"/>
        <pt x="523" y="36" on="1"/>
        <pt x="557" y="40" on="0"/>
        <pt x="560" y="40" on="1"/>
        <pt x="589" y="71" on="1"/>
        <pt x="585" y="70" on="0"/>
        <pt x="454" y="52" on="1"/>
        <pt x="365" y="75" on="1"/>
        <pt x="392" y="103" on="1"/>
        <pt x="379" y="104" on="0"/>
        <pt x="366" y="104" on="1"/>
        <pt x="314" y="104" on="0"/>
        <pt x="263" y="100" on="1"/>
        <pt x="244" y="104" on="1"/>
        <pt x="250" y="114" on="0"/>
        <pt x="291" y="121" on="1"/>
        <pt x="309" y="124" on="0"/>
        <pt x="380" y="131" on="1"/>
        <pt x="451" y="138" on="0"/>
        <pt x="469" y="138" on="1"/>
      </contour>
      <contour>
        <pt x="305" y="32" on="1"/>
        <pt x="298" y="31" on="0"/>
        <pt x="297" y="31" on="1"/>
        <pt x="252" y="31" on="0"/>
        <pt x="227" y="37" on="1"/>
        <pt x="202" y="43" on="0"/>
        <pt x="210" y="52" on="1"/>
        <pt x="211" y="53" on="0"/>
        <pt x="212" y="54" on="1"/>
      </contour>
    </TTGlyph>
    <TTGlyph name="ampersand.2" xMin="47" yMin="-12" xMax="612" yMax="822">
      <contour>
        <pt x="205" y="529" on="1"/>
        <pt x="205" y="571" on="0"/>
        <pt x="234" y="600" on="1"/>
        <pt x="248" y="614" on="0"/>
        <pt x="312" y="648" on="1"/>
        <pt x="379" y="684" on="0"/>
        <pt x="391" y="684" on="1"/>
        <pt x="398" y="684" on="0"/>
        <pt x="398" y="691" on="1"/>
        <pt x="402" y="810" on="1"/>
        <pt x="402" y="814" on="0"/>
        <pt x="398" y="816" on="1"/>
        <pt x="389" y="822" on="0"/>
        <pt x="373" y="822" on="1"/>
        <pt x="351" y="822" on="0"/>
        <pt x="315" y="813" on="1"/>
        <pt x="254" y="800" on="0"/>
        <pt x="192" y="771" on="1"/>
        <pt x="128" y="742" on="0"/>
        <pt x="115" y="716" on="1"/>
        <pt x="94" y="676" on="0"/>
        <pt x="78" y="636" on="1"/>
        <pt x="65" y="603" on="0"/>
        <pt x="54" y="560" on="1"/>
        <pt x="47" y="533" on="0"/>
        <pt x="47" y="506" on="1"/>
        <pt x="47" y="497" on="0"/>
        <pt x="49" y="479" on="1"/>
        <pt x="54" y="438" on="0"/>
        <pt x="74" y="402" on="1"/>
        <pt x="74" y="401" on="0"/>
        <pt x="76" y="401" on="1"/>
        <pt x="88" y="389" on="1"/>
        <pt x="54" y="327" on="0"/>
        <pt x="54" y="260" on="1"/>
        <pt x="54" y="150" on="0"/>
        <pt x="132" y="73" on="1"/>
        <pt x="211" y="-4" on="0"/>
        <pt x="320" y="-4" on="1"/>
        <pt x="324" y="-4" on="0"/>
        <pt x="325" y="-3" on="1"/>
        <pt x="329" y="-1" on="0"/>
        <pt x="344" y="11" on="1"/>
        <pt x="400" y="55" on="0"/>
        <pt x="410" y="63" on="1"/>
        <pt x="482" y="-9" on="1"/>
        <pt x="485" y="-12" on="0"/>
        <pt x="487" y="-12" on="1"/>
        <pt x="489" y="-12" on="0"/>
        <pt x="492" y="-9" on="1"/>
        <pt x="610" y="109" on="1"/>
        <pt x="612" y="111" on="0"/>
        <pt x="612" y="114" on="1"/>
        <pt x="612" y="117" on="0"/>
        <pt x="610" y="119" on="1"/>
        <pt x="552" y="177" on="1"/>
        <pt x="574" y="194" on="0"/>
        <pt x="576" y="195" on="1"/>
        <pt x="582" y="197" on="0"/>
        <pt x="582" y="202" on="1"/>
        <pt x="582" y="355" on="1"/>
        <pt x="582" y="362" on="0"/>
        <pt x="574" y="362" on="1"/>
        <pt x="570" y="362" on="0"/>
        <pt x="568" y="360" on="1"/>
        <pt x="560" y="355" on="0"/>
        <pt x="544" y="342" on="1"/>
        <pt x="526" y="328" on="0"/>
        <pt x="458" y="272" on="1"/>
        <pt x="354" y="376" on="1"/>
        <pt x="354" y="517" on="1"/>
        <pt x="354" y="524" on="0"/>
        <pt x="347" y="524" on="1"/>
        <pt x="329" y="526" on="0"/>
        <pt x="320" y="526" on="1"/>
        <pt x="272" y="526" on="0"/>
        <pt x="223" y="507" on="1"/>
        <pt x="205" y="524" on="1"/>
        <pt x="205" y="529" on="0"/>
      </contour>
      <contour>
        <pt x="373" y="807" on="1"/>
        <pt x="380" y="807" on="0"/>
        <pt x="386" y="805" on="1"/>
        <pt x="384" y="697" on="1"/>
        <pt x="362" y="693" on="0"/>
        <pt x="305" y="662" on="1"/>
        <pt x="243" y="629" on="0"/>
        <pt x="224" y="610" on="1"/>
        <pt x="190" y="576" on="0"/>
        <pt x="190" y="529" on="1"/>
        <pt x="190" y="519" on="0"/>
        <pt x="193" y="516" on="1"/>
        <pt x="216" y="493" on="1"/>
        <pt x="219" y="490" on="0"/>
        <pt x="221" y="490" on="1"/>
        <pt x="222" y="490" on="0"/>
        <pt x="223" y="490" on="1"/>
        <pt x="224" y="491" on="1"/>
        <pt x="268" y="510" on="0"/>
        <pt x="320" y="510" on="1"/>
        <pt x="338" y="510" on="1"/>
        <pt x="338" y="373" on="1"/>
        <pt x="338" y="371" on="0"/>
        <pt x="341" y="368" on="1"/>
        <pt x="452" y="257" on="1"/>
        <pt x="455" y="254" on="0"/>
        <pt x="457" y="254" on="1"/>
        <pt x="460" y="254" on="0"/>
        <pt x="462" y="256" on="1"/>
        <pt x="558" y="334" on="0"/>
        <pt x="566" y="340" on="1"/>
        <pt x="566" y="207" on="1"/>
        <pt x="563" y="205" on="0"/>
        <pt x="536" y="184" on="1"/>
        <pt x="534" y="183" on="0"/>
        <pt x="534" y="178" on="1"/>
        <pt x="534" y="175" on="0"/>
        <pt x="536" y="173" on="1"/>
        <pt x="594" y="114" on="1"/>
        <pt x="487" y="7" on="1"/>
        <pt x="416" y="78" on="1"/>
        <pt x="414" y="80" on="0"/>
        <pt x="411" y="80" on="1"/>
        <pt x="407" y="80" on="0"/>
        <pt x="406" y="79" on="1"/>
        <pt x="330" y="18" on="0"/>
        <pt x="318" y="11" on="1"/>
        <pt x="217" y="11" on="0"/>
        <pt x="143" y="83" on="1"/>
        <pt x="70" y="156" on="0"/>
        <pt x="70" y="260" on="1"/>
        <pt x="70" y="330" on="0"/>
        <pt x="103" y="386" on="1"/>
        <pt x="104" y="387" on="0"/>
        <pt x="104" y="390" on="1"/>
        <pt x="104" y="393" on="0"/>
        <pt x="102" y="395" on="1"/>
        <pt x="87" y="411" on="1"/>
        <pt x="67" y="446" on="0"/>
        <pt x="63" y="481" on="1"/>
        <pt x="62" y="489" on="0"/>
        <pt x="62" y="506" on="1"/>
        <pt x="62" y="532" on="0"/>
        <pt x="68" y="557" on="1"/>
        <pt x="80" y="603" on="0"/>
        <pt x="91" y="630" on="1"/>
        <pt x="103" y="659" on="0"/>
        <pt x="129" y="708" on="1"/>
        <pt x="140" y="729" on="0"/>
        <pt x="199" y="757" on="1"/>
        <pt x="266" y="787" on="0"/>
        <pt x="319" y="799" on="1"/>
        <pt x="356" y="807" on="0"/>
      </contour>
      <contour>
        <pt x="206" y="260" on="1"/>
        <pt x="206" y="213" on="0"/>
        <pt x="239" y="180" on="1"/>
        <pt x="273" y="146" on="0"/>
        <pt x="320" y="146" on="1"/>
        <pt x="323" y="146" on="0"/>
        <pt x="325" y="148" on="1"/>
        <pt x="334" y="154" on="0"/>
        <pt x="334" y="158" on="1"/>
        <pt x="334" y="161" on="0"/>
        <pt x="332" y="163" on="1"/>
        <pt x="219" y="277" on="1"/>
        <pt x="216" y="280" on="0"/>
        <pt x="214" y="280" on="1"/>
        <pt x="206" y="280" on="0"/>
      </contour>
      <contour>
        <pt x="221" y="255" on="1"/>
        <pt x="313" y="162" on="1"/>
        <pt x="274" y="165" on="0"/>
        <pt x="249" y="190" on="1"/>
        <pt x="223" y="216" on="0"/>
      </contour>
    </TTGlyph>
    <TTGlyph name="ampersand.3" xMin="46" yMin="-4" xMax="600" yMax="820">
      <component glyphName="ampersand.0" x="-35" y="0" flags="0x4"/>
    </TTGlyph>
    <TTGlyph name="asciicircum" xMin="121" yMin="283" xMax="523" yMax="617">
      <contour>
        <pt x="121" y="283" on="1"/>
        <pt x="264" y="617" on="1"/>
        <pt x="265" y="617" on="1"/>
        <pt x="416" y="617" on="1"/>
        <pt x="417" y="617" on="1"/>
        <pt x="523" y="283" on="1"/>
        <pt x="371" y="283" on="1"/>
        <pt x="329" y="497" on="1"/>
        <pt x="273" y="283" on="1"/>
      </contour>
    </TTGlyph>
    <TTGlyph name="asciicircum.0" xMin="156" yMin="283" xMax="558" yMax="617">
      <contour>
        <pt x="156" y="283" on="1"/>
        <pt x="308" y="283" on="1"/>
        <pt x="364" y="497" on="1"/>
        <pt x="406" y="283" on="1"/>
        <pt x="558" y="283" on="1"/>
        <pt x="452" y="617" on="1"/>
        <pt x="451" y="617" on="1"/>
        <pt x="300" y="617" on="1"/>
        <pt x="299" y="617" on="1"/>
      </contour>
    </TTGlyph>
    <TTGlyph name="asciicircum.1" xMin="123" yMin="57" xMax="525" yMax="123">
      <contour>
        <pt x="123" y="57" on="1"/>
        <pt x="275" y="57" on="1"/>
        <pt x="370" y="99" on="1"/>
        <pt x="373" y="57" on="1"/>
        <pt x="525" y="57" on="1"/>
        <pt x="481" y="123" on="1"/>
        <pt x="480" y="123" on="1"/>
        <pt x="329" y="123" on="1"/>
        <pt x="328" y="123" on="1"/>
      </contour>
    </TTGlyph>
    <TTGlyph name="asciicircum.2" xMin="118" yMin="276" xMax="536" yMax="624">
      <contour>
        <pt x="269" y="624" on="1"/>
        <pt x="263" y="624" on="0"/>
        <pt x="262" y="620" on="1"/>
        <pt x="119" y="286" on="1"/>
        <pt x="118" y="284" on="1"/>
        <pt x="118" y="284" on="0"/>
        <pt x="118" y="283" on="1"/>
        <pt x="118" y="276" on="0"/>
        <pt x="126" y="276" on="1"/>
        <pt x="278" y="276" on="1"/>
        <pt x="283" y="276" on="0"/>
        <pt x="285" y="281" on="1"/>
        <pt x="333" y="463" on="1"/>
        <pt x="369" y="282" on="1"/>
        <pt x="371" y="276" on="0"/>
        <pt x="376" y="276" on="1"/>
        <pt x="528" y="276" on="1"/>
        <pt x="536" y="276" on="0"/>
        <pt x="536" y="283" on="1"/>
        <pt x="536" y="284" on="0"/>
        <pt x="536" y="284" on="1"/>
        <pt x="535" y="284" on="0"/>
        <pt x="535" y="285" on="1"/>
        <pt x="429" y="619" on="1"/>
        <pt x="427" y="624" on="0"/>
        <pt x="422" y="624" on="1"/>
      </contour>
      <contour>
        <pt x="341" y="498" on="1"/>
        <pt x="339" y="504" on="0"/>
        <pt x="334" y="504" on="1"/>
        <pt x="329" y="504" on="0"/>
        <pt x="327" y="499" on="1"/>
        <pt x="272" y="290" on="1"/>
        <pt x="137" y="290" on="1"/>
        <pt x="274" y="610" on="1"/>
        <pt x="417" y="610" on="1"/>
        <pt x="518" y="290" on="1"/>
        <pt x="382" y="290" on="1"/>
      </contour>
    </TTGlyph>
    <TTGlyph name="asciicircum.3" xMin="121" yMin="283" xMax="523" yMax="617">
      <component glyphName="asciicircum.0" x="-35" y="0" flags="0x4"/>
    </TTGlyph>
    <TTGlyph name="asciitilde" xMin="50" yMin="344" xMax="549" yMax="577">
      <contour>
        <pt x="549" y="577" on="1"/>
        <pt x="549" y="425" on="1"/>
        <pt x="548" y="421" on="0"/>
        <pt x="517" y="385" on="0"/>
        <pt x="453" y="344" on="0"/>
        <pt x="421" y="344" on="1"/>
        <pt x="321" y="344" on="1"/>
        <pt x="289" y="344" on="0"/>
        <pt x="200" y="400" on="0"/>
        <pt x="168" y="400" on="1"/>
        <pt x="145" y="400" on="0"/>
        <pt x="86" y="372" on="0"/>
        <pt x="68" y="358" on="1"/>
        <pt x="50" y="344" on="1"/>
        <pt x="50" y="496" on="1"/>
        <pt x="114" y="552" on="0"/>
        <pt x="164" y="552" on="1"/>
        <pt x="197" y="552" on="0"/>
        <pt x="291" y="497" on="0"/>
        <pt x="324" y="497" on="1"/>
        <pt x="369" y="497" on="0"/>
        <pt x="413" y="497" on="1"/>
        <pt x="444" y="497" on="0"/>
        <pt x="512" y="537" on="0"/>
        <pt x="530" y="557" on="1"/>
      </contour>
    </TTGlyph>
    <TTGlyph name="asciitilde.0" xMin="85" yMin="344" xMax="584" yMax="577">
      <contour>
        <pt x="584" y="577" on="1"/>
        <pt x="565" y="557" on="1"/>
        <pt x="547" y="537" on="0"/>
        <pt x="513" y="517" on="1"/>
        <pt x="479" y="497" on="0"/>
        <pt x="448" y="497" on="1"/>
        <pt x="404" y="497" on="0"/>
        <pt x="359" y="497" on="1"/>
        <pt x="326" y="497" on="0"/>
        <pt x="279" y="525" on="1"/>
        <pt x="232" y="552" on="0"/>
        <pt x="199" y="552" on="1"/>
        <pt x="149" y="552" on="0"/>
        <pt x="85" y="496" on="1"/>
        <pt x="85" y="344" on="1"/>
        <pt x="103" y="358" on="1"/>
        <pt x="121" y="372" on="0"/>
        <pt x="151" y="386" on="1"/>
        <pt x="180" y="400" on="0"/>
        <pt x="203" y="400" on="1"/>
        <pt x="235" y="400" on="0"/>
        <pt x="280" y="372" on="1"/>
        <pt x="324" y="344" on="0"/>
        <pt x="356" y="344" on="1"/>
        <pt x="456" y="344" on="1"/>
        <pt x="488" y="344" on="0"/>
        <pt x="520" y="365" on="1"/>
        <pt x="552" y="385" on="0"/>
        <pt x="568" y="403" on="1"/>
        <pt x="583" y="421" on="0"/>
        <pt x="584" y="425" on="1"/>
      </contour>
    </TTGlyph>
    <TTGlyph name="asciitilde.1" xMin="62" yMin="69" xMax="604" yMax="115">
      <contour>
        <pt x="604" y="115" on="1"/>
        <pt x="582" y="111" on="1"/>
        <pt x="560" y="107" on="0"/>
        <pt x="522" y="103" on="1"/>
        <pt x="484" y="99" on="0"/>
        <pt x="453" y="99" on="1"/>
        <pt x="409" y="99" on="0"/>
        <pt x="364" y="99" on="1"/>
        <pt x="331" y="99" on="0"/>
        <pt x="289" y="105" on="1"/>
        <pt x="247" y="110" on="0"/>
        <pt x="214" y="110" on="1"/>
        <pt x="164" y="110" on="0"/>
        <pt x="90" y="99" on="1"/>
        <pt x="62" y="69" on="1"/>
        <pt x="82" y="72" on="1"/>
        <pt x="103" y="74" on="0"/>
        <pt x="135" y="77" on="1"/>
        <pt x="167" y="80" on="0"/>
        <pt x="190" y="80" on="1"/>
        <pt x="222" y="80" on="0"/>
        <pt x="262" y="75" on="1"/>
        <pt x="301" y="69" on="0"/>
        <pt x="333" y="69" on="1"/>
        <pt x="433" y="69" on="1"/>
        <pt x="465" y="69" on="0"/>
        <pt x="501" y="73" on="1"/>
        <pt x="536" y="77" on="0"/>
        <pt x="555" y="81" on="1"/>
        <pt x="574" y="84" on="0"/>
        <pt x="576" y="85" on="1"/>
      </contour>
    </TTGlyph>
    <TTGlyph name="asciitilde.2" xMin="48" yMin="336" xMax="562" yMax="584">
      <contour>
        <pt x="562" y="577" on="1"/>
        <pt x="562" y="584" on="0"/>
        <pt x="554" y="584" on="1"/>
        <pt x="551" y="584" on="0"/>
        <pt x="549" y="582" on="1"/>
        <pt x="546" y="579" on="0"/>
        <pt x="539" y="573" on="1"/>
        <pt x="532" y="566" on="0"/>
        <pt x="529" y="562" on="1"/>
        <pt x="513" y="543" on="0"/>
        <pt x="479" y="523" on="1"/>
        <pt x="447" y="504" on="0"/>
        <pt x="418" y="504" on="1"/>
        <pt x="329" y="504" on="1"/>
        <pt x="299" y="504" on="0"/>
        <pt x="253" y="531" on="1"/>
        <pt x="204" y="560" on="0"/>
        <pt x="169" y="560" on="1"/>
        <pt x="116" y="560" on="0"/>
        <pt x="50" y="502" on="1"/>
        <pt x="48" y="501" on="0"/>
        <pt x="48" y="496" on="1"/>
        <pt x="48" y="344" on="1"/>
        <pt x="48" y="336" on="0"/>
        <pt x="55" y="336" on="1"/>
        <pt x="58" y="336" on="0"/>
        <pt x="60" y="338" on="1"/>
        <pt x="78" y="352" on="1"/>
        <pt x="93" y="364" on="0"/>
        <pt x="124" y="379" on="1"/>
        <pt x="151" y="392" on="0"/>
        <pt x="173" y="392" on="1"/>
        <pt x="204" y="392" on="0"/>
        <pt x="246" y="366" on="1"/>
        <pt x="293" y="336" on="0"/>
        <pt x="326" y="336" on="1"/>
        <pt x="426" y="336" on="1"/>
        <pt x="459" y="336" on="0"/>
        <pt x="494" y="358" on="1"/>
        <pt x="535" y="385" on="0"/>
        <pt x="556" y="414" on="1"/>
        <pt x="562" y="420" on="0"/>
        <pt x="562" y="425" on="1"/>
      </contour>
      <contour>
        <pt x="418" y="490" on="1"/>
        <pt x="451" y="490" on="0"/>
        <pt x="487" y="511" on="1"/>
        <pt x="524" y="533" on="0"/>
        <pt x="541" y="552" on="1"/>
        <pt x="546" y="558" on="1"/>
        <pt x="546" y="427" on="1"/>
        <pt x="542" y="420" on="0"/>
        <pt x="532" y="408" on="1"/>
        <pt x="514" y="389" on="0"/>
        <pt x="486" y="371" on="1"/>
        <pt x="457" y="352" on="0"/>
        <pt x="426" y="352" on="1"/>
        <pt x="326" y="352" on="1"/>
        <pt x="295" y="352" on="0"/>
        <pt x="253" y="378" on="1"/>
        <pt x="206" y="408" on="0"/>
        <pt x="173" y="408" on="1"/>
        <pt x="125" y="408" on="0"/>
        <pt x="62" y="359" on="1"/>
        <pt x="62" y="493" on="1"/>
        <pt x="122" y="544" on="0"/>
        <pt x="169" y="544" on="1"/>
        <pt x="200" y="544" on="0"/>
        <pt x="245" y="518" on="1"/>
        <pt x="292" y="490" on="0"/>
        <pt x="329" y="490" on="1"/>
      </contour>
    </TTGlyph>
    <TTGlyph name="asciitilde.3" xMin="50" yMin="344" xMax="549" yMax="577">
      <component glyphName="asciitilde.0" x="-35" y="0" flags="0x4"/>
    </TTGlyph>
    <TTGlyph name="asterisk" xMin="50" yMin="149" xMax="594" yMax="692">
      <contour>
        <pt x="594" y="496" on="1"/>
        <pt x="594" y="344" on="1"/>
        <pt x="505" y="344" on="1"/>
        <pt x="568" y="281" on="1"/>
        <pt x="461" y="174" on="1"/>
        <pt x="398" y="237" on="1"/>
        <pt x="398" y="149" on="1"/>
        <pt x="246" y="149" on="1"/>
        <pt x="246" y="237" on="1"/>
        <pt x="183" y="174" on="1"/>
        <pt x="76" y="281" on="1"/>
        <pt x="139" y="344" on="1"/>
        <pt x="50" y="344" on="1"/>
        <pt x="50" y="496" on="1"/>
        <pt x="139" y="496" on="1"/>
        <pt x="76" y="559" on="1"/>
        <pt x="183" y="666" on="1"/>
        <pt x="246" y="603" on="1"/>
        <pt x="246" y="692" on="1"/>
        <pt x="398" y="692" on="1"/>
        <pt x="398" y="603" on="1"/>
        <pt x="461" y="666" on="1"/>
        <pt x="568" y="559" on="1"/>
        <pt x="505" y="496" on="1"/>
      </contour>
    </TTGlyph>
    <TTGlyph name="asterisk.0" xMin="85" yMin="149" xMax="629" yMax="692">
      <contour>
        <pt x="629" y="496" on="1"/>
        <pt x="540" y="496" on="1"/>
        <pt x="603" y="559" on="1"/>
        <pt x="496" y="666" on="1"/>
        <pt x="433" y="603" on="1"/>
        <pt x="433" y="692" on="1"/>
        <pt x="281" y="692" on="1"/>
        <pt x="281" y="603" on="1"/>
        <pt x="218" y="666" on="1"/>
        <pt x="111" y="559" on="1"/>
        <pt x="174" y="496" on="1"/>
        <pt x="85" y="496" on="1"/>
        <pt x="85" y="344" on="1"/>
        <pt x="174" y="344" on="1"/>
        <pt x="111" y="281" on="1"/>
        <pt x="218" y="174" on="1"/>
        <pt x="281" y="237" on="1"/>
        <pt x="281" y="149" on="1"/>
        <pt x="433" y="149" on="1"/>
        <pt x="433" y="237" on="1"/>
        <pt x="496" y="174" on="1"/>
        <pt x="603" y="281" on="1"/>
        <pt x="540" y="344" on="1"/>
        <pt x="629" y="344" on="1"/>
      </contour>
    </TTGlyph>
    <TTGlyph name="asterisk.1" xMin="66" yMin="30" xMax="639" yMax="138">
      <contour>
        <pt x="639" y="99" on="1"/>
        <pt x="550" y="99" on="1"/>
        <pt x="625" y="112" on="1"/>
        <pt x="537" y="133" on="1"/>
        <pt x="463" y="121" on="1"/>
        <pt x="479" y="138" on="1"/>
        <pt x="327" y="138" on="1"/>
        <pt x="311" y="121" on="1"/>
        <pt x="259" y="133" on="1"/>
        <pt x="133" y="112" on="1"/>
        <pt x="184" y="99" on="1"/>
        <pt x="95" y="99" on="1"/>
        <pt x="66" y="69" on="1"/>
        <pt x="155" y="69" on="1"/>
        <pt x="80" y="56" on="1"/>
        <pt x="168" y="35" on="1"/>
        <pt x="242" y="47" on="1"/>
        <pt x="226" y="30" on="1"/>
        <pt x="378" y="30" on="1"/>
        <pt x="394" y="47" on="1"/>
        <pt x="446" y="35" on="1"/>
        <pt x="572" y="56" on="1"/>
        <pt x="521" y="69" on="1"/>
        <pt x="610" y="69" on="1"/>
      </contour>
    </TTGlyph>
    <TTGlyph name="asterisk.2" xMin="48" yMin="142" xMax="606" yMax="700">
      <contour>
        <pt x="606" y="496" on="1"/>
        <pt x="606" y="504" on="0"/>
        <pt x="599" y="504" on="1"/>
        <pt x="528" y="504" on="1"/>
        <pt x="578" y="554" on="1"/>
        <pt x="580" y="556" on="0"/>
        <pt x="580" y="559" on="1"/>
        <pt x="580" y="562" on="0"/>
        <pt x="578" y="564" on="1"/>
        <pt x="471" y="671" on="1"/>
        <pt x="468" y="674" on="0"/>
        <pt x="466" y="674" on="1"/>
        <pt x="464" y="674" on="0"/>
        <pt x="461" y="671" on="1"/>
        <pt x="410" y="621" on="1"/>
        <pt x="410" y="692" on="1"/>
        <pt x="410" y="700" on="0"/>
        <pt x="403" y="700" on="1"/>
        <pt x="251" y="700" on="1"/>
        <pt x="244" y="700" on="0"/>
        <pt x="244" y="692" on="1"/>
        <pt x="244" y="621" on="1"/>
        <pt x="193" y="671" on="1"/>
        <pt x="190" y="674" on="0"/>
        <pt x="188" y="674" on="1"/>
        <pt x="186" y="674" on="0"/>
        <pt x="183" y="671" on="1"/>
        <pt x="76" y="564" on="1"/>
        <pt x="74" y="562" on="0"/>
        <pt x="74" y="559" on="1"/>
        <pt x="74" y="556" on="0"/>
        <pt x="76" y="554" on="1"/>
        <pt x="126" y="504" on="1"/>
        <pt x="55" y="504" on="1"/>
        <pt x="48" y="504" on="0"/>
        <pt x="48" y="496" on="1"/>
        <pt x="48" y="344" on="1"/>
        <pt x="48" y="336" on="0"/>
        <pt x="55" y="336" on="1"/>
        <pt x="126" y="336" on="1"/>
        <pt x="76" y="286" on="1"/>
        <pt x="74" y="284" on="0"/>
        <pt x="74" y="281" on="1"/>
        <pt x="74" y="278" on="0"/>
        <pt x="76" y="276" on="1"/>
        <pt x="183" y="169" on="1"/>
        <pt x="186" y="166" on="0"/>
        <pt x="188" y="166" on="1"/>
        <pt x="190" y="166" on="0"/>
        <pt x="193" y="169" on="1"/>
        <pt x="244" y="219" on="1"/>
        <pt x="244" y="149" on="1"/>
        <pt x="244" y="142" on="0"/>
        <pt x="251" y="142" on="1"/>
        <pt x="403" y="142" on="1"/>
        <pt x="410" y="142" on="0"/>
        <pt x="410" y="149" on="1"/>
        <pt x="410" y="219" on="1"/>
        <pt x="461" y="169" on="1"/>
        <pt x="464" y="166" on="0"/>
        <pt x="466" y="166" on="1"/>
        <pt x="468" y="166" on="0"/>
        <pt x="471" y="169" on="1"/>
        <pt x="578" y="276" on="1"/>
        <pt x="580" y="278" on="0"/>
        <pt x="580" y="281" on="1"/>
        <pt x="580" y="284" on="0"/>
        <pt x="578" y="286" on="1"/>
        <pt x="528" y="336" on="1"/>
        <pt x="599" y="336" on="1"/>
        <pt x="606" y="336" on="0"/>
        <pt x="606" y="344" on="1"/>
      </contour>
      <contour>
        <pt x="592" y="352" on="1"/>
        <pt x="510" y="352" on="1"/>
        <pt x="502" y="352" on="0"/>
        <pt x="502" y="344" on="1"/>
        <pt x="502" y="342" on="0"/>
        <pt x="505" y="339" on="1"/>
        <pt x="562" y="281" on="1"/>
        <pt x="466" y="185" on="1"/>
        <pt x="408" y="242" on="1"/>
        <pt x="406" y="244" on="0"/>
        <pt x="403" y="244" on="1"/>
        <pt x="396" y="244" on="0"/>
        <pt x="396" y="237" on="1"/>
        <pt x="396" y="156" on="1"/>
        <pt x="258" y="156" on="1"/>
        <pt x="258" y="237" on="1"/>
        <pt x="258" y="244" on="0"/>
        <pt x="251" y="244" on="1"/>
        <pt x="248" y="244" on="0"/>
        <pt x="246" y="242" on="1"/>
        <pt x="188" y="185" on="1"/>
        <pt x="92" y="281" on="1"/>
        <pt x="149" y="339" on="1"/>
        <pt x="152" y="342" on="0"/>
        <pt x="152" y="344" on="1"/>
        <pt x="152" y="352" on="0"/>
        <pt x="144" y="352" on="1"/>
        <pt x="62" y="352" on="1"/>
        <pt x="62" y="488" on="1"/>
        <pt x="144" y="488" on="1"/>
        <pt x="152" y="488" on="0"/>
        <pt x="152" y="496" on="1"/>
        <pt x="152" y="498" on="0"/>
        <pt x="149" y="501" on="1"/>
        <pt x="92" y="559" on="1"/>
        <pt x="188" y="655" on="1"/>
        <pt x="246" y="598" on="1"/>
        <pt x="248" y="596" on="0"/>
        <pt x="251" y="596" on="1"/>
        <pt x="258" y="596" on="0"/>
        <pt x="258" y="603" on="1"/>
        <pt x="258" y="684" on="1"/>
        <pt x="396" y="684" on="1"/>
        <pt x="396" y="603" on="1"/>
        <pt x="396" y="596" on="0"/>
        <pt x="403" y="596" on="1"/>
        <pt x="406" y="596" on="0"/>
        <pt x="408" y="598" on="1"/>
        <pt x="466" y="655" on="1"/>
        <pt x="562" y="559" on="1"/>
        <pt x="505" y="501" on="1"/>
        <pt x="502" y="498" on="0"/>
        <pt x="502" y="496" on="1"/>
        <pt x="502" y="488" on="0"/>
        <pt x="510" y="488" on="1"/>
        <pt x="592" y="488" on="1"/>
      </contour>
    </TTGlyph>
    <TTGlyph name="asterisk.3" xMin="50" yMin="149" xMax="594" yMax="692">
      <component glyphName="asterisk.0" x="-35" y="0" flags="0x4"/>
    </TTGlyph>
    <TTGlyph name="at" xMin="41" yMin="-22" xMax="835" yMax="767">
      <contour>
        <pt x="524" y="166" on="1"/>
      </contour>
      <contour>
        <pt x="485" y="420" on="1"/>
        <pt x="481" y="421" on="0"/>
        <pt x="473" y="421" on="1"/>
        <pt x="450" y="421" on="0"/>
        <pt x="419" y="390" on="0"/>
        <pt x="419" y="346" on="0"/>
        <pt x="450" y="314" on="0"/>
        <pt x="473" y="314" on="1"/>
        <pt x="477" y="314" on="0"/>
        <pt x="485" y="316" on="1"/>
      </contour>
      <contour>
        <pt x="561" y="236" on="1"/>
      </contour>
      <contour>
        <pt x="487" y="228" on="1"/>
        <pt x="473" y="239" on="1"/>
        <pt x="419" y="239" on="0"/>
        <pt x="343" y="314" on="0"/>
        <pt x="343" y="368" on="1"/>
        <pt x="343" y="421" on="0"/>
        <pt x="419" y="492" on="0"/>
        <pt x="473" y="492" on="1"/>
        <pt x="485" y="492" on="1"/>
        <pt x="561" y="492" on="1"/>
        <pt x="568" y="318" on="1"/>
        <pt x="570" y="306" on="0"/>
        <pt x="597" y="278" on="0"/>
        <pt x="630" y="263" on="0"/>
        <pt x="659" y="289" on="0"/>
        <pt x="662" y="326" on="1"/>
        <pt x="662" y="327" on="0"/>
        <pt x="658" y="341" on="0"/>
        <pt x="658" y="342" on="1"/>
        <pt x="667" y="396" on="0"/>
        <pt x="635" y="501" on="0"/>
        <pt x="595" y="541" on="1"/>
        <pt x="527" y="608" on="0"/>
        <pt x="336" y="605" on="0"/>
        <pt x="268" y="537" on="1"/>
        <pt x="199" y="468" on="0"/>
        <pt x="197" y="277" on="0"/>
        <pt x="264" y="209" on="1"/>
        <pt x="316" y="157" on="0"/>
        <pt x="460" y="135" on="0"/>
        <pt x="524" y="166" on="1"/>
        <pt x="535" y="171" on="0"/>
        <pt x="591" y="115" on="0"/>
        <pt x="614" y="84" on="1"/>
        <pt x="637" y="54" on="1"/>
        <pt x="524" y="-22" on="0"/>
        <pt x="250" y="1" on="0"/>
        <pt x="153" y="98" on="1"/>
        <pt x="41" y="210" on="0"/>
        <pt x="46" y="532" on="0"/>
        <pt x="276" y="762" on="0"/>
        <pt x="597" y="767" on="0"/>
        <pt x="709" y="655" on="1"/>
        <pt x="793" y="571" on="0"/>
        <pt x="835" y="325" on="0"/>
        <pt x="787" y="220" on="1"/>
        <pt x="765" y="207" on="0"/>
        <pt x="721" y="191" on="0"/>
        <pt x="672" y="188" on="0"/>
        <pt x="638" y="187" on="0"/>
        <pt x="584" y="200" on="0"/>
        <pt x="559" y="206" on="0"/>
        <pt x="496" y="225" on="0"/>
      </contour>
    </TTGlyph>
    <TTGlyph name="at.0" xMin="76" yMin="-22" xMax="870" yMax="767">
      <contour>
        <pt x="520" y="420" on="1"/>
        <pt x="520" y="316" on="1"/>
        <pt x="512" y="314" on="0"/>
        <pt x="508" y="314" on="1"/>
        <pt x="485" y="314" on="0"/>
        <pt x="470" y="330" on="1"/>
        <pt x="454" y="346" on="0"/>
        <pt x="454" y="368" on="1"/>
        <pt x="454" y="390" on="0"/>
        <pt x="470" y="406" on="1"/>
        <pt x="485" y="421" on="0"/>
        <pt x="508" y="421" on="1"/>
        <pt x="516" y="421" on="0"/>
      </contour>
      <contour>
        <pt x="522" y="228" on="1"/>
        <pt x="531" y="225" on="0"/>
        <pt x="563" y="216" on="1"/>
        <pt x="594" y="206" on="0"/>
        <pt x="607" y="203" on="1"/>
        <pt x="619" y="200" on="0"/>
        <pt x="646" y="194" on="1"/>
        <pt x="673" y="187" on="0"/>
        <pt x="690" y="188" on="1"/>
        <pt x="707" y="188" on="0"/>
        <pt x="732" y="190" on="1"/>
        <pt x="756" y="191" on="0"/>
        <pt x="778" y="199" on="1"/>
        <pt x="800" y="207" on="0"/>
        <pt x="822" y="220" on="1"/>
        <pt x="870" y="325" on="0"/>
        <pt x="849" y="448" on="1"/>
        <pt x="828" y="571" on="0"/>
        <pt x="744" y="655" on="1"/>
        <pt x="632" y="767" on="0"/>
        <pt x="472" y="765" on="1"/>
        <pt x="311" y="762" on="0"/>
        <pt x="196" y="647" on="1"/>
        <pt x="81" y="532" on="0"/>
        <pt x="79" y="371" on="1"/>
        <pt x="76" y="210" on="0"/>
        <pt x="188" y="98" on="1"/>
        <pt x="285" y="1" on="0"/>
        <pt x="422" y="-10" on="1"/>
        <pt x="559" y="-22" on="0"/>
        <pt x="672" y="54" on="1"/>
        <pt x="649" y="84" on="1"/>
        <pt x="626" y="114" on="0"/>
        <pt x="598" y="143" on="1"/>
        <pt x="570" y="171" on="0"/>
        <pt x="559" y="166" on="1"/>
        <pt x="495" y="135" on="0"/>
        <pt x="423" y="146" on="1"/>
        <pt x="351" y="157" on="0"/>
        <pt x="299" y="209" on="1"/>
        <pt x="232" y="277" on="0"/>
        <pt x="233" y="373" on="1"/>
        <pt x="234" y="468" on="0"/>
        <pt x="303" y="537" on="1"/>
        <pt x="371" y="605" on="0"/>
        <pt x="467" y="607" on="1"/>
        <pt x="562" y="608" on="0"/>
        <pt x="630" y="541" on="1"/>
        <pt x="670" y="501" on="0"/>
        <pt x="686" y="449" on="1"/>
        <pt x="702" y="396" on="0"/>
        <pt x="693" y="342" on="1"/>
        <pt x="693" y="341" on="0"/>
        <pt x="695" y="334" on="1"/>
        <pt x="697" y="327" on="0"/>
        <pt x="697" y="326" on="1"/>
        <pt x="694" y="289" on="0"/>
        <pt x="680" y="276" on="1"/>
        <pt x="665" y="263" on="0"/>
        <pt x="649" y="271" on="1"/>
        <pt x="632" y="278" on="0"/>
        <pt x="619" y="292" on="1"/>
        <pt x="605" y="306" on="0"/>
        <pt x="603" y="318" on="1"/>
        <pt x="596" y="492" on="1"/>
        <pt x="520" y="492" on="1"/>
        <pt x="508" y="492" on="1"/>
        <pt x="454" y="492" on="0"/>
        <pt x="416" y="457" on="1"/>
        <pt x="378" y="421" on="0"/>
        <pt x="378" y="368" on="1"/>
        <pt x="378" y="314" on="0"/>
        <pt x="416" y="277" on="1"/>
        <pt x="454" y="239" on="0"/>
        <pt x="508" y="239" on="1"/>
      </contour>
    </TTGlyph>
    <TTGlyph name="at.1" xMin="37" yMin="-4" xMax="857" yMax="153">
      <contour>
        <pt x="521" y="84" on="1"/>
        <pt x="501" y="63" on="1"/>
        <pt x="493" y="63" on="0"/>
        <pt x="489" y="63" on="1"/>
        <pt x="466" y="63" on="0"/>
        <pt x="453" y="66" on="1"/>
        <pt x="440" y="69" on="0"/>
        <pt x="445" y="74" on="1"/>
        <pt x="449" y="78" on="0"/>
        <pt x="468" y="81" on="1"/>
        <pt x="486" y="84" on="0"/>
        <pt x="509" y="84" on="1"/>
        <pt x="517" y="84" on="0"/>
      </contour>
      <contour>
        <pt x="487" y="46" on="1"/>
        <pt x="496" y="45" on="0"/>
        <pt x="525" y="43" on="1"/>
        <pt x="554" y="41" on="0"/>
        <pt x="567" y="41" on="1"/>
        <pt x="579" y="40" on="0"/>
        <pt x="605" y="39" on="1"/>
        <pt x="630" y="37" on="0"/>
        <pt x="648" y="38" on="1"/>
        <pt x="665" y="38" on="0"/>
        <pt x="690" y="38" on="1"/>
        <pt x="714" y="38" on="0"/>
        <pt x="737" y="40" on="1"/>
        <pt x="760" y="41" on="0"/>
        <pt x="785" y="44" on="1"/>
        <pt x="853" y="65" on="0"/>
        <pt x="855" y="90" on="1"/>
        <pt x="857" y="114" on="0"/>
        <pt x="789" y="131" on="1"/>
        <pt x="698" y="153" on="0"/>
        <pt x="537" y="153" on="1"/>
        <pt x="375" y="152" on="0"/>
        <pt x="239" y="129" on="1"/>
        <pt x="103" y="106" on="0"/>
        <pt x="70" y="74" on="1"/>
        <pt x="37" y="42" on="0"/>
        <pt x="128" y="20" on="1"/>
        <pt x="207" y="0" on="0"/>
        <pt x="342" y="-2" on="1"/>
        <pt x="476" y="-4" on="0"/>
        <pt x="604" y="11" on="1"/>
        <pt x="586" y="17" on="1"/>
        <pt x="569" y="23" on="0"/>
        <pt x="546" y="29" on="1"/>
        <pt x="523" y="34" on="0"/>
        <pt x="512" y="33" on="1"/>
        <pt x="442" y="27" on="0"/>
        <pt x="372" y="30" on="1"/>
        <pt x="302" y="32" on="0"/>
        <pt x="260" y="42" on="1"/>
        <pt x="205" y="55" on="0"/>
        <pt x="224" y="74" on="1"/>
        <pt x="243" y="93" on="0"/>
        <pt x="325" y="107" on="1"/>
        <pt x="406" y="121" on="0"/>
        <pt x="502" y="121" on="1"/>
        <pt x="597" y="121" on="0"/>
        <pt x="653" y="108" on="1"/>
        <pt x="685" y="100" on="0"/>
        <pt x="692" y="90" on="1"/>
        <pt x="698" y="79" on="0"/>
        <pt x="679" y="68" on="1"/>
        <pt x="680" y="66" on="1"/>
        <pt x="680" y="65" on="1"/>
        <pt x="670" y="58" on="0"/>
        <pt x="653" y="56" on="1"/>
        <pt x="636" y="53" on="0"/>
        <pt x="622" y="55" on="1"/>
        <pt x="607" y="56" on="0"/>
        <pt x="596" y="59" on="1"/>
        <pt x="584" y="62" on="0"/>
        <pt x="585" y="64" on="1"/>
        <pt x="610" y="98" on="1"/>
        <pt x="534" y="98" on="1"/>
        <pt x="522" y="98" on="1"/>
        <pt x="468" y="98" on="0"/>
        <pt x="424" y="92" on="1"/>
        <pt x="380" y="85" on="0"/>
        <pt x="370" y="74" on="1"/>
        <pt x="359" y="63" on="0"/>
        <pt x="390" y="56" on="1"/>
        <pt x="420" y="48" on="0"/>
        <pt x="474" y="48" on="1"/>
      </contour>
    </TTGlyph>
    <TTGlyph name="at.2" xMin="41" yMin="-22" xMax="835" yMax="767">
      <contour>
        <pt x="485" y="420" on="1"/>
        <pt x="485" y="316" on="1"/>
        <pt x="477" y="314" on="0"/>
        <pt x="473" y="314" on="1"/>
        <pt x="450" y="314" on="0"/>
        <pt x="435" y="330" on="1"/>
        <pt x="419" y="346" on="0"/>
        <pt x="419" y="368" on="1"/>
        <pt x="419" y="390" on="0"/>
        <pt x="435" y="406" on="1"/>
        <pt x="450" y="421" on="0"/>
        <pt x="473" y="421" on="1"/>
        <pt x="481" y="421" on="0"/>
      </contour>
      <contour>
        <pt x="487" y="228" on="1"/>
        <pt x="496" y="225" on="0"/>
        <pt x="528" y="216" on="1"/>
        <pt x="559" y="206" on="0"/>
        <pt x="572" y="203" on="1"/>
        <pt x="584" y="200" on="0"/>
        <pt x="611" y="194" on="1"/>
        <pt x="638" y="187" on="0"/>
        <pt x="655" y="188" on="1"/>
        <pt x="672" y="188" on="0"/>
        <pt x="697" y="190" on="1"/>
        <pt x="721" y="191" on="0"/>
        <pt x="743" y="199" on="1"/>
        <pt x="765" y="207" on="0"/>
        <pt x="787" y="220" on="1"/>
        <pt x="835" y="325" on="0"/>
        <pt x="814" y="448" on="1"/>
        <pt x="793" y="571" on="0"/>
        <pt x="709" y="655" on="1"/>
        <pt x="597" y="767" on="0"/>
        <pt x="437" y="765" on="1"/>
        <pt x="276" y="762" on="0"/>
        <pt x="161" y="647" on="1"/>
        <pt x="46" y="532" on="0"/>
        <pt x="44" y="371" on="1"/>
        <pt x="41" y="210" on="0"/>
        <pt x="153" y="98" on="1"/>
        <pt x="250" y="1" on="0"/>
        <pt x="387" y="-10" on="1"/>
        <pt x="524" y="-22" on="0"/>
        <pt x="637" y="54" on="1"/>
        <pt x="614" y="84" on="1"/>
        <pt x="591" y="115" on="0"/>
        <pt x="563" y="143" on="1"/>
        <pt x="535" y="171" on="0"/>
        <pt x="524" y="166" on="1"/>
        <pt x="460" y="135" on="0"/>
        <pt x="388" y="146" on="1"/>
        <pt x="316" y="157" on="0"/>
        <pt x="264" y="209" on="1"/>
        <pt x="197" y="277" on="0"/>
        <pt x="198" y="373" on="1"/>
        <pt x="199" y="468" on="0"/>
        <pt x="268" y="537" on="1"/>
        <pt x="336" y="605" on="0"/>
        <pt x="432" y="607" on="1"/>
        <pt x="527" y="608" on="0"/>
        <pt x="595" y="541" on="1"/>
        <pt x="635" y="501" on="0"/>
        <pt x="651" y="449" on="1"/>
        <pt x="667" y="396" on="0"/>
        <pt x="658" y="342" on="1"/>
        <pt x="658" y="341" on="0"/>
        <pt x="660" y="334" on="1"/>
        <pt x="662" y="327" on="0"/>
        <pt x="662" y="326" on="1"/>
        <pt x="659" y="289" on="0"/>
        <pt x="645" y="276" on="1"/>
        <pt x="630" y="263" on="0"/>
        <pt x="614" y="271" on="1"/>
        <pt x="597" y="278" on="0"/>
        <pt x="584" y="292" on="1"/>
        <pt x="570" y="306" on="0"/>
        <pt x="568" y="318" on="1"/>
        <pt x="561" y="492" on="1"/>
        <pt x="485" y="492" on="1"/>
        <pt x="473" y="492" on="1"/>
        <pt x="419" y="492" on="0"/>
        <pt x="381" y="457" on="1"/>
        <pt x="343" y="421" on="0"/>
        <pt x="343" y="368" on="1"/>
        <pt x="343" y="314" on="0"/>
        <pt x="381" y="277" on="1"/>
        <pt x="419" y="239" on="0"/>
        <pt x="473" y="239" on="1"/>
      </contour>
    </TTGlyph>
    <TTGlyph name="at.3" xMin="41" yMin="-20" xMax="833" yMax="772">
      <contour>
        <pt x="478" y="428" on="1"/>
        <pt x="451" y="428" on="0"/>
        <pt x="434" y="411" on="1"/>
        <pt x="416" y="393" on="0"/>
        <pt x="416" y="368" on="1"/>
        <pt x="416" y="343" on="0"/>
        <pt x="434" y="325" on="1"/>
        <pt x="453" y="306" on="0"/>
        <pt x="478" y="306" on="1"/>
        <pt x="480" y="306" on="0"/>
        <pt x="485" y="308" on="1"/>
        <pt x="489" y="309" on="0"/>
        <pt x="492" y="309" on="1"/>
        <pt x="498" y="311" on="0"/>
        <pt x="498" y="316" on="1"/>
        <pt x="498" y="420" on="1"/>
        <pt x="498" y="428" on="0"/>
      </contour>
      <contour>
        <pt x="432" y="368" on="1"/>
        <pt x="432" y="387" on="0"/>
        <pt x="445" y="400" on="1"/>
        <pt x="459" y="414" on="0"/>
        <pt x="478" y="414" on="1"/>
        <pt x="479" y="414" on="0"/>
        <pt x="480" y="414" on="1"/>
        <pt x="482" y="413" on="1"/>
        <pt x="482" y="322" on="1"/>
        <pt x="478" y="322" on="1"/>
        <pt x="458" y="322" on="0"/>
        <pt x="445" y="335" on="1"/>
        <pt x="432" y="348" on="0"/>
      </contour>
      <contour>
        <pt x="566" y="228" on="1"/>
        <pt x="574" y="228" on="0"/>
        <pt x="574" y="236" on="1"/>
        <pt x="574" y="244" on="0"/>
        <pt x="566" y="244" on="1"/>
        <pt x="558" y="244" on="0"/>
        <pt x="558" y="236" on="1"/>
        <pt x="558" y="228" on="0"/>
      </contour>
      <contour>
        <pt x="659" y="326" on="1"/>
        <pt x="656" y="292" on="0"/>
        <pt x="644" y="282" on="1"/>
        <pt x="637" y="275" on="0"/>
        <pt x="630" y="275" on="1"/>
        <pt x="628" y="275" on="0"/>
        <pt x="622" y="277" on="1"/>
        <pt x="604" y="286" on="0"/>
        <pt x="594" y="297" on="1"/>
        <pt x="581" y="311" on="0"/>
        <pt x="580" y="319" on="1"/>
        <pt x="573" y="492" on="1"/>
        <pt x="573" y="500" on="0"/>
        <pt x="566" y="500" on="1"/>
        <pt x="478" y="500" on="1"/>
        <pt x="422" y="500" on="0"/>
        <pt x="381" y="462" on="1"/>
        <pt x="340" y="424" on="0"/>
        <pt x="340" y="368" on="1"/>
        <pt x="340" y="310" on="0"/>
        <pt x="381" y="271" on="1"/>
        <pt x="418" y="234" on="0"/>
        <pt x="475" y="232" on="1"/>
        <pt x="487" y="222" on="1"/>
        <pt x="488" y="221" on="0"/>
        <pt x="490" y="221" on="1"/>
        <pt x="557" y="201" on="0"/>
        <pt x="575" y="196" on="1"/>
        <pt x="636" y="180" on="0"/>
        <pt x="658" y="180" on="1"/>
        <pt x="666" y="180" on="0"/>
        <pt x="702" y="182" on="1"/>
        <pt x="730" y="184" on="0"/>
        <pt x="751" y="192" on="1"/>
        <pt x="776" y="202" on="0"/>
        <pt x="796" y="214" on="1"/>
        <pt x="799" y="217" on="1"/>
        <pt x="833" y="291" on="0"/>
        <pt x="833" y="375" on="1"/>
        <pt x="833" y="405" on="0"/>
        <pt x="826" y="449" on="1"/>
        <pt x="805" y="574" on="0"/>
        <pt x="719" y="660" on="1"/>
        <pt x="607" y="772" on="0"/>
        <pt x="448" y="772" on="1"/>
        <pt x="441" y="772" on="1"/>
        <pt x="278" y="769" on="0"/>
        <pt x="161" y="652" on="1"/>
        <pt x="44" y="535" on="0"/>
        <pt x="41" y="371" on="1"/>
        <pt x="41" y="364" on="1"/>
        <pt x="41" y="205" on="0"/>
        <pt x="153" y="93" on="1"/>
        <pt x="252" y="-6" on="0"/>
        <pt x="391" y="-18" on="1"/>
        <pt x="415" y="-20" on="0"/>
        <pt x="428" y="-20" on="1"/>
        <pt x="545" y="-20" on="0"/>
        <pt x="646" y="48" on="1"/>
        <pt x="650" y="50" on="0"/>
        <pt x="650" y="54" on="1"/>
        <pt x="650" y="57" on="0"/>
        <pt x="648" y="59" on="1"/>
        <pt x="625" y="89" on="1"/>
        <pt x="603" y="116" on="0"/>
        <pt x="573" y="148" on="1"/>
        <pt x="547" y="174" on="0"/>
        <pt x="533" y="174" on="1"/>
        <pt x="531" y="174" on="0"/>
        <pt x="530" y="174" on="1"/>
        <pt x="529" y="174" on="0"/>
        <pt x="529" y="174" on="1"/>
        <pt x="527" y="174" on="0"/>
        <pt x="525" y="173" on="1"/>
        <pt x="480" y="151" on="0"/>
        <pt x="430" y="151" on="1"/>
        <pt x="406" y="151" on="0"/>
        <pt x="394" y="153" on="1"/>
        <pt x="324" y="164" on="0"/>
        <pt x="274" y="214" on="1"/>
        <pt x="210" y="278" on="0"/>
        <pt x="210" y="370" on="1"/>
        <pt x="210" y="464" on="0"/>
        <pt x="278" y="532" on="1"/>
        <pt x="345" y="599" on="0"/>
        <pt x="441" y="599" on="1"/>
        <pt x="530" y="599" on="0"/>
        <pt x="595" y="536" on="1"/>
        <pt x="634" y="497" on="0"/>
        <pt x="649" y="446" on="1"/>
        <pt x="659" y="415" on="0"/>
        <pt x="659" y="381" on="1"/>
        <pt x="659" y="362" on="0"/>
        <pt x="656" y="343" on="1"/>
        <pt x="656" y="342" on="1"/>
        <pt x="656" y="335" on="0"/>
      </contour>
      <contour>
        <pt x="671" y="342" on="1"/>
        <pt x="674" y="362" on="0"/>
        <pt x="674" y="381" on="1"/>
        <pt x="674" y="415" on="0"/>
        <pt x="663" y="451" on="1"/>
        <pt x="647" y="504" on="0"/>
        <pt x="605" y="546" on="1"/>
        <pt x="535" y="614" on="0"/>
        <pt x="441" y="614" on="1"/>
        <pt x="340" y="614" on="0"/>
        <pt x="268" y="542" on="1"/>
        <pt x="195" y="469" on="0"/>
        <pt x="195" y="370" on="1"/>
        <pt x="195" y="275" on="0"/>
        <pt x="264" y="204" on="1"/>
        <pt x="317" y="151" on="0"/>
        <pt x="392" y="139" on="1"/>
        <pt x="412" y="136" on="0"/>
        <pt x="430" y="136" on="1"/>
        <pt x="485" y="136" on="0"/>
        <pt x="530" y="158" on="1"/>
        <pt x="531" y="158" on="0"/>
        <pt x="532" y="159" on="1"/>
        <pt x="533" y="159" on="1"/>
        <pt x="542" y="159" on="0"/>
        <pt x="563" y="138" on="1"/>
        <pt x="591" y="109" on="0"/>
        <pt x="613" y="79" on="1"/>
        <pt x="631" y="56" on="1"/>
        <pt x="536" y="-5" on="0"/>
        <pt x="428" y="-5" on="1"/>
        <pt x="417" y="-5" on="0"/>
        <pt x="393" y="-3" on="1"/>
        <pt x="257" y="9" on="0"/>
        <pt x="163" y="103" on="1"/>
        <pt x="56" y="210" on="0"/>
        <pt x="56" y="364" on="1"/>
        <pt x="56" y="527" on="0"/>
        <pt x="171" y="642" on="1"/>
        <pt x="286" y="757" on="0"/>
        <pt x="448" y="757" on="1"/>
        <pt x="602" y="757" on="0"/>
        <pt x="709" y="650" on="1"/>
        <pt x="791" y="568" on="0"/>
        <pt x="812" y="447" on="1"/>
        <pt x="818" y="410" on="0"/>
        <pt x="818" y="375" on="1"/>
        <pt x="818" y="297" on="0"/>
        <pt x="786" y="225" on="1"/>
        <pt x="740" y="199" on="0"/>
        <pt x="701" y="197" on="1"/>
        <pt x="667" y="195" on="0"/>
        <pt x="658" y="195" on="1"/>
        <pt x="642" y="195" on="0"/>
        <pt x="618" y="201" on="1"/>
        <pt x="578" y="210" on="1"/>
        <pt x="574" y="211" on="0"/>
        <pt x="556" y="217" on="1"/>
        <pt x="538" y="222" on="0"/>
        <pt x="518" y="228" on="1"/>
        <pt x="498" y="234" on="0"/>
        <pt x="496" y="235" on="1"/>
        <pt x="483" y="245" on="1"/>
        <pt x="482" y="246" on="0"/>
        <pt x="478" y="246" on="1"/>
        <pt x="427" y="246" on="0"/>
        <pt x="391" y="282" on="1"/>
        <pt x="356" y="317" on="0"/>
        <pt x="356" y="368" on="1"/>
        <pt x="356" y="419" on="0"/>
        <pt x="391" y="451" on="1"/>
        <pt x="427" y="484" on="0"/>
        <pt x="478" y="484" on="1"/>
        <pt x="559" y="484" on="1"/>
        <pt x="566" y="318" on="1"/>
        <pt x="566" y="317" on="1"/>
        <pt x="569" y="301" on="0"/>
        <pt x="583" y="287" on="1"/>
        <pt x="600" y="270" on="0"/>
        <pt x="615" y="264" on="1"/>
        <pt x="625" y="260" on="0"/>
        <pt x="630" y="260" on="1"/>
        <pt x="643" y="260" on="0"/>
        <pt x="655" y="270" on="1"/>
        <pt x="671" y="284" on="0"/>
        <pt x="674" y="325" on="1"/>
        <pt x="674" y="326" on="1"/>
        <pt x="674" y="330" on="0"/>
      </contour>
    </TTGlyph>
    <TTGlyph name="b" xMin="50" yMin="3" xMax="484" yMax="780">
      <contour>
        <pt x="202" y="780" on="1"/>
        <pt x="202" y="517" on="1"/>
        <pt x="210" y="518" on="0"/>
        <pt x="226" y="518" on="1"/>
        <pt x="333" y="518" on="0"/>
        <pt x="484" y="367" on="0"/>
        <pt x="484" y="153" on="0"/>
        <pt x="333" y="3" on="0"/>
        <pt x="226" y="3" on="1"/>
        <pt x="210" y="3" on="0"/>
        <pt x="202" y="4" on="1"/>
        <pt x="50" y="4" on="1"/>
        <pt x="50" y="780" on="1"/>
      </contour>
      <contour>
        <pt x="202" y="157" on="1"/>
        <pt x="214" y="154" on="0"/>
        <pt x="226" y="154" on="1"/>
        <pt x="271" y="154" on="0"/>
        <pt x="333" y="216" on="0"/>
        <pt x="333" y="260" on="1"/>
        <pt x="333" y="305" on="0"/>
        <pt x="271" y="367" on="0"/>
        <pt x="226" y="367" on="1"/>
        <pt x="214" y="367" on="0"/>
        <pt x="202" y="364" on="1"/>
      </contour>
    </TTGlyph>
    <TTGlyph name="b.0" xMin="85" yMin="3" xMax="519" yMax="780">
      <contour>
        <pt x="237" y="780" on="1"/>
        <pt x="85" y="780" on="1"/>
        <pt x="85" y="4" on="1"/>
        <pt x="237" y="4" on="1"/>
        <pt x="245" y="3" on="0"/>
        <pt x="261" y="3" on="1"/>
        <pt x="368" y="3" on="0"/>
        <pt x="444" y="78" on="1"/>
        <pt x="519" y="153" on="0"/>
        <pt x="519" y="260" on="1"/>
        <pt x="519" y="367" on="0"/>
        <pt x="444" y="443" on="1"/>
        <pt x="368" y="518" on="0"/>
        <pt x="261" y="518" on="1"/>
        <pt x="245" y="518" on="0"/>
        <pt x="237" y="517" on="1"/>
      </contour>
      <contour>
        <pt x="237" y="157" on="1"/>
        <pt x="237" y="364" on="1"/>
        <pt x="249" y="367" on="0"/>
        <pt x="261" y="367" on="1"/>
        <pt x="306" y="367" on="0"/>
        <pt x="337" y="336" on="1"/>
        <pt x="368" y="305" on="0"/>
        <pt x="368" y="260" on="1"/>
        <pt x="368" y="216" on="0"/>
        <pt x="337" y="185" on="1"/>
        <pt x="306" y="154" on="0"/>
        <pt x="261" y="154" on="1"/>
        <pt x="249" y="154" on="0"/>
      </contour>
    </TTGlyph>
    <TTGlyph name="b.1" xMin="5" yMin="1" xMax="508" yMax="156">
      <contour>
        <pt x="304" y="156" on="1"/>
        <pt x="152" y="156" on="1"/>
        <pt x="5" y="1" on="1"/>
        <pt x="157" y="1" on="1"/>
        <pt x="165" y="1" on="0"/>
        <pt x="181" y="1" on="1"/>
        <pt x="288" y="1" on="0"/>
        <pt x="378" y="16" on="1"/>
        <pt x="468" y="31" on="0"/>
        <pt x="488" y="52" on="1"/>
        <pt x="508" y="73" on="0"/>
        <pt x="447" y="89" on="1"/>
        <pt x="386" y="104" on="0"/>
        <pt x="279" y="104" on="1"/>
        <pt x="262" y="103" on="0"/>
        <pt x="254" y="103" on="1"/>
      </contour>
      <contour>
        <pt x="186" y="31" on="1"/>
        <pt x="225" y="73" on="1"/>
        <pt x="238" y="73" on="0"/>
        <pt x="250" y="73" on="1"/>
        <pt x="295" y="73" on="0"/>
        <pt x="320" y="67" on="1"/>
        <pt x="345" y="61" on="0"/>
        <pt x="337" y="52" on="1"/>
        <pt x="329" y="43" on="0"/>
        <pt x="292" y="37" on="1"/>
        <pt x="255" y="31" on="0"/>
        <pt x="210" y="31" on="1"/>
        <pt x="197" y="30" on="0"/>
      </contour>
    </TTGlyph>
    <TTGlyph name="b.2" xMin="48" yMin="-4" xMax="496" yMax="788">
      <contour>
        <pt x="55" y="-4" on="1"/>
        <pt x="207" y="-4" on="1"/>
        <pt x="231" y="-4" on="0"/>
        <pt x="231" y="-4" on="1"/>
        <pt x="340" y="-4" on="0"/>
        <pt x="419" y="73" on="1"/>
        <pt x="496" y="149" on="0"/>
        <pt x="496" y="260" on="1"/>
        <pt x="496" y="371" on="0"/>
        <pt x="419" y="448" on="1"/>
        <pt x="341" y="526" on="0"/>
        <pt x="231" y="526" on="1"/>
        <pt x="228" y="526" on="0"/>
        <pt x="222" y="526" on="1"/>
        <pt x="216" y="525" on="0"/>
        <pt x="214" y="525" on="1"/>
        <pt x="214" y="780" on="1"/>
        <pt x="214" y="788" on="0"/>
        <pt x="207" y="788" on="1"/>
        <pt x="55" y="788" on="1"/>
        <pt x="48" y="788" on="0"/>
        <pt x="48" y="780" on="1"/>
        <pt x="48" y="4" on="1"/>
        <pt x="48" y="-4" on="0"/>
      </contour>
      <contour>
        <pt x="62" y="12" on="1"/>
        <pt x="62" y="772" on="1"/>
        <pt x="200" y="772" on="1"/>
        <pt x="200" y="517" on="1"/>
        <pt x="200" y="510" on="0"/>
        <pt x="207" y="510" on="1"/>
        <pt x="208" y="510" on="1"/>
        <pt x="231" y="510" on="1"/>
        <pt x="335" y="510" on="0"/>
        <pt x="408" y="437" on="1"/>
        <pt x="482" y="363" on="0"/>
        <pt x="482" y="260" on="1"/>
        <pt x="482" y="157" on="0"/>
        <pt x="408" y="83" on="1"/>
        <pt x="335" y="10" on="0"/>
        <pt x="231" y="10" on="1"/>
        <pt x="213" y="10" on="0"/>
        <pt x="208" y="11" on="1"/>
        <pt x="207" y="12" on="1"/>
      </contour>
      <contour>
        <pt x="200" y="157" on="1"/>
        <pt x="200" y="152" on="0"/>
        <pt x="205" y="150" on="1"/>
        <pt x="223" y="146" on="0"/>
        <pt x="231" y="146" on="1"/>
        <pt x="278" y="146" on="0"/>
        <pt x="312" y="180" on="1"/>
        <pt x="346" y="214" on="0"/>
        <pt x="346" y="260" on="1"/>
        <pt x="346" y="307" on="0"/>
        <pt x="312" y="341" on="1"/>
        <pt x="279" y="374" on="0"/>
        <pt x="231" y="374" on="1"/>
        <pt x="218" y="374" on="0"/>
        <pt x="205" y="371" on="1"/>
        <pt x="200" y="369" on="0"/>
        <pt x="200" y="364" on="1"/>
      </contour>
      <contour>
        <pt x="231" y="162" on="1"/>
        <pt x="220" y="162" on="0"/>
        <pt x="214" y="163" on="1"/>
        <pt x="214" y="358" on="1"/>
        <pt x="226" y="360" on="0"/>
        <pt x="231" y="360" on="1"/>
        <pt x="273" y="360" on="0"/>
        <pt x="302" y="331" on="1"/>
        <pt x="330" y="303" on="0"/>
        <pt x="330" y="260" on="1"/>
        <pt x="330" y="218" on="0"/>
        <pt x="302" y="190" on="1"/>
        <pt x="274" y="162" on="0"/>
      </contour>
    </TTGlyph>
    <TTGlyph name="b.3" xMin="50" yMin="3" xMax="484" yMax="780">
      <component glyphName="b.0" x="-35" y="0" flags="0x4"/>
    </TTGlyph>
    <TTGlyph name="backslash" xMin="50" yMin="-83" xMax="641" yMax="818">
      <contour>
        <pt x="156" y="818" on="1"/>
        <pt x="641" y="-22" on="1"/>
        <pt x="535" y="-83" on="1"/>
        <pt x="50" y="757" on="1"/>
      </contour>
    </TTGlyph>
    <TTGlyph name="backslash.0" xMin="85" yMin="-83" xMax="676" yMax="818">
      <contour>
        <pt x="191" y="818" on="1"/>
        <pt x="85" y="757" on="1"/>
        <pt x="570" y="-83" on="1"/>
        <pt x="676" y="-22" on="1"/>
      </contour>
    </TTGlyph>
    <TTGlyph name="backslash.1" xMin="150" yMin="-17" xMax="594" yMax="164">
      <contour>
        <pt x="268" y="164" on="1"/>
        <pt x="150" y="151" on="1"/>
        <pt x="477" y="-17" on="1"/>
        <pt x="594" y="-4" on="1"/>
      </contour>
    </TTGlyph>
</ttFont>
